%TF.GenerationSoftware,KiCad,Pcbnew,9.0.6*%
%TF.CreationDate,2026-04-04T11:40:03+08:00*%
%TF.ProjectId,ZBoard V1,5a426f61-7264-4205-9631-2e6b69636164,rev?*%
%TF.SameCoordinates,Original*%
%TF.FileFunction,Paste,Bot*%
%TF.FilePolarity,Positive*%
%FSLAX46Y46*%
G04 Gerber Fmt 4.6, Leading zero omitted, Abs format (unit mm)*
G04 Created by KiCad (PCBNEW 9.0.6) date 2026-04-04 11:40:03*
%MOMM*%
%LPD*%
G01*
G04 APERTURE LIST*
G04 Aperture macros list*
%AMRoundRect*
0 Rectangle with rounded corners*
0 $1 Rounding radius*
0 $2 $3 $4 $5 $6 $7 $8 $9 X,Y pos of 4 corners*
0 Add a 4 corners polygon primitive as box body*
4,1,4,$2,$3,$4,$5,$6,$7,$8,$9,$2,$3,0*
0 Add four circle primitives for the rounded corners*
1,1,$1+$1,$2,$3*
1,1,$1+$1,$4,$5*
1,1,$1+$1,$6,$7*
1,1,$1+$1,$8,$9*
0 Add four rect primitives between the rounded corners*
20,1,$1+$1,$2,$3,$4,$5,0*
20,1,$1+$1,$4,$5,$6,$7,0*
20,1,$1+$1,$6,$7,$8,$9,0*
20,1,$1+$1,$8,$9,$2,$3,0*%
G04 Aperture macros list end*
%ADD10RoundRect,0.200000X-1.075000X-1.075000X1.075000X-1.075000X1.075000X1.075000X-1.075000X1.075000X0*%
%ADD11RoundRect,0.225000X-0.375000X0.225000X-0.375000X-0.225000X0.375000X-0.225000X0.375000X0.225000X0*%
G04 APERTURE END LIST*
D10*
%TO.C,SW1*%
X29650000Y-29562500D03*
X16175000Y-28512500D03*
%TD*%
%TO.C,SW2*%
X29650000Y-48612500D03*
X16175000Y-47562500D03*
%TD*%
%TO.C,SW3*%
X34412500Y-67662500D03*
X20937500Y-66612500D03*
%TD*%
%TO.C,SW4*%
X36793750Y-86712500D03*
X23318750Y-85662500D03*
%TD*%
%TO.C,SW5*%
X41556250Y-105762500D03*
X28081250Y-104712500D03*
%TD*%
%TO.C,SW6*%
X32031250Y-124812500D03*
X18556250Y-123762500D03*
%TD*%
%TO.C,SW7*%
X48700000Y-29562500D03*
X35225000Y-28512500D03*
%TD*%
%TO.C,SW8*%
X48700000Y-48612500D03*
X35225000Y-47562500D03*
%TD*%
%TO.C,SW9*%
X58225000Y-67662500D03*
X44750000Y-66612500D03*
%TD*%
%TO.C,SW10*%
X62987500Y-86712500D03*
X49512500Y-85662500D03*
%TD*%
%TO.C,SW11*%
X72512500Y-105762500D03*
X59037500Y-104712500D03*
%TD*%
%TO.C,SW12*%
X55843750Y-124812500D03*
X42368750Y-123762500D03*
%TD*%
%TO.C,SW13*%
X67750000Y-29562500D03*
X54275000Y-28512500D03*
%TD*%
%TO.C,SW14*%
X67750000Y-48612500D03*
X54275000Y-47562500D03*
%TD*%
%TO.C,SW15*%
X77275000Y-67662500D03*
X63800000Y-66612500D03*
%TD*%
%TO.C,SW16*%
X82037500Y-86712500D03*
X68562500Y-85662500D03*
%TD*%
%TO.C,SW17*%
X91562500Y-105762500D03*
X78087500Y-104712500D03*
%TD*%
%TO.C,SW18*%
X79656250Y-124812500D03*
X66181250Y-123762500D03*
%TD*%
%TO.C,SW19*%
X86800000Y-29562500D03*
X73325000Y-28512500D03*
%TD*%
%TO.C,SW20*%
X86800000Y-48612500D03*
X73325000Y-47562500D03*
%TD*%
%TO.C,SW21*%
X96325000Y-67662500D03*
X82850000Y-66612500D03*
%TD*%
%TO.C,SW22*%
X101087500Y-86712500D03*
X87612500Y-85662500D03*
%TD*%
%TO.C,SW23*%
X110612500Y-105762500D03*
X97137500Y-104712500D03*
%TD*%
%TO.C,SW24*%
X151093750Y-124812500D03*
X137618750Y-123762500D03*
%TD*%
%TO.C,SW25*%
X105850000Y-29562500D03*
X92375000Y-28512500D03*
%TD*%
%TO.C,SW26*%
X105850000Y-48612500D03*
X92375000Y-47562500D03*
%TD*%
%TO.C,SW27*%
X115375000Y-67662500D03*
X101900000Y-66612500D03*
%TD*%
%TO.C,SW28*%
X120137500Y-86712500D03*
X106662500Y-85662500D03*
%TD*%
%TO.C,SW29*%
X129662500Y-105762500D03*
X116187500Y-104712500D03*
%TD*%
%TO.C,SW30*%
X220150000Y-124812500D03*
X206675000Y-123762500D03*
%TD*%
%TO.C,SW31*%
X124900000Y-29562500D03*
X111425000Y-28512500D03*
%TD*%
%TO.C,SW32*%
X124900000Y-48612500D03*
X111425000Y-47562500D03*
%TD*%
%TO.C,SW33*%
X134425000Y-67662500D03*
X120950000Y-66612500D03*
%TD*%
%TO.C,SW34*%
X139187500Y-86712500D03*
X125712500Y-85662500D03*
%TD*%
%TO.C,SW35*%
X148712500Y-105762500D03*
X135237500Y-104712500D03*
%TD*%
%TO.C,SW36*%
X239200000Y-124812500D03*
X225725000Y-123762500D03*
%TD*%
%TO.C,SW37*%
X143950000Y-29562500D03*
X130475000Y-28512500D03*
%TD*%
%TO.C,SW38*%
X143950000Y-48612500D03*
X130475000Y-47562500D03*
%TD*%
%TO.C,SW39*%
X153475000Y-67662500D03*
X140000000Y-66612500D03*
%TD*%
%TO.C,SW40*%
X158237500Y-86712500D03*
X144762500Y-85662500D03*
%TD*%
%TO.C,SW41*%
X167762500Y-105762500D03*
X154287500Y-104712500D03*
%TD*%
%TO.C,SW42*%
X258250000Y-124812500D03*
X244775000Y-123762500D03*
%TD*%
%TO.C,SW43*%
X163000000Y-29562500D03*
X149525000Y-28512500D03*
%TD*%
%TO.C,SW44*%
X163000000Y-48612500D03*
X149525000Y-47562500D03*
%TD*%
%TO.C,SW45*%
X172525000Y-67662500D03*
X159050000Y-66612500D03*
%TD*%
%TO.C,SW46*%
X177287500Y-86712500D03*
X163812500Y-85662500D03*
%TD*%
%TO.C,SW47*%
X186812500Y-105762500D03*
X173337500Y-104712500D03*
%TD*%
%TO.C,SW48*%
X277300000Y-124812500D03*
X263825000Y-123762500D03*
%TD*%
%TO.C,SW49*%
X182050000Y-29562500D03*
X168575000Y-28512500D03*
%TD*%
%TO.C,SW50*%
X182050000Y-48612500D03*
X168575000Y-47562500D03*
%TD*%
%TO.C,SW51*%
X191575000Y-67662500D03*
X178100000Y-66612500D03*
%TD*%
%TO.C,SW52*%
X196337500Y-86712500D03*
X182862500Y-85662500D03*
%TD*%
%TO.C,SW53*%
X205862500Y-105762500D03*
X192387500Y-104712500D03*
%TD*%
%TO.C,SW54*%
X296350000Y-124812500D03*
X282875000Y-123762500D03*
%TD*%
%TO.C,SW55*%
X201100000Y-29562500D03*
X187625000Y-28512500D03*
%TD*%
%TO.C,SW56*%
X201100000Y-48612500D03*
X187625000Y-47562500D03*
%TD*%
%TO.C,SW57*%
X210625000Y-67662500D03*
X197150000Y-66612500D03*
%TD*%
%TO.C,SW58*%
X215387500Y-86712500D03*
X201912500Y-85662500D03*
%TD*%
%TO.C,SW59*%
X224912500Y-105762500D03*
X211437500Y-104712500D03*
%TD*%
%TO.C,SW60*%
X315400000Y-124812500D03*
X301925000Y-123762500D03*
%TD*%
%TO.C,SW61*%
X220150000Y-29562500D03*
X206675000Y-28512500D03*
%TD*%
%TO.C,SW62*%
X220150000Y-48612500D03*
X206675000Y-47562500D03*
%TD*%
%TO.C,SW63*%
X229675000Y-67662500D03*
X216200000Y-66612500D03*
%TD*%
%TO.C,SW64*%
X234437500Y-86712500D03*
X220962500Y-85662500D03*
%TD*%
%TO.C,SW65*%
X243962500Y-105762500D03*
X230487500Y-104712500D03*
%TD*%
%TO.C,SW66*%
X239200000Y-29562500D03*
X225725000Y-28512500D03*
%TD*%
%TO.C,SW67*%
X239200000Y-48612500D03*
X225725000Y-47562500D03*
%TD*%
%TO.C,SW68*%
X248725000Y-67662500D03*
X235250000Y-66612500D03*
%TD*%
%TO.C,SW69*%
X253487500Y-86712500D03*
X240012500Y-85662500D03*
%TD*%
%TO.C,SW70*%
X270156250Y-105762500D03*
X256681250Y-104712500D03*
%TD*%
%TO.C,SW71*%
X258250000Y-29562500D03*
X244775000Y-28512500D03*
%TD*%
%TO.C,SW72*%
X258250000Y-48612500D03*
X244775000Y-47562500D03*
%TD*%
%TO.C,SW73*%
X267775000Y-67662500D03*
X254300000Y-66612500D03*
%TD*%
%TO.C,SW74*%
X284443750Y-86712500D03*
X270968750Y-85662500D03*
%TD*%
%TO.C,SW75*%
X296350000Y-105762500D03*
X282875000Y-104712500D03*
%TD*%
%TO.C,SW76*%
X277300000Y-29562500D03*
X263825000Y-28512500D03*
%TD*%
%TO.C,SW77*%
X286825000Y-48612500D03*
X273350000Y-47562500D03*
%TD*%
%TO.C,SW78*%
X291587500Y-67662500D03*
X278112500Y-66612500D03*
%TD*%
%TO.C,SW79*%
X315400000Y-86712500D03*
X301925000Y-85662500D03*
%TD*%
%TO.C,SW80*%
X315400000Y-105762500D03*
X301925000Y-104712500D03*
%TD*%
%TO.C,SW81*%
X296350000Y-29562500D03*
X282875000Y-28512500D03*
%TD*%
%TO.C,SW82*%
X315400000Y-48612500D03*
X301925000Y-47562500D03*
%TD*%
%TO.C,SW83*%
X315400000Y-67662500D03*
X301925000Y-66612500D03*
%TD*%
%TO.C,SW84*%
X315400000Y-29562500D03*
X301925000Y-28512500D03*
%TD*%
D11*
%TO.C,D49*%
X185737500Y-22162500D03*
X185737500Y-25462500D03*
%TD*%
%TO.C,D67*%
X242887500Y-41212500D03*
X242887500Y-44512500D03*
%TD*%
%TO.C,D55*%
X204787500Y-22162500D03*
X204787500Y-25462500D03*
%TD*%
%TO.C,D31*%
X128587500Y-22162500D03*
X128587500Y-25462500D03*
%TD*%
%TO.C,D60*%
X319087500Y-117412500D03*
X319087500Y-120712500D03*
%TD*%
%TO.C,D16*%
X85725000Y-79312500D03*
X85725000Y-82612500D03*
%TD*%
%TO.C,D28*%
X123825000Y-79312500D03*
X123825000Y-82612500D03*
%TD*%
%TO.C,D80*%
X319087500Y-98362500D03*
X319087500Y-101662500D03*
%TD*%
%TO.C,D18*%
X85725000Y-117412500D03*
X85725000Y-120712500D03*
%TD*%
%TO.C,D82*%
X319087500Y-41212500D03*
X319087500Y-44512500D03*
%TD*%
%TO.C,D52*%
X200025000Y-79312500D03*
X200025000Y-82612500D03*
%TD*%
%TO.C,D25*%
X109537500Y-22162500D03*
X109537500Y-25462500D03*
%TD*%
%TO.C,D56*%
X204787500Y-41212500D03*
X204787500Y-44512500D03*
%TD*%
%TO.C,D72*%
X261937500Y-41212500D03*
X261937500Y-44512500D03*
%TD*%
%TO.C,D46*%
X180975000Y-79312500D03*
X180975000Y-82612500D03*
%TD*%
%TO.C,D68*%
X252412500Y-60262500D03*
X252412500Y-63562500D03*
%TD*%
%TO.C,D76*%
X280987500Y-22162500D03*
X280987500Y-25462500D03*
%TD*%
%TO.C,D14*%
X71437500Y-41212500D03*
X71437500Y-44512500D03*
%TD*%
%TO.C,D17*%
X95250000Y-98362500D03*
X95250000Y-101662500D03*
%TD*%
%TO.C,D73*%
X271462500Y-60262500D03*
X271462500Y-63562500D03*
%TD*%
%TO.C,D65*%
X247650000Y-98362500D03*
X247650000Y-101662500D03*
%TD*%
%TO.C,D30*%
X223837500Y-117412500D03*
X223837500Y-120712500D03*
%TD*%
%TO.C,D34*%
X142875000Y-79312500D03*
X142875000Y-82612500D03*
%TD*%
%TO.C,D2*%
X33337500Y-41212500D03*
X33337500Y-44512500D03*
%TD*%
%TO.C,D62*%
X223837500Y-41212500D03*
X223837500Y-44512500D03*
%TD*%
%TO.C,D39*%
X157162500Y-60262500D03*
X157162500Y-63562500D03*
%TD*%
%TO.C,D9*%
X61912500Y-60262500D03*
X61912500Y-63562500D03*
%TD*%
%TO.C,D78*%
X300037500Y-60262500D03*
X300037500Y-63562500D03*
%TD*%
%TO.C,D44*%
X166687500Y-41212500D03*
X166687500Y-44512500D03*
%TD*%
%TO.C,D63*%
X233362500Y-60262500D03*
X233362500Y-63562500D03*
%TD*%
%TO.C,D29*%
X133350000Y-98362500D03*
X133350000Y-101662500D03*
%TD*%
%TO.C,D7*%
X52387500Y-22162500D03*
X52387500Y-25462500D03*
%TD*%
%TO.C,D84*%
X319087500Y-22162500D03*
X319087500Y-25462500D03*
%TD*%
%TO.C,D41*%
X171450000Y-98362500D03*
X171450000Y-101662500D03*
%TD*%
%TO.C,D64*%
X238125000Y-79312500D03*
X238125000Y-82612500D03*
%TD*%
%TO.C,D6*%
X38100000Y-117412500D03*
X38100000Y-120712500D03*
%TD*%
%TO.C,D70*%
X280987500Y-98362500D03*
X280987500Y-101662500D03*
%TD*%
%TO.C,D45*%
X176212500Y-60262500D03*
X176212500Y-63562500D03*
%TD*%
%TO.C,D69*%
X257175000Y-79312500D03*
X257175000Y-82612500D03*
%TD*%
%TO.C,D47*%
X190500000Y-98362500D03*
X190500000Y-101662500D03*
%TD*%
%TO.C,D3*%
X42862500Y-60262500D03*
X42862500Y-63562500D03*
%TD*%
%TO.C,D22*%
X104775000Y-79312500D03*
X104775000Y-82612500D03*
%TD*%
%TO.C,D71*%
X261937500Y-22162500D03*
X261937500Y-25462500D03*
%TD*%
%TO.C,D15*%
X80962500Y-60262500D03*
X80962500Y-63562500D03*
%TD*%
%TO.C,D21*%
X100012500Y-60262500D03*
X100012500Y-63562500D03*
%TD*%
%TO.C,D74*%
X300037500Y-79312500D03*
X300037500Y-82612500D03*
%TD*%
%TO.C,D48*%
X280987500Y-117412500D03*
X280987500Y-120712500D03*
%TD*%
%TO.C,D42*%
X261937500Y-117412500D03*
X261937500Y-120712500D03*
%TD*%
%TO.C,D32*%
X128587500Y-41212500D03*
X128587500Y-44512500D03*
%TD*%
%TO.C,D35*%
X152400000Y-98362500D03*
X152400000Y-101662500D03*
%TD*%
%TO.C,D19*%
X90487500Y-22162500D03*
X90487500Y-25462500D03*
%TD*%
%TO.C,D26*%
X109537500Y-41212500D03*
X109537500Y-44512500D03*
%TD*%
%TO.C,D23*%
X114300000Y-98362500D03*
X114300000Y-101662500D03*
%TD*%
%TO.C,D36*%
X242887500Y-117412500D03*
X242887500Y-120712500D03*
%TD*%
%TO.C,D54*%
X300037500Y-117412500D03*
X300037500Y-120712500D03*
%TD*%
%TO.C,D66*%
X242887500Y-22162500D03*
X242887500Y-25462500D03*
%TD*%
%TO.C,D77*%
X300037500Y-41212500D03*
X300037500Y-44512500D03*
%TD*%
%TO.C,D58*%
X219075000Y-79312500D03*
X219075000Y-82612500D03*
%TD*%
%TO.C,D12*%
X61912500Y-117412500D03*
X61912500Y-120712500D03*
%TD*%
%TO.C,D61*%
X223837500Y-22162500D03*
X223837500Y-25462500D03*
%TD*%
%TO.C,D59*%
X228600000Y-98362500D03*
X228600000Y-101662500D03*
%TD*%
%TO.C,D40*%
X161925000Y-79312500D03*
X161925000Y-82612500D03*
%TD*%
%TO.C,D11*%
X76200000Y-98362500D03*
X76200000Y-101662500D03*
%TD*%
%TO.C,D24*%
X204787500Y-117412500D03*
X204787500Y-120712500D03*
%TD*%
%TO.C,D83*%
X319087500Y-60262500D03*
X319087500Y-63562500D03*
%TD*%
%TO.C,D10*%
X66675000Y-79312500D03*
X66675000Y-82612500D03*
%TD*%
%TO.C,D20*%
X90487500Y-41212500D03*
X90487500Y-44512500D03*
%TD*%
%TO.C,D1*%
X33337500Y-22162500D03*
X33337500Y-25462500D03*
%TD*%
%TO.C,D57*%
X214312500Y-60262500D03*
X214312500Y-63562500D03*
%TD*%
%TO.C,D37*%
X147637500Y-22162500D03*
X147637500Y-25462500D03*
%TD*%
%TO.C,D27*%
X119062500Y-60262500D03*
X119062500Y-63562500D03*
%TD*%
%TO.C,D13*%
X71437500Y-22162500D03*
X71437500Y-25462500D03*
%TD*%
%TO.C,D38*%
X147637500Y-41212500D03*
X147637500Y-44512500D03*
%TD*%
%TO.C,D53*%
X209550000Y-98362500D03*
X209550000Y-101662500D03*
%TD*%
%TO.C,D51*%
X195262500Y-60262500D03*
X195262500Y-63562500D03*
%TD*%
%TO.C,D43*%
X166687500Y-22162500D03*
X166687500Y-25462500D03*
%TD*%
%TO.C,D8*%
X52387500Y-41212500D03*
X52387500Y-44512500D03*
%TD*%
%TO.C,D4*%
X47625000Y-79312500D03*
X47625000Y-82612500D03*
%TD*%
%TO.C,D79*%
X319087500Y-79312500D03*
X319087500Y-82612500D03*
%TD*%
%TO.C,D5*%
X57150000Y-98362500D03*
X57150000Y-101662500D03*
%TD*%
%TO.C,D81*%
X300037500Y-22162500D03*
X300037500Y-25462500D03*
%TD*%
%TO.C,D33*%
X138112500Y-60262500D03*
X138112500Y-63562500D03*
%TD*%
%TO.C,D50*%
X185737500Y-41212500D03*
X185737500Y-44512500D03*
%TD*%
%TO.C,D75*%
X300037500Y-98362500D03*
X300037500Y-101662500D03*
%TD*%
M02*
