M48
; DRILL file {KiCad 9.0.6} date 2026-03-25T18:17:54+0800
; FORMAT={-:-/ absolute / metric / decimal}
; #@! TF.CreationDate,2026-03-25T18:17:54+08:00
; #@! TF.GenerationSoftware,Kicad,Pcbnew,9.0.6
; #@! TF.FileFunction,NonPlated,1,2,NPTH
FMAT,2
METRIC
; #@! TA.AperFunction,NonPlated,NPTH,ComponentDrill
T1C3.000
; #@! TA.AperFunction,NonPlated,NPTH,ComponentDrill
T2C5.100
%
G90
G05
T1
X19.412Y-28.512
X19.412Y-47.562
X21.794Y-123.762
X24.175Y-66.612
X26.412Y-29.562
X26.412Y-48.612
X26.556Y-85.662
X28.794Y-124.812
X31.175Y-67.662
X31.319Y-104.712
X33.556Y-86.712
X38.319Y-105.762
X38.462Y-28.512
X38.462Y-47.562
X45.462Y-29.562
X45.462Y-48.612
X45.606Y-123.762
X47.987Y-66.612
X52.606Y-124.812
X52.75Y-85.662
X54.987Y-67.662
X57.512Y-28.512
X57.512Y-47.562
X59.75Y-86.712
X62.275Y-104.712
X64.513Y-29.562
X64.513Y-48.612
X67.037Y-66.612
X69.275Y-105.762
X69.419Y-123.762
X71.8Y-85.662
X74.037Y-67.662
X76.419Y-124.812
X76.562Y-28.512
X76.562Y-47.562
X78.8Y-86.712
X81.325Y-104.712
X83.562Y-29.562
X83.562Y-48.612
X86.087Y-66.612
X88.325Y-105.762
X90.85Y-85.662
X93.087Y-67.662
X95.612Y-28.512
X95.612Y-47.562
X97.85Y-86.712
X100.375Y-104.712
X102.612Y-29.562
X102.612Y-48.612
X105.137Y-66.612
X107.375Y-105.762
X109.9Y-85.662
X112.137Y-67.662
X114.662Y-28.512
X114.662Y-47.562
X116.9Y-86.712
X119.425Y-104.712
X121.662Y-29.562
X121.662Y-48.612
X124.188Y-66.612
X126.425Y-105.762
X128.95Y-85.662
X131.188Y-67.662
X133.713Y-28.512
X133.713Y-47.562
X135.95Y-86.712
X138.475Y-104.712
X140.713Y-29.562
X140.713Y-48.612
X140.856Y-123.762
X143.237Y-66.612
X145.475Y-105.762
X147.856Y-124.812
X148.0Y-85.662
X150.237Y-67.662
X152.762Y-28.512
X152.762Y-47.562
X155.0Y-86.712
X157.525Y-104.712
X159.762Y-29.562
X159.762Y-48.612
X162.287Y-66.612
X164.525Y-105.762
X167.05Y-85.662
X169.287Y-67.662
X171.812Y-28.512
X171.812Y-47.562
X174.05Y-86.712
X176.575Y-104.712
X178.812Y-29.562
X178.812Y-48.612
X181.338Y-66.612
X183.575Y-105.762
X186.1Y-85.662
X188.338Y-67.662
X190.862Y-28.512
X190.862Y-47.562
X193.1Y-86.712
X195.625Y-104.712
X197.862Y-29.562
X197.862Y-48.612
X200.387Y-66.612
X202.625Y-105.762
X205.15Y-85.662
X207.387Y-67.662
X209.912Y-28.512
X209.912Y-47.562
X209.912Y-123.762
X212.15Y-86.712
X214.675Y-104.712
X216.912Y-29.562
X216.912Y-48.612
X216.912Y-124.812
X219.438Y-66.612
X221.675Y-105.762
X224.2Y-85.662
X226.438Y-67.662
X228.962Y-28.512
X228.962Y-47.562
X228.962Y-123.762
X231.2Y-86.712
X233.725Y-104.712
X235.962Y-29.562
X235.962Y-48.612
X235.962Y-124.812
X238.487Y-66.612
X240.725Y-105.762
X243.25Y-85.662
X245.487Y-67.662
X248.012Y-28.512
X248.012Y-47.562
X248.012Y-123.762
X250.25Y-86.712
X255.012Y-29.562
X255.012Y-48.612
X255.012Y-124.812
X257.537Y-66.612
X259.919Y-104.712
X264.537Y-67.662
X266.919Y-105.762
X267.062Y-28.512
X267.062Y-123.762
X274.062Y-29.562
X274.062Y-124.812
X274.206Y-85.662
X276.587Y-47.562
X281.206Y-86.712
X281.35Y-66.612
X283.587Y-48.612
X286.113Y-28.512
X286.113Y-104.712
X286.113Y-123.762
X288.35Y-67.662
X293.113Y-29.562
X293.113Y-105.762
X293.113Y-124.812
X305.162Y-28.512
X305.162Y-47.562
X305.162Y-66.612
X305.162Y-85.662
X305.162Y-104.712
X305.162Y-123.762
X312.162Y-29.562
X312.162Y-48.612
X312.162Y-67.662
X312.162Y-86.712
X312.162Y-105.762
X312.162Y-124.812
T2
X23.812Y-23.812
X23.812Y-42.862
X26.194Y-119.062
X28.575Y-61.912
X30.956Y-80.962
X35.719Y-100.012
X42.862Y-23.812
X42.862Y-42.862
X50.006Y-119.062
X52.387Y-61.912
X57.15Y-80.962
X61.912Y-23.812
X61.912Y-42.862
X66.675Y-100.012
X71.438Y-61.912
X73.819Y-119.062
X76.2Y-80.962
X80.962Y-23.812
X80.962Y-42.862
X85.725Y-100.012
X90.487Y-61.912
X95.25Y-80.962
X100.012Y-23.812
X100.012Y-42.862
X104.775Y-100.012
X109.537Y-61.912
X114.3Y-80.962
X119.062Y-23.812
X119.062Y-42.862
X123.825Y-100.012
X128.588Y-61.912
X133.35Y-80.962
X138.112Y-23.812
X138.112Y-42.862
X142.875Y-100.012
X145.256Y-119.062
X147.637Y-61.912
X152.4Y-80.962
X157.162Y-23.812
X157.162Y-42.862
X161.925Y-100.012
X166.688Y-61.912
X171.45Y-80.962
X176.213Y-23.812
X176.213Y-42.862
X180.975Y-100.012
X185.737Y-61.912
X190.5Y-80.962
X195.262Y-23.812
X195.262Y-42.862
X200.025Y-100.012
X204.787Y-61.912
X209.55Y-80.962
X214.312Y-23.812
X214.312Y-42.862
X214.312Y-119.062
X219.075Y-100.012
X223.837Y-61.912
X228.6Y-80.962
X233.362Y-23.812
X233.362Y-42.862
X233.362Y-119.062
X238.125Y-100.012
X242.887Y-61.912
X247.65Y-80.962
X252.412Y-23.812
X252.412Y-42.862
X252.412Y-119.062
X261.938Y-61.912
X264.319Y-100.012
X271.462Y-23.812
X271.462Y-119.062
X278.606Y-80.962
X280.988Y-42.862
X285.75Y-61.912
X290.512Y-23.812
X290.512Y-100.012
X290.512Y-119.062
X309.562Y-23.812
X309.562Y-42.862
X309.562Y-61.912
X309.562Y-80.962
X309.562Y-100.012
X309.562Y-119.062
M30
