%TF.GenerationSoftware,KiCad,Pcbnew,9.0.6*%
%TF.CreationDate,2026-04-04T11:40:03+08:00*%
%TF.ProjectId,ZBoard V1,5a426f61-7264-4205-9631-2e6b69636164,rev?*%
%TF.SameCoordinates,Original*%
%TF.FileFunction,Copper,L1,Top*%
%TF.FilePolarity,Positive*%
%FSLAX46Y46*%
G04 Gerber Fmt 4.6, Leading zero omitted, Abs format (unit mm)*
G04 Created by KiCad (PCBNEW 9.0.6) date 2026-04-04 11:40:03*
%MOMM*%
%LPD*%
G01*
G04 APERTURE LIST*
G04 Aperture macros list*
%AMRoundRect*
0 Rectangle with rounded corners*
0 $1 Rounding radius*
0 $2 $3 $4 $5 $6 $7 $8 $9 X,Y pos of 4 corners*
0 Add a 4 corners polygon primitive as box body*
4,1,4,$2,$3,$4,$5,$6,$7,$8,$9,$2,$3,0*
0 Add four circle primitives for the rounded corners*
1,1,$1+$1,$2,$3*
1,1,$1+$1,$4,$5*
1,1,$1+$1,$6,$7*
1,1,$1+$1,$8,$9*
0 Add four rect primitives between the rounded corners*
20,1,$1+$1,$2,$3,$4,$5,0*
20,1,$1+$1,$4,$5,$6,$7,0*
20,1,$1+$1,$6,$7,$8,$9,0*
20,1,$1+$1,$8,$9,$2,$3,0*%
G04 Aperture macros list end*
%TA.AperFunction,SMDPad,CuDef*%
%ADD10C,2.000000*%
%TD*%
%TA.AperFunction,SMDPad,CuDef*%
%ADD11R,2.000000X2.000000*%
%TD*%
%TA.AperFunction,SMDPad,CuDef*%
%ADD12C,1.700000*%
%TD*%
%TA.AperFunction,SMDPad,CuDef*%
%ADD13RoundRect,0.275000X-0.275000X0.975000X-0.275000X-0.975000X0.275000X-0.975000X0.275000X0.975000X0*%
%TD*%
%TA.AperFunction,ComponentPad*%
%ADD14RoundRect,0.750000X0.750000X0.750000X-0.750000X0.750000X-0.750000X-0.750000X0.750000X-0.750000X0*%
%TD*%
%TA.AperFunction,SMDPad,CuDef*%
%ADD15RoundRect,0.500000X-0.875000X-0.500000X0.875000X-0.500000X0.875000X0.500000X-0.875000X0.500000X0*%
%TD*%
%TA.AperFunction,ComponentPad*%
%ADD16C,1.230000*%
%TD*%
%TA.AperFunction,ComponentPad*%
%ADD17R,1.230000X1.230000*%
%TD*%
%TA.AperFunction,ComponentPad*%
%ADD18C,1.308000*%
%TD*%
%TA.AperFunction,ViaPad*%
%ADD19C,0.600000*%
%TD*%
%TA.AperFunction,Conductor*%
%ADD20C,0.200000*%
%TD*%
G04 APERTURE END LIST*
D10*
%TO.P,TP1,1,1*%
%TO.N,/VBAT*%
X335000000Y-79000000D03*
%TD*%
D11*
%TO.P,TP2,1,1*%
%TO.N,BATGND*%
X331000000Y-79000000D03*
%TD*%
D12*
%TO.P,U1,22,GND*%
%TO.N,unconnected-(U1-GND-Pad22)*%
X332208750Y-20165250D03*
%TO.P,U1,21,RESET*%
%TO.N,unconnected-(U1-RESET-Pad21)*%
X329668750Y-20165250D03*
%TO.P,U1,20,PA30_SWCLK*%
%TO.N,unconnected-(U1-PA30_SWCLK-Pad20)*%
X332208750Y-17625250D03*
%TO.P,U1,19,PA31_SWDIO*%
%TO.N,unconnected-(U1-PA31_SWDIO-Pad19)*%
X329668750Y-17625250D03*
D13*
%TO.P,U1,18,NFC2*%
%TO.N,unconnected-(U1-NFC2-Pad18)*%
X336653750Y-35430650D03*
%TO.P,U1,17,NFC1*%
%TO.N,unconnected-(U1-NFC1-Pad17)*%
X334748750Y-35430650D03*
D14*
%TO.P,U1,16,GND*%
%TO.N,BATGND*%
X326493750Y-23193750D03*
%TO.P,U1,15,BAT*%
%TO.N,/VBAT*%
X326493750Y-26593750D03*
D15*
%TO.P,U1,14,5V*%
%TO.N,+5V*%
X339048750Y-18573750D03*
%TO.P,U1,13,GND*%
%TO.N,GND*%
X339048750Y-21113750D03*
%TO.P,U1,12,3V3*%
%TO.N,unconnected-(U1-3V3-Pad12)*%
X339048750Y-23653750D03*
%TO.P,U1,11,P1.15_D10_MOSI*%
%TO.N,/ROW3*%
X339048750Y-26193750D03*
%TO.P,U1,10,P1.14_D9_MISO*%
%TO.N,/ROW4*%
X339048750Y-28733750D03*
%TO.P,U1,9,P1.13_D8_SCK*%
%TO.N,/ROW1*%
X339048750Y-31273750D03*
%TO.P,U1,8,P1.12_D7_RX*%
%TO.N,/ROW5*%
X339048750Y-33813750D03*
%TO.P,U1,7,P1.11_D6_TX*%
%TO.N,/ROW2*%
X322883750Y-33813750D03*
%TO.P,U1,6,P0.05_A5_D5_SCL*%
%TO.N,/SCL*%
X322883750Y-31273750D03*
%TO.P,U1,5,P0.04_A4_D4_SDA*%
%TO.N,/SDA*%
X322883750Y-28733750D03*
%TO.P,U1,4,P0.29_A3_D3*%
%TO.N,/BT_PIN*%
X322883750Y-26193750D03*
%TO.P,U1,3,P0.28_A2_D2*%
%TO.N,/ROW6*%
X322883750Y-23653750D03*
%TO.P,U1,2,P0.03_A1_D1*%
%TO.N,/COL16*%
X322883750Y-21113750D03*
%TO.P,U1,1,P0.02_A0_D0*%
%TO.N,/COL15*%
X322883750Y-18573750D03*
%TD*%
D16*
%TO.P,U2,28,GPA7*%
%TO.N,unconnected-(U2-GPA7-Pad28)*%
X334101250Y-41275000D03*
%TO.P,U2,27,GPA6*%
%TO.N,/COL7*%
X334101250Y-43815000D03*
%TO.P,U2,26,GPA5*%
%TO.N,/COL6*%
X334101250Y-46355000D03*
%TO.P,U2,25,GPA4*%
%TO.N,/COL5*%
X334101250Y-48895000D03*
%TO.P,U2,24,GPA3*%
%TO.N,/COL4*%
X334101250Y-51435000D03*
%TO.P,U2,23,GPA2*%
%TO.N,/COL3*%
X334101250Y-53975000D03*
%TO.P,U2,22,GPA1*%
%TO.N,/COL2*%
X334101250Y-56515000D03*
%TO.P,U2,21,GPA0*%
%TO.N,/COL1*%
X334101250Y-59055000D03*
%TO.P,U2,20,INTA*%
%TO.N,unconnected-(U2-INTA-Pad20)*%
X334101250Y-61595000D03*
%TO.P,U2,19,INTB*%
%TO.N,unconnected-(U2-INTB-Pad19)*%
X334101250Y-64135000D03*
%TO.P,U2,18,~{RESET}*%
%TO.N,+5V*%
X334101250Y-66675000D03*
%TO.P,U2,17,A2*%
%TO.N,GND*%
X334101250Y-69215000D03*
%TO.P,U2,16,A1*%
X334101250Y-71755000D03*
%TO.P,U2,15,A0*%
X334101250Y-74295000D03*
%TO.P,U2,14,NC__1*%
%TO.N,unconnected-(U2-NC__1-Pad14)*%
X326231250Y-74295000D03*
%TO.P,U2,13,SDA*%
%TO.N,/SDA*%
X326231250Y-71755000D03*
%TO.P,U2,12,SCK*%
%TO.N,/SCL*%
X326231250Y-69215000D03*
%TO.P,U2,11,NC*%
%TO.N,unconnected-(U2-NC-Pad11)*%
X326231250Y-66675000D03*
%TO.P,U2,10,VSS*%
%TO.N,GND*%
X326231250Y-64135000D03*
%TO.P,U2,9,VDD*%
%TO.N,+5V*%
X326231250Y-61595000D03*
%TO.P,U2,8,GPB7*%
%TO.N,unconnected-(U2-GPB7-Pad8)*%
X326231250Y-59055000D03*
%TO.P,U2,7,GPB6*%
%TO.N,/COL14*%
X326231250Y-56515000D03*
%TO.P,U2,6,GPB5*%
%TO.N,/COL13*%
X326231250Y-53975000D03*
%TO.P,U2,5,GPB4*%
%TO.N,/COL12*%
X326231250Y-51435000D03*
%TO.P,U2,4,GPB3*%
%TO.N,/COL11*%
X326231250Y-48895000D03*
%TO.P,U2,3,GPB2*%
%TO.N,/COL10*%
X326231250Y-46355000D03*
%TO.P,U2,2,GPB1*%
%TO.N,/COL9*%
X326231250Y-43815000D03*
D17*
%TO.P,U2,1,GPB0*%
%TO.N,/COL8*%
X326231250Y-41275000D03*
%TD*%
D18*
%TO.P,R2,1*%
%TO.N,/BT_PIN*%
X340518750Y-63556250D03*
%TO.P,R2,2*%
%TO.N,GND*%
X340518750Y-74556250D03*
%TD*%
%TO.P,R1,1*%
%TO.N,/VBAT*%
X340518750Y-49268750D03*
%TO.P,R1,2*%
%TO.N,/BT_PIN*%
X340518750Y-60268750D03*
%TD*%
D19*
%TO.N,/ROW1*%
X339048750Y-31273750D03*
%TO.N,/COL6*%
X235300000Y-129400000D03*
%TO.N,/SCL*%
X322883750Y-31273750D03*
%TO.N,+5V*%
X331900000Y-62400000D03*
%TO.N,BATGND*%
X337000000Y-84000000D03*
%TO.N,/ROW2*%
X242887500Y-41212500D03*
X71437500Y-41212500D03*
X109537500Y-41212500D03*
X300037500Y-41212500D03*
X185737500Y-41212500D03*
X33337500Y-41212500D03*
X223837500Y-41212500D03*
X52387500Y-41212500D03*
X322883750Y-33813750D03*
X90487500Y-41212500D03*
X128587500Y-41212500D03*
X204787500Y-41212500D03*
X147637500Y-41212500D03*
X261937500Y-41212500D03*
X166687500Y-41212500D03*
X319087500Y-41212500D03*
%TO.N,/ROW3*%
X61912500Y-60262500D03*
X331000000Y-30000000D03*
X80962500Y-60262500D03*
X319087500Y-60262500D03*
X42862500Y-60262500D03*
X138112500Y-60262500D03*
X271462500Y-60262500D03*
X333000000Y-30000000D03*
X233362500Y-60262500D03*
X157162500Y-60262500D03*
X195262500Y-60262500D03*
X214312500Y-60262500D03*
X327000000Y-55000000D03*
X331000000Y-33000000D03*
X176212500Y-60262500D03*
X252412500Y-60262500D03*
X100012500Y-60262500D03*
X300037500Y-60262500D03*
X119062500Y-60262500D03*
%TO.N,/ROW4*%
X180975000Y-79312500D03*
X142875000Y-79312500D03*
X338963750Y-39000000D03*
X200025000Y-79312500D03*
X319087500Y-79312500D03*
X257175000Y-79312500D03*
X300037500Y-79312500D03*
X161925000Y-79312500D03*
X104775000Y-79312500D03*
X219075000Y-79312500D03*
X123825000Y-79312500D03*
X238125000Y-79312500D03*
X47625000Y-79312500D03*
X85725000Y-79312500D03*
X66675000Y-79312500D03*
%TO.N,/ROW5*%
X247650000Y-98362500D03*
X280987500Y-98362500D03*
X171450000Y-98362500D03*
X319087500Y-98362500D03*
X190500000Y-98362500D03*
X300037500Y-98362500D03*
X209550000Y-98362500D03*
X76200000Y-98362500D03*
X95250000Y-98362500D03*
X338000000Y-39881250D03*
X152400000Y-98362500D03*
X228600000Y-98362500D03*
X57150000Y-98362500D03*
X114300000Y-98362500D03*
X133350000Y-98362500D03*
%TO.N,/ROW6*%
X38100000Y-117412500D03*
X340000000Y-116000000D03*
X61912500Y-117412500D03*
X223837500Y-117412500D03*
X300037500Y-117412500D03*
X204787500Y-117412500D03*
X85725000Y-117412500D03*
X319087500Y-117412500D03*
X242887500Y-117412500D03*
X280987500Y-117412500D03*
X261937500Y-117412500D03*
%TO.N,/BT_PIN*%
X322883750Y-26193750D03*
%TO.N,/VBAT*%
X337000000Y-83000000D03*
%TO.N,/COL1*%
X332000000Y-70000000D03*
X332000000Y-122000000D03*
X332000000Y-68000000D03*
X332000000Y-127000000D03*
X18556250Y-123762500D03*
%TO.N,/COL2*%
X330000000Y-67000000D03*
X44875000Y-118875000D03*
X330000000Y-69000000D03*
%TO.N,/COL3*%
X208000000Y-129600000D03*
X335000000Y-73000000D03*
X66181250Y-123762500D03*
X233000000Y-127799994D03*
X335000000Y-76000000D03*
%TO.N,/COL4*%
X336000000Y-76000000D03*
X336000000Y-73000000D03*
X210000000Y-129000000D03*
X233000000Y-128599997D03*
X137618750Y-123762500D03*
%TO.N,/COL5*%
X337000000Y-73000000D03*
X233000000Y-129400000D03*
X229900000Y-129400000D03*
X337000000Y-76000000D03*
X206675000Y-123762500D03*
%TO.N,/COL6*%
X338000000Y-76000000D03*
X338000000Y-73000000D03*
%TO.N,/COL7*%
X244775000Y-123762500D03*
%TO.N,/COL8*%
X149525000Y-38000000D03*
%TO.N,/COL9*%
X168575000Y-39000000D03*
%TO.N,/COL10*%
X187625000Y-45000000D03*
%TO.N,/COL11*%
X210056250Y-50943750D03*
%TO.N,/COL12*%
X225725000Y-51000000D03*
%TO.N,/COL13*%
X251106250Y-53893750D03*
%TO.N,/COL14*%
X286750000Y-75250000D03*
%TO.N,/COL15*%
X316000000Y-22000000D03*
%TO.N,/COL16*%
X301925000Y-28512500D03*
%TO.N,/SDA*%
X325000000Y-32000000D03*
%TO.N,+5V*%
X332000000Y-34000000D03*
X332000000Y-38000000D03*
%TD*%
D20*
%TO.N,/COL1*%
X332000000Y-127000000D02*
X328800000Y-130200000D01*
X328800000Y-130200000D02*
X24993750Y-130200000D01*
X24993750Y-130200000D02*
X18556250Y-123762500D01*
%TO.N,/COL6*%
X338000000Y-76000000D02*
X341000000Y-79000000D01*
X341000000Y-79000000D02*
X341000000Y-114000000D01*
X338000000Y-120000000D02*
X328600000Y-129400000D01*
X338000000Y-117000000D02*
X338000000Y-120000000D01*
X341000000Y-114000000D02*
X338000000Y-117000000D01*
X328600000Y-129400000D02*
X235300000Y-129400000D01*
%TO.N,/COL5*%
X229400000Y-129400000D02*
X229100000Y-129100000D01*
X229900000Y-129400000D02*
X229400000Y-129400000D01*
X229100000Y-129100000D02*
X212012500Y-129100000D01*
X212012500Y-129100000D02*
X206675000Y-123762500D01*
%TO.N,/COL3*%
X208000000Y-129600000D02*
X72018750Y-129600000D01*
X72018750Y-129600000D02*
X66181250Y-123762500D01*
%TO.N,/COL5*%
X337000000Y-76000000D02*
X340000000Y-79000000D01*
X340000000Y-79000000D02*
X340000000Y-114000000D01*
X233248943Y-129200997D02*
X233199003Y-129200997D01*
X337000000Y-117000000D02*
X337000000Y-120432900D01*
X233601000Y-128799000D02*
X233601000Y-128848940D01*
X337000000Y-120432900D02*
X328731900Y-128701000D01*
X340000000Y-114000000D02*
X337000000Y-117000000D01*
X233601000Y-128848940D02*
X233248943Y-129200997D01*
X328731900Y-128701000D02*
X233699000Y-128701000D01*
X233699000Y-128701000D02*
X233601000Y-128799000D01*
X233199003Y-129200997D02*
X233000000Y-129400000D01*
%TO.N,/COL4*%
X336000000Y-76000000D02*
X339000000Y-79000000D01*
X339000000Y-79000000D02*
X339000000Y-114000000D01*
X336000000Y-117000000D02*
X336000000Y-120865800D01*
X339000000Y-114000000D02*
X336000000Y-117000000D01*
X336000000Y-120865800D02*
X328565800Y-128300000D01*
X328565800Y-128300000D02*
X233349937Y-128300000D01*
X233349937Y-128300000D02*
X233248943Y-128400994D01*
X233248943Y-128400994D02*
X233199003Y-128400994D01*
X233199003Y-128400994D02*
X233000000Y-128599997D01*
%TO.N,+5V*%
X331900000Y-64473750D02*
X331900000Y-62400000D01*
X334101250Y-66675000D02*
X331900000Y-64473750D01*
%TO.N,/COL1*%
X334101250Y-59055000D02*
X330800000Y-62356250D01*
X330800000Y-62356250D02*
X330800000Y-66800000D01*
X330800000Y-66800000D02*
X332000000Y-68000000D01*
%TO.N,/COL2*%
X334101250Y-56515000D02*
X330000000Y-60616250D01*
X330000000Y-60616250D02*
X330000000Y-67000000D01*
%TO.N,/ROW2*%
X242887500Y-41212500D02*
X244138500Y-39961500D01*
X204787500Y-41212500D02*
X206038500Y-39961500D01*
X244138500Y-39961500D02*
X260686500Y-39961500D01*
X72688500Y-39961500D02*
X89236500Y-39961500D01*
X166687500Y-41212500D02*
X167938500Y-39961500D01*
X261937500Y-41212500D02*
X263188500Y-39961500D01*
X147637500Y-41212500D02*
X148888500Y-39961500D01*
X128587500Y-41212500D02*
X129838500Y-39961500D01*
X127336500Y-39961500D02*
X128587500Y-41212500D01*
X167938500Y-39961500D02*
X184961500Y-39961500D01*
X148888500Y-39961500D02*
X165436500Y-39961500D01*
X186000000Y-41000000D02*
X185787500Y-41212500D01*
X241636500Y-39961500D02*
X242887500Y-41212500D01*
X146386500Y-39961500D02*
X147637500Y-41212500D01*
X52387500Y-41212500D02*
X53638500Y-39961500D01*
X33337500Y-41212500D02*
X34588500Y-39961500D01*
X51136500Y-39961500D02*
X52387500Y-41212500D01*
X129838500Y-39961500D02*
X146386500Y-39961500D01*
X263188500Y-39961500D02*
X298786500Y-39961500D01*
X223837500Y-41212500D02*
X225088500Y-39961500D01*
X260686500Y-39961500D02*
X261937500Y-41212500D01*
X186000000Y-41000000D02*
X187038500Y-39961500D01*
X300037500Y-41212500D02*
X301288500Y-39961500D01*
X203536500Y-39961500D02*
X204787500Y-41212500D01*
X301288500Y-39961500D02*
X317836500Y-39961500D01*
X90487500Y-41212500D02*
X91738500Y-39961500D01*
X109537500Y-41212500D02*
X110788500Y-39961500D01*
X222586500Y-39961500D02*
X223837500Y-41212500D01*
X71437500Y-41212500D02*
X72688500Y-39961500D01*
X317836500Y-39961500D02*
X319087500Y-41212500D01*
X165436500Y-39961500D02*
X166687500Y-41212500D01*
X298786500Y-39961500D02*
X300037500Y-41212500D01*
X206038500Y-39961500D02*
X222586500Y-39961500D01*
X225088500Y-39961500D02*
X241636500Y-39961500D01*
X53638500Y-39961500D02*
X70186500Y-39961500D01*
X184961500Y-39961500D02*
X186000000Y-41000000D01*
X91738500Y-39961500D02*
X108286500Y-39961500D01*
X70186500Y-39961500D02*
X71437500Y-41212500D01*
X110788500Y-39961500D02*
X127336500Y-39961500D01*
X187038500Y-39961500D02*
X203536500Y-39961500D01*
X89236500Y-39961500D02*
X90487500Y-41212500D01*
X34588500Y-39961500D02*
X51136500Y-39961500D01*
X108286500Y-39961500D02*
X109537500Y-41212500D01*
%TO.N,/ROW3*%
X139363500Y-59011500D02*
X138112500Y-60262500D01*
X195262500Y-60262500D02*
X194011500Y-59011500D01*
X300037500Y-60262500D02*
X298786500Y-59011500D01*
X270211500Y-59011500D02*
X253663500Y-59011500D01*
X136861500Y-59011500D02*
X120313500Y-59011500D01*
X100012500Y-60262500D02*
X98750000Y-59000000D01*
X174950000Y-59000000D02*
X158425000Y-59000000D01*
X233362500Y-60262500D02*
X232100000Y-59000000D01*
X155911500Y-59011500D02*
X139363500Y-59011500D01*
X61912500Y-60262500D02*
X60661500Y-59011500D01*
X301288500Y-59011500D02*
X300037500Y-60262500D01*
X63163500Y-59011500D02*
X61912500Y-60262500D01*
X101263500Y-59011500D02*
X100012500Y-60262500D01*
X82225000Y-59000000D02*
X80962500Y-60262500D01*
X319737500Y-60262500D02*
X319087500Y-60262500D01*
X319087500Y-60262500D02*
X317836500Y-59011500D01*
X232100000Y-59000000D02*
X215575000Y-59000000D01*
X215575000Y-59000000D02*
X214312500Y-60262500D01*
X327000000Y-55000000D02*
X325000000Y-55000000D01*
X339048750Y-26193750D02*
X336806250Y-26193750D01*
X252412500Y-60262500D02*
X251161500Y-59011500D01*
X298786500Y-59011500D02*
X272713500Y-59011500D01*
X60661500Y-59011500D02*
X44113500Y-59011500D01*
X194011500Y-59011500D02*
X177463500Y-59011500D01*
X79711500Y-59011500D02*
X63163500Y-59011500D01*
X138112500Y-60262500D02*
X136861500Y-59011500D01*
X213050000Y-59000000D02*
X196525000Y-59000000D01*
X157162500Y-60262500D02*
X155911500Y-59011500D01*
X271462500Y-60262500D02*
X270211500Y-59011500D01*
X98750000Y-59000000D02*
X82225000Y-59000000D01*
X325000000Y-55000000D02*
X319737500Y-60262500D01*
X317836500Y-59011500D02*
X301288500Y-59011500D01*
X177463500Y-59011500D02*
X176212500Y-60262500D01*
X80962500Y-60262500D02*
X79711500Y-59011500D01*
X272713500Y-59011500D02*
X271462500Y-60262500D01*
X196525000Y-59000000D02*
X195262500Y-60262500D01*
X336806250Y-26193750D02*
X333000000Y-30000000D01*
X117811500Y-59011500D02*
X101263500Y-59011500D01*
X176212500Y-60262500D02*
X174950000Y-59000000D01*
X158425000Y-59000000D02*
X157162500Y-60262500D01*
X44113500Y-59011500D02*
X42862500Y-60262500D01*
X253663500Y-59011500D02*
X252412500Y-60262500D01*
X251161500Y-59011500D02*
X234613500Y-59011500D01*
X119062500Y-60262500D02*
X117811500Y-59011500D01*
X234613500Y-59011500D02*
X233362500Y-60262500D01*
X331000000Y-30000000D02*
X331000000Y-33000000D01*
X120313500Y-59011500D02*
X119062500Y-60262500D01*
X214312500Y-60262500D02*
X213050000Y-59000000D01*
%TO.N,/ROW4*%
X123825000Y-79312500D02*
X125076000Y-78061500D01*
X85725000Y-79312500D02*
X86976000Y-78061500D01*
X182226000Y-78061500D02*
X198774000Y-78061500D01*
X236874000Y-78061500D02*
X238125000Y-79312500D01*
X142875000Y-79312500D02*
X144126000Y-78061500D01*
X161925000Y-79312500D02*
X163176000Y-78061500D01*
X198774000Y-78061500D02*
X200025000Y-79312500D01*
X104775000Y-79312500D02*
X106026000Y-78061500D01*
X258487500Y-78000000D02*
X298725000Y-78000000D01*
X201276000Y-78061500D02*
X217824000Y-78061500D01*
X144126000Y-78061500D02*
X160674000Y-78061500D01*
X340724750Y-30409750D02*
X339048750Y-28733750D01*
X179724000Y-78061500D02*
X180975000Y-79312500D01*
X219075000Y-79312500D02*
X220326000Y-78061500D01*
X47625000Y-79312500D02*
X48876000Y-78061500D01*
X163176000Y-78061500D02*
X179724000Y-78061500D01*
X84474000Y-78061500D02*
X85725000Y-79312500D01*
X106026000Y-78061500D02*
X122574000Y-78061500D01*
X103524000Y-78061500D02*
X104775000Y-79312500D01*
X86976000Y-78061500D02*
X103524000Y-78061500D01*
X301288500Y-78061500D02*
X317836500Y-78061500D01*
X180975000Y-79312500D02*
X182226000Y-78061500D01*
X141624000Y-78061500D02*
X142875000Y-79312500D01*
X220326000Y-78061500D02*
X236874000Y-78061500D01*
X257175000Y-79312500D02*
X258487500Y-78000000D01*
X255924000Y-78061500D02*
X257175000Y-79312500D01*
X338963750Y-39000000D02*
X340724750Y-37239000D01*
X217824000Y-78061500D02*
X219075000Y-79312500D01*
X48876000Y-78061500D02*
X65424000Y-78061500D01*
X125076000Y-78061500D02*
X141624000Y-78061500D01*
X200025000Y-79312500D02*
X201276000Y-78061500D01*
X122574000Y-78061500D02*
X123825000Y-79312500D01*
X298725000Y-78000000D02*
X300037500Y-79312500D01*
X65424000Y-78061500D02*
X66675000Y-79312500D01*
X300037500Y-79312500D02*
X301288500Y-78061500D01*
X239376000Y-78061500D02*
X255924000Y-78061500D01*
X67926000Y-78061500D02*
X84474000Y-78061500D01*
X160674000Y-78061500D02*
X161925000Y-79312500D01*
X340724750Y-37239000D02*
X340724750Y-30409750D01*
X66675000Y-79312500D02*
X67926000Y-78061500D01*
X317836500Y-78061500D02*
X319087500Y-79312500D01*
X238125000Y-79312500D02*
X239376000Y-78061500D01*
%TO.N,/ROW5*%
X246287500Y-97000000D02*
X229962500Y-97000000D01*
X190500000Y-98362500D02*
X189249000Y-97111500D01*
X280987500Y-98362500D02*
X279736500Y-97111500D01*
X115551000Y-97111500D02*
X114300000Y-98362500D01*
X208187500Y-97000000D02*
X191862500Y-97000000D01*
X300037500Y-98362500D02*
X298675000Y-97000000D01*
X172701000Y-97111500D02*
X171450000Y-98362500D01*
X152400000Y-98362500D02*
X151149000Y-97111500D01*
X76200000Y-98362500D02*
X74949000Y-97111500D01*
X282350000Y-97000000D02*
X280987500Y-98362500D01*
X301288500Y-97111500D02*
X300037500Y-98362500D01*
X227349000Y-97111500D02*
X210801000Y-97111500D01*
X58401000Y-97111500D02*
X57150000Y-98362500D01*
X209550000Y-98362500D02*
X208187500Y-97000000D01*
X134601000Y-97111500D02*
X133350000Y-98362500D01*
X96501000Y-97111500D02*
X95250000Y-98362500D01*
X338000000Y-34862500D02*
X338000000Y-39881250D01*
X133350000Y-98362500D02*
X132099000Y-97111500D01*
X229962500Y-97000000D02*
X228600000Y-98362500D01*
X153651000Y-97111500D02*
X152400000Y-98362500D01*
X93999000Y-97111500D02*
X77451000Y-97111500D01*
X95250000Y-98362500D02*
X93999000Y-97111500D01*
X114300000Y-98362500D02*
X113049000Y-97111500D01*
X171450000Y-98362500D02*
X170199000Y-97111500D01*
X298675000Y-97000000D02*
X282350000Y-97000000D01*
X317836500Y-97111500D02*
X301288500Y-97111500D01*
X191862500Y-97000000D02*
X190500000Y-98362500D01*
X113049000Y-97111500D02*
X96501000Y-97111500D01*
X170199000Y-97111500D02*
X153651000Y-97111500D01*
X319087500Y-98362500D02*
X317836500Y-97111500D01*
X339048750Y-33813750D02*
X338000000Y-34862500D01*
X151149000Y-97111500D02*
X134601000Y-97111500D01*
X74949000Y-97111500D02*
X58401000Y-97111500D01*
X132099000Y-97111500D02*
X115551000Y-97111500D01*
X210801000Y-97111500D02*
X209550000Y-98362500D01*
X228600000Y-98362500D02*
X227349000Y-97111500D01*
X248901000Y-97111500D02*
X247650000Y-98362500D01*
X77451000Y-97111500D02*
X76200000Y-98362500D01*
X189249000Y-97111500D02*
X172701000Y-97111500D01*
X247650000Y-98362500D02*
X246287500Y-97000000D01*
X279736500Y-97111500D02*
X248901000Y-97111500D01*
%TO.N,/ROW6*%
X38100000Y-117412500D02*
X39351000Y-116161500D01*
X225088500Y-116161500D02*
X241636500Y-116161500D01*
X279736500Y-116161500D02*
X280987500Y-117412500D01*
X322883750Y-23653750D02*
X325144750Y-21392750D01*
X85725000Y-117412500D02*
X87137500Y-116000000D01*
X60661500Y-116161500D02*
X61912500Y-117412500D01*
X337834692Y-17272750D02*
X340262808Y-17272750D01*
X344000000Y-112000000D02*
X340000000Y-116000000D01*
X333714692Y-21392750D02*
X337834692Y-17272750D01*
X84474000Y-116161500D02*
X85725000Y-117412500D01*
X261937500Y-117412500D02*
X263188500Y-116161500D01*
X204787500Y-117412500D02*
X206221486Y-115978514D01*
X325144750Y-21392750D02*
X333714692Y-21392750D01*
X301450000Y-116000000D02*
X317675000Y-116000000D01*
X87137500Y-116000000D02*
X203375000Y-116000000D01*
X206221486Y-115978514D02*
X222403514Y-115978514D01*
X300037500Y-117412500D02*
X301450000Y-116000000D01*
X344000000Y-21009942D02*
X344000000Y-112000000D01*
X61912500Y-117412500D02*
X63163500Y-116161500D01*
X317675000Y-116000000D02*
X319087500Y-117412500D01*
X223837500Y-117412500D02*
X225088500Y-116161500D01*
X244138500Y-116161500D02*
X260686500Y-116161500D01*
X222403514Y-115978514D02*
X223837500Y-117412500D01*
X203375000Y-116000000D02*
X204787500Y-117412500D01*
X282238500Y-116161500D02*
X298786500Y-116161500D01*
X298786500Y-116161500D02*
X300037500Y-117412500D01*
X242887500Y-117412500D02*
X244138500Y-116161500D01*
X39351000Y-116161500D02*
X60661500Y-116161500D01*
X280987500Y-117412500D02*
X282238500Y-116161500D01*
X260686500Y-116161500D02*
X261937500Y-117412500D01*
X263188500Y-116161500D02*
X279736500Y-116161500D01*
X340262808Y-17272750D02*
X344000000Y-21009942D01*
X241636500Y-116161500D02*
X242887500Y-117412500D01*
X63163500Y-116161500D02*
X84474000Y-116161500D01*
%TO.N,/BT_PIN*%
X340518750Y-60268750D02*
X340518750Y-63556250D01*
%TO.N,/VBAT*%
X336000000Y-83000000D02*
X335000000Y-82000000D01*
X340518750Y-43518750D02*
X340518750Y-49268750D01*
X326493750Y-29493750D02*
X340518750Y-43518750D01*
X326493750Y-26593750D02*
X326493750Y-29493750D01*
X337000000Y-83000000D02*
X336000000Y-83000000D01*
X335000000Y-82000000D02*
X335000000Y-79000000D01*
%TO.N,GND*%
X342220750Y-24285750D02*
X342220750Y-72854250D01*
X334362500Y-74556250D02*
X334101250Y-74295000D01*
X342220750Y-72854250D02*
X340518750Y-74556250D01*
X334101250Y-71755000D02*
X334101250Y-69215000D01*
X340518750Y-74556250D02*
X334362500Y-74556250D01*
X334101250Y-69215000D02*
X331311250Y-69215000D01*
X339048750Y-21113750D02*
X342220750Y-24285750D01*
X331311250Y-69215000D02*
X326231250Y-64135000D01*
X334101250Y-74295000D02*
X334101250Y-71755000D01*
%TO.N,/COL1*%
X332000000Y-70000000D02*
X328184550Y-73815450D01*
X328184550Y-73815450D02*
X328184550Y-118184550D01*
X328184550Y-118184550D02*
X332000000Y-122000000D01*
%TO.N,/COL2*%
X330000000Y-69000000D02*
X327783550Y-71216450D01*
X70273959Y-122000000D02*
X70185459Y-121911500D01*
X226326000Y-123743709D02*
X226326000Y-123513557D01*
X141674959Y-121963500D02*
X141622959Y-121911500D01*
X48000000Y-122000000D02*
X44875000Y-118875000D01*
X313368106Y-127198994D02*
X229781285Y-127198994D01*
X327783550Y-112783550D02*
X313368106Y-127198994D01*
X224775943Y-121963500D02*
X213110866Y-121963500D01*
X51171384Y-122000000D02*
X48000000Y-122000000D01*
X75072384Y-121911500D02*
X74983884Y-122000000D01*
X229781285Y-127198994D02*
X226326000Y-123743709D01*
X213110866Y-121963500D02*
X207526880Y-116379514D01*
X141622959Y-121911500D02*
X75072384Y-121911500D01*
X201942894Y-121963500D02*
X141674959Y-121963500D01*
X327783550Y-71216450D02*
X327783550Y-112783550D01*
X207526880Y-116379514D02*
X201942894Y-121963500D01*
X51259884Y-121911500D02*
X51171384Y-122000000D01*
X226326000Y-123513557D02*
X224775943Y-121963500D01*
X70185459Y-121911500D02*
X51259884Y-121911500D01*
X74983884Y-122000000D02*
X70273959Y-122000000D01*
%TO.N,/COL3*%
X327200006Y-127799994D02*
X233000000Y-127799994D01*
X335017250Y-72982750D02*
X335000000Y-73000000D01*
X338000000Y-114000000D02*
X335000000Y-117000000D01*
X338000000Y-79000000D02*
X338000000Y-114000000D01*
X335000000Y-117000000D02*
X335000000Y-120000000D01*
X335017250Y-54891000D02*
X335017250Y-72982750D01*
X335000000Y-76000000D02*
X338000000Y-79000000D01*
X334101250Y-53975000D02*
X335017250Y-54891000D01*
X335000000Y-120000000D02*
X327200006Y-127799994D01*
%TO.N,/COL4*%
X142856250Y-129000000D02*
X137618750Y-123762500D01*
X210000000Y-129000000D02*
X142856250Y-129000000D01*
X336000000Y-53333750D02*
X336000000Y-73000000D01*
X334101250Y-51435000D02*
X336000000Y-53333750D01*
%TO.N,/COL5*%
X337000000Y-51793750D02*
X337000000Y-73000000D01*
X334101250Y-48895000D02*
X337000000Y-51793750D01*
%TO.N,/COL6*%
X338000000Y-50253750D02*
X338000000Y-73000000D01*
X334101250Y-46355000D02*
X338000000Y-50253750D01*
%TO.N,/COL7*%
X326610670Y-62511000D02*
X326489000Y-62511000D01*
X247676000Y-126663500D02*
X244775000Y-123762500D01*
X319688500Y-69311500D02*
X319688500Y-120311500D01*
X333185250Y-44731000D02*
X333185250Y-55936420D01*
X333185250Y-55936420D02*
X326610670Y-62511000D01*
X313336500Y-126663500D02*
X247676000Y-126663500D01*
X319688500Y-120311500D02*
X313336500Y-126663500D01*
X326489000Y-62511000D02*
X319688500Y-69311500D01*
X334101250Y-43815000D02*
X333185250Y-44731000D01*
%TO.N,/COL8*%
X326231250Y-41275000D02*
X322956250Y-38000000D01*
X322956250Y-38000000D02*
X149525000Y-38000000D01*
%TO.N,/COL9*%
X321416250Y-39000000D02*
X168575000Y-39000000D01*
X326231250Y-43815000D02*
X321416250Y-39000000D01*
%TO.N,/COL10*%
X213000000Y-46000000D02*
X212711500Y-45711500D01*
X229729209Y-45711500D02*
X215566134Y-45711500D01*
X195802095Y-46795791D02*
X192713500Y-46795791D01*
X247245791Y-45711500D02*
X246957291Y-46000000D01*
X282241134Y-45711500D02*
X280952634Y-47000000D01*
X196886386Y-45711500D02*
X195802095Y-46795791D01*
X280952634Y-47000000D02*
X279664134Y-45711500D01*
X250000000Y-46000000D02*
X249711500Y-45711500D01*
X215566134Y-45711500D02*
X215277634Y-46000000D01*
X230017709Y-46000000D02*
X229729209Y-45711500D01*
X212711500Y-45711500D02*
X196886386Y-45711500D01*
X253377634Y-46000000D02*
X250000000Y-46000000D01*
X305929209Y-45711500D02*
X282241134Y-45711500D01*
X253666134Y-45711500D02*
X253377634Y-46000000D01*
X190917709Y-45000000D02*
X187625000Y-45000000D01*
X246957291Y-46000000D02*
X230017709Y-46000000D01*
X279664134Y-45711500D02*
X253666134Y-45711500D01*
X192713500Y-46795791D02*
X190917709Y-45000000D01*
X215277634Y-46000000D02*
X213000000Y-46000000D01*
X306572709Y-46355000D02*
X305929209Y-45711500D01*
X326231250Y-46355000D02*
X306572709Y-46355000D01*
X249711500Y-45711500D02*
X247245791Y-45711500D01*
%TO.N,/COL11*%
X326231250Y-48895000D02*
X324375193Y-50751057D01*
X226326000Y-50751057D02*
X225973943Y-50399000D01*
X324375193Y-50751057D02*
X226326000Y-50751057D01*
X225973943Y-50399000D02*
X225476057Y-50399000D01*
X224931307Y-50943750D02*
X210056250Y-50943750D01*
X225476057Y-50399000D02*
X224931307Y-50943750D01*
%TO.N,/COL12*%
X226160000Y-51435000D02*
X225725000Y-51000000D01*
X326231250Y-51435000D02*
X226160000Y-51435000D01*
%TO.N,/COL13*%
X326231250Y-53975000D02*
X251187500Y-53975000D01*
%TO.N,/COL14*%
X326231250Y-56515000D02*
X307496250Y-75250000D01*
X307496250Y-75250000D02*
X286750000Y-75250000D01*
%TO.N,/COL15*%
X316000000Y-22000000D02*
X319426250Y-18573750D01*
X319426250Y-18573750D02*
X322883750Y-18573750D01*
%TO.N,/COL16*%
X301925000Y-28512500D02*
X304437500Y-26000000D01*
X304437500Y-26000000D02*
X307647366Y-26000000D01*
X308360866Y-26713500D02*
X317284000Y-26713500D01*
X307647366Y-26000000D02*
X308360866Y-26713500D01*
X317284000Y-26713500D02*
X322883750Y-21113750D01*
%TO.N,/SDA*%
X325000000Y-30850000D02*
X322883750Y-28733750D01*
X325000000Y-32000000D02*
X325000000Y-30850000D01*
%TO.N,+5V*%
X332000000Y-34000000D02*
X332000000Y-25622500D01*
X326231250Y-61595000D02*
X332000000Y-55826250D01*
X332000000Y-55826250D02*
X332000000Y-38000000D01*
X332000000Y-25622500D02*
X339048750Y-18573750D01*
%TO.N,BATGND*%
X337000000Y-84000000D02*
X336000000Y-84000000D01*
X336000000Y-84000000D02*
X331000000Y-79000000D01*
%TD*%
M02*
