%TF.GenerationSoftware,KiCad,Pcbnew,9.0.6*%
%TF.CreationDate,2026-04-04T11:40:07+08:00*%
%TF.ProjectId,ZBoard V1,5a426f61-7264-4205-9631-2e6b69636164,rev?*%
%TF.SameCoordinates,Original*%
%TF.FileFunction,Drillmap*%
%TF.FilePolarity,Positive*%
%FSLAX45Y45*%
G04 Gerber Fmt 4.5, Leading zero omitted, Abs format (unit mm)*
G04 Created by KiCad (PCBNEW 9.0.6) date 2026-04-04 11:40:07*
%MOMM*%
%LPD*%
G01*
G04 APERTURE LIST*
%ADD10C,0.050000*%
%ADD11C,0.200000*%
%ADD12C,0.100000*%
%ADD13C,0.250000*%
G04 APERTURE END LIST*
D10*
X1200000Y-1200000D02*
X34500000Y-1200000D01*
X34500000Y-13100000D01*
X1200000Y-13100000D01*
X1200000Y-1200000D01*
D11*
D12*
X1840625Y-12361250D02*
X1870625Y-12391250D01*
X1870625Y-12361250D02*
X1840625Y-12391250D01*
X3318750Y-4106250D02*
X3348750Y-4136250D01*
X3348750Y-4106250D02*
X3318750Y-4136250D01*
X3795000Y-11726250D02*
X3825000Y-11756250D01*
X3825000Y-11726250D02*
X3795000Y-11756250D01*
X4271250Y-6011250D02*
X4301250Y-6041250D01*
X4301250Y-6011250D02*
X4271250Y-6041250D01*
X4472500Y-11872500D02*
X4502500Y-11902500D01*
X4502500Y-11872500D02*
X4472500Y-11902500D01*
X4747500Y-7916250D02*
X4777500Y-7946250D01*
X4777500Y-7916250D02*
X4747500Y-7946250D01*
X5223750Y-4106250D02*
X5253750Y-4136250D01*
X5253750Y-4106250D02*
X5223750Y-4136250D01*
X5700000Y-9821250D02*
X5730000Y-9851250D01*
X5730000Y-9821250D02*
X5700000Y-9851250D01*
X6176250Y-6011250D02*
X6206250Y-6041250D01*
X6206250Y-6011250D02*
X6176250Y-6041250D01*
X6176250Y-11726250D02*
X6206250Y-11756250D01*
X6206250Y-11726250D02*
X6176250Y-11756250D01*
X6603125Y-12361250D02*
X6633125Y-12391250D01*
X6633125Y-12361250D02*
X6603125Y-12391250D01*
X6652500Y-7916250D02*
X6682500Y-7946250D01*
X6682500Y-7916250D02*
X6652500Y-7946250D01*
X7128750Y-4106250D02*
X7158750Y-4136250D01*
X7158750Y-4106250D02*
X7128750Y-4136250D01*
X7605000Y-9821250D02*
X7635000Y-9851250D01*
X7635000Y-9821250D02*
X7605000Y-9851250D01*
X8081250Y-6011250D02*
X8111250Y-6041250D01*
X8111250Y-6011250D02*
X8081250Y-6041250D01*
X8557500Y-7916250D02*
X8587500Y-7946250D01*
X8587500Y-7916250D02*
X8557500Y-7946250D01*
X8557500Y-11726250D02*
X8587500Y-11756250D01*
X8587500Y-11726250D02*
X8557500Y-11756250D01*
X9033750Y-4106250D02*
X9063750Y-4136250D01*
X9063750Y-4106250D02*
X9033750Y-4136250D01*
X9510000Y-9821250D02*
X9540000Y-9851250D01*
X9540000Y-9821250D02*
X9510000Y-9851250D01*
X9986250Y-6011250D02*
X10016250Y-6041250D01*
X10016250Y-6011250D02*
X9986250Y-6041250D01*
X10462500Y-7916250D02*
X10492500Y-7946250D01*
X10492500Y-7916250D02*
X10462500Y-7946250D01*
X10938750Y-4106250D02*
X10968750Y-4136250D01*
X10968750Y-4106250D02*
X10938750Y-4136250D01*
X11415000Y-9821250D02*
X11445000Y-9851250D01*
X11445000Y-9821250D02*
X11415000Y-9851250D01*
X11891250Y-6011250D02*
X11921250Y-6041250D01*
X11921250Y-6011250D02*
X11891250Y-6041250D01*
X12367500Y-7916250D02*
X12397500Y-7946250D01*
X12397500Y-7916250D02*
X12367500Y-7946250D01*
X12843750Y-4106250D02*
X12873750Y-4136250D01*
X12873750Y-4106250D02*
X12843750Y-4136250D01*
X13320000Y-9821250D02*
X13350000Y-9851250D01*
X13350000Y-9821250D02*
X13320000Y-9851250D01*
X13746875Y-12361250D02*
X13776875Y-12391250D01*
X13776875Y-12361250D02*
X13746875Y-12391250D01*
X13796250Y-6011250D02*
X13826250Y-6041250D01*
X13826250Y-6011250D02*
X13796250Y-6041250D01*
X14272500Y-7916250D02*
X14302500Y-7946250D01*
X14302500Y-7916250D02*
X14272500Y-7946250D01*
X14748750Y-4106250D02*
X14778750Y-4136250D01*
X14778750Y-4106250D02*
X14748750Y-4136250D01*
X14937500Y-3785000D02*
X14967500Y-3815000D01*
X14967500Y-3785000D02*
X14937500Y-3815000D01*
X15225000Y-9821250D02*
X15255000Y-9851250D01*
X15255000Y-9821250D02*
X15225000Y-9851250D01*
X15701250Y-6011250D02*
X15731250Y-6041250D01*
X15731250Y-6011250D02*
X15701250Y-6041250D01*
X16177500Y-7916250D02*
X16207500Y-7946250D01*
X16207500Y-7916250D02*
X16177500Y-7946250D01*
X16653750Y-4106250D02*
X16683750Y-4136250D01*
X16683750Y-4106250D02*
X16653750Y-4136250D01*
X16842500Y-3885000D02*
X16872500Y-3915000D01*
X16872500Y-3885000D02*
X16842500Y-3915000D01*
X17130000Y-9821250D02*
X17160000Y-9851250D01*
X17160000Y-9821250D02*
X17130000Y-9851250D01*
X17606250Y-6011250D02*
X17636250Y-6041250D01*
X17636250Y-6011250D02*
X17606250Y-6041250D01*
X18082500Y-7916250D02*
X18112500Y-7946250D01*
X18112500Y-7916250D02*
X18082500Y-7946250D01*
X18558750Y-4106250D02*
X18588750Y-4136250D01*
X18588750Y-4106250D02*
X18558750Y-4136250D01*
X18747500Y-4485000D02*
X18777500Y-4515000D01*
X18777500Y-4485000D02*
X18747500Y-4515000D01*
X19035000Y-9821250D02*
X19065000Y-9851250D01*
X19065000Y-9821250D02*
X19035000Y-9851250D01*
X19511250Y-6011250D02*
X19541250Y-6041250D01*
X19541250Y-6011250D02*
X19511250Y-6041250D01*
X19987500Y-7916250D02*
X20017500Y-7946250D01*
X20017500Y-7916250D02*
X19987500Y-7946250D01*
X20463750Y-4106250D02*
X20493750Y-4136250D01*
X20493750Y-4106250D02*
X20463750Y-4136250D01*
X20463750Y-11726250D02*
X20493750Y-11756250D01*
X20493750Y-11726250D02*
X20463750Y-11756250D01*
X20652500Y-12361250D02*
X20682500Y-12391250D01*
X20682500Y-12361250D02*
X20652500Y-12391250D01*
X20785000Y-12945000D02*
X20815000Y-12975000D01*
X20815000Y-12945000D02*
X20785000Y-12975000D01*
X20940000Y-9821250D02*
X20970000Y-9851250D01*
X20970000Y-9821250D02*
X20940000Y-9851250D01*
X20985000Y-12885000D02*
X21015000Y-12915000D01*
X21015000Y-12885000D02*
X20985000Y-12915000D01*
X20990625Y-5079375D02*
X21020625Y-5109375D01*
X21020625Y-5079375D02*
X20990625Y-5109375D01*
X21416250Y-6011250D02*
X21446250Y-6041250D01*
X21446250Y-6011250D02*
X21416250Y-6041250D01*
X21892500Y-7916250D02*
X21922500Y-7946250D01*
X21922500Y-7916250D02*
X21892500Y-7946250D01*
X22368750Y-4106250D02*
X22398750Y-4136250D01*
X22398750Y-4106250D02*
X22368750Y-4136250D01*
X22368750Y-11726250D02*
X22398750Y-11756250D01*
X22398750Y-11726250D02*
X22368750Y-11756250D01*
X22557500Y-5085000D02*
X22587500Y-5115000D01*
X22587500Y-5085000D02*
X22557500Y-5115000D01*
X22845000Y-9821250D02*
X22875000Y-9851250D01*
X22875000Y-9821250D02*
X22845000Y-9851250D01*
X22975000Y-12925000D02*
X23005000Y-12955000D01*
X23005000Y-12925000D02*
X22975000Y-12955000D01*
X23285000Y-12764999D02*
X23315000Y-12794999D01*
X23315000Y-12764999D02*
X23285000Y-12794999D01*
X23285000Y-12845000D02*
X23315000Y-12875000D01*
X23315000Y-12845000D02*
X23285000Y-12875000D01*
X23285000Y-12925000D02*
X23315000Y-12955000D01*
X23315000Y-12925000D02*
X23285000Y-12955000D01*
X23321250Y-6011250D02*
X23351250Y-6041250D01*
X23351250Y-6011250D02*
X23321250Y-6041250D01*
X23515000Y-12925000D02*
X23545000Y-12955000D01*
X23545000Y-12925000D02*
X23515000Y-12955000D01*
X23797500Y-7916250D02*
X23827500Y-7946250D01*
X23827500Y-7916250D02*
X23797500Y-7946250D01*
X24273750Y-4106250D02*
X24303750Y-4136250D01*
X24303750Y-4106250D02*
X24273750Y-4136250D01*
X24273750Y-11726250D02*
X24303750Y-11756250D01*
X24303750Y-11726250D02*
X24273750Y-11756250D01*
X24462500Y-12361250D02*
X24492500Y-12391250D01*
X24492500Y-12361250D02*
X24462500Y-12391250D01*
X24750000Y-9821250D02*
X24780000Y-9851250D01*
X24780000Y-9821250D02*
X24750000Y-9851250D01*
X25095625Y-5374375D02*
X25125625Y-5404375D01*
X25125625Y-5374375D02*
X25095625Y-5404375D01*
X25226250Y-6011250D02*
X25256250Y-6041250D01*
X25256250Y-6011250D02*
X25226250Y-6041250D01*
X25702500Y-7916250D02*
X25732500Y-7946250D01*
X25732500Y-7916250D02*
X25702500Y-7946250D01*
X26178750Y-4106250D02*
X26208750Y-4136250D01*
X26208750Y-4106250D02*
X26178750Y-4136250D01*
X26178750Y-11726250D02*
X26208750Y-11756250D01*
X26208750Y-11726250D02*
X26178750Y-11756250D01*
X27131250Y-6011250D02*
X27161250Y-6041250D01*
X27161250Y-6011250D02*
X27131250Y-6041250D01*
X28083750Y-9821250D02*
X28113750Y-9851250D01*
X28113750Y-9821250D02*
X28083750Y-9851250D01*
X28083750Y-11726250D02*
X28113750Y-11756250D01*
X28113750Y-11726250D02*
X28083750Y-11756250D01*
X28660000Y-7510000D02*
X28690000Y-7540000D01*
X28690000Y-7510000D02*
X28660000Y-7540000D01*
X29988750Y-4106250D02*
X30018750Y-4136250D01*
X30018750Y-4106250D02*
X29988750Y-4136250D01*
X29988750Y-6011250D02*
X30018750Y-6041250D01*
X30018750Y-6011250D02*
X29988750Y-6041250D01*
X29988750Y-7916250D02*
X30018750Y-7946250D01*
X30018750Y-7916250D02*
X29988750Y-7946250D01*
X29988750Y-9821250D02*
X30018750Y-9851250D01*
X30018750Y-9821250D02*
X29988750Y-9851250D01*
X29988750Y-11726250D02*
X30018750Y-11756250D01*
X30018750Y-11726250D02*
X29988750Y-11756250D01*
X30177500Y-2836250D02*
X30207500Y-2866250D01*
X30207500Y-2836250D02*
X30177500Y-2866250D01*
X31585000Y-2185000D02*
X31615000Y-2215000D01*
X31615000Y-2185000D02*
X31585000Y-2215000D01*
X31893750Y-4106250D02*
X31923750Y-4136250D01*
X31923750Y-4106250D02*
X31893750Y-4136250D01*
X31893750Y-6011250D02*
X31923750Y-6041250D01*
X31923750Y-6011250D02*
X31893750Y-6041250D01*
X31893750Y-7916250D02*
X31923750Y-7946250D01*
X31923750Y-7916250D02*
X31893750Y-7946250D01*
X31893750Y-9821250D02*
X31923750Y-9851250D01*
X31923750Y-9821250D02*
X31893750Y-9851250D01*
X31893750Y-11726250D02*
X31923750Y-11756250D01*
X31923750Y-11726250D02*
X31893750Y-11756250D01*
X32273375Y-2604375D02*
X32303375Y-2634375D01*
X32303375Y-2604375D02*
X32273375Y-2634375D01*
X32273375Y-3112375D02*
X32303375Y-3142375D01*
X32303375Y-3112375D02*
X32273375Y-3142375D01*
X32273375Y-3366375D02*
X32303375Y-3396375D01*
X32303375Y-3366375D02*
X32273375Y-3396375D01*
X32485000Y-3185000D02*
X32515000Y-3215000D01*
X32515000Y-3185000D02*
X32485000Y-3215000D01*
X32685000Y-5485000D02*
X32715000Y-5515000D01*
X32715000Y-5485000D02*
X32685000Y-5515000D01*
X32985000Y-6685000D02*
X33015000Y-6715000D01*
X33015000Y-6685000D02*
X32985000Y-6715000D01*
X32985000Y-6885000D02*
X33015000Y-6915000D01*
X33015000Y-6885000D02*
X32985000Y-6915000D01*
X33085000Y-2985000D02*
X33115000Y-3015000D01*
X33115000Y-2985000D02*
X33085000Y-3015000D01*
X33085000Y-3285000D02*
X33115000Y-3315000D01*
X33115000Y-3285000D02*
X33085000Y-3315000D01*
X33175000Y-6225000D02*
X33205000Y-6255000D01*
X33205000Y-6225000D02*
X33175000Y-6255000D01*
X33185000Y-3385000D02*
X33215000Y-3415000D01*
X33215000Y-3385000D02*
X33185000Y-3415000D01*
X33185000Y-3785000D02*
X33215000Y-3815000D01*
X33215000Y-3785000D02*
X33185000Y-3815000D01*
X33185000Y-6785000D02*
X33215000Y-6815000D01*
X33215000Y-6785000D02*
X33185000Y-6815000D01*
X33185000Y-6985000D02*
X33215000Y-7015000D01*
X33215000Y-6985000D02*
X33185000Y-7015000D01*
X33185000Y-12185000D02*
X33215000Y-12215000D01*
X33215000Y-12185000D02*
X33185000Y-12215000D01*
X33185000Y-12685000D02*
X33215000Y-12715000D01*
X33215000Y-12685000D02*
X33185000Y-12715000D01*
X33285000Y-2985000D02*
X33315000Y-3015000D01*
X33315000Y-2985000D02*
X33285000Y-3015000D01*
X33485000Y-7285000D02*
X33515000Y-7315000D01*
X33515000Y-7285000D02*
X33485000Y-7315000D01*
X33485000Y-7585000D02*
X33515000Y-7615000D01*
X33515000Y-7585000D02*
X33485000Y-7615000D01*
X33585000Y-7285000D02*
X33615000Y-7315000D01*
X33615000Y-7285000D02*
X33585000Y-7315000D01*
X33585000Y-7585000D02*
X33615000Y-7615000D01*
X33615000Y-7585000D02*
X33585000Y-7615000D01*
X33685000Y-7285000D02*
X33715000Y-7315000D01*
X33715000Y-7285000D02*
X33685000Y-7315000D01*
X33685000Y-7585000D02*
X33715000Y-7615000D01*
X33715000Y-7585000D02*
X33685000Y-7615000D01*
X33685000Y-8285000D02*
X33715000Y-8315000D01*
X33715000Y-8285000D02*
X33685000Y-8315000D01*
X33685000Y-8385000D02*
X33715000Y-8415000D01*
X33715000Y-8385000D02*
X33685000Y-8415000D01*
X33785000Y-3973125D02*
X33815000Y-4003125D01*
X33815000Y-3973125D02*
X33785000Y-4003125D01*
X33785000Y-7285000D02*
X33815000Y-7315000D01*
X33815000Y-7285000D02*
X33785000Y-7315000D01*
X33785000Y-7585000D02*
X33815000Y-7615000D01*
X33815000Y-7585000D02*
X33785000Y-7615000D01*
X33881375Y-3885000D02*
X33911375Y-3915000D01*
X33911375Y-3885000D02*
X33881375Y-3915000D01*
X33889875Y-3112375D02*
X33919875Y-3142375D01*
X33919875Y-3112375D02*
X33889875Y-3142375D01*
X33985000Y-11585000D02*
X34015000Y-11615000D01*
X34015000Y-11585000D02*
X33985000Y-11615000D01*
X34091875Y-4926875D02*
G75*
G02*
X34011875Y-4926875I-40000J0D01*
G01*
X34011875Y-4926875D02*
G75*
G02*
X34091875Y-4926875I40000J0D01*
G01*
X34091875Y-6026875D02*
G75*
G02*
X34011875Y-6026875I-40000J0D01*
G01*
X34011875Y-6026875D02*
G75*
G02*
X34091875Y-6026875I40000J0D01*
G01*
X34091875Y-6355625D02*
G75*
G02*
X34011875Y-6355625I-40000J0D01*
G01*
X34011875Y-6355625D02*
G75*
G02*
X34091875Y-6355625I40000J0D01*
G01*
X34091875Y-7455625D02*
G75*
G02*
X34011875Y-7455625I-40000J0D01*
G01*
X34011875Y-7455625D02*
G75*
G02*
X34091875Y-7455625I40000J0D01*
G01*
X32623125Y-4086500D02*
X32623125Y-4168500D01*
X32582125Y-4127500D02*
X32664125Y-4127500D01*
X32623125Y-4340500D02*
X32623125Y-4422500D01*
X32582125Y-4381500D02*
X32664125Y-4381500D01*
X32623125Y-4594500D02*
X32623125Y-4676500D01*
X32582125Y-4635500D02*
X32664125Y-4635500D01*
X32623125Y-4848500D02*
X32623125Y-4930500D01*
X32582125Y-4889500D02*
X32664125Y-4889500D01*
X32623125Y-5102500D02*
X32623125Y-5184500D01*
X32582125Y-5143500D02*
X32664125Y-5143500D01*
X32623125Y-5356500D02*
X32623125Y-5438500D01*
X32582125Y-5397500D02*
X32664125Y-5397500D01*
X32623125Y-5610500D02*
X32623125Y-5692500D01*
X32582125Y-5651500D02*
X32664125Y-5651500D01*
X32623125Y-5864500D02*
X32623125Y-5946500D01*
X32582125Y-5905500D02*
X32664125Y-5905500D01*
X32623125Y-6118500D02*
X32623125Y-6200500D01*
X32582125Y-6159500D02*
X32664125Y-6159500D01*
X32623125Y-6372500D02*
X32623125Y-6454500D01*
X32582125Y-6413500D02*
X32664125Y-6413500D01*
X32623125Y-6626500D02*
X32623125Y-6708500D01*
X32582125Y-6667500D02*
X32664125Y-6667500D01*
X32623125Y-6880500D02*
X32623125Y-6962500D01*
X32582125Y-6921500D02*
X32664125Y-6921500D01*
X32623125Y-7134500D02*
X32623125Y-7216500D01*
X32582125Y-7175500D02*
X32664125Y-7175500D01*
X32623125Y-7388500D02*
X32623125Y-7470500D01*
X32582125Y-7429500D02*
X32664125Y-7429500D01*
X33410125Y-4086500D02*
X33410125Y-4168500D01*
X33369125Y-4127500D02*
X33451125Y-4127500D01*
X33410125Y-4340500D02*
X33410125Y-4422500D01*
X33369125Y-4381500D02*
X33451125Y-4381500D01*
X33410125Y-4594500D02*
X33410125Y-4676500D01*
X33369125Y-4635500D02*
X33451125Y-4635500D01*
X33410125Y-4848500D02*
X33410125Y-4930500D01*
X33369125Y-4889500D02*
X33451125Y-4889500D01*
X33410125Y-5102500D02*
X33410125Y-5184500D01*
X33369125Y-5143500D02*
X33451125Y-5143500D01*
X33410125Y-5356500D02*
X33410125Y-5438500D01*
X33369125Y-5397500D02*
X33451125Y-5397500D01*
X33410125Y-5610500D02*
X33410125Y-5692500D01*
X33369125Y-5651500D02*
X33451125Y-5651500D01*
X33410125Y-5864500D02*
X33410125Y-5946500D01*
X33369125Y-5905500D02*
X33451125Y-5905500D01*
X33410125Y-6118500D02*
X33410125Y-6200500D01*
X33369125Y-6159500D02*
X33451125Y-6159500D01*
X33410125Y-6372500D02*
X33410125Y-6454500D01*
X33369125Y-6413500D02*
X33451125Y-6413500D01*
X33410125Y-6626500D02*
X33410125Y-6708500D01*
X33369125Y-6667500D02*
X33451125Y-6667500D01*
X33410125Y-6880500D02*
X33410125Y-6962500D01*
X33369125Y-6921500D02*
X33451125Y-6921500D01*
X33410125Y-7134500D02*
X33410125Y-7216500D01*
X33369125Y-7175500D02*
X33451125Y-7175500D01*
X33410125Y-7388500D02*
X33410125Y-7470500D01*
X33369125Y-7429500D02*
X33451125Y-7429500D01*
D13*
X32737764Y-2407764D02*
X32737764Y-2230986D01*
X32560986Y-2230986D01*
X32560986Y-2407764D01*
X32737764Y-2407764D01*
X32737764Y-2747764D02*
X32737764Y-2570986D01*
X32560986Y-2570986D01*
X32560986Y-2747764D01*
X32737764Y-2747764D01*
D11*
X1458277Y-13413984D02*
X1458277Y-13213984D01*
X1458277Y-13213984D02*
X1505896Y-13213984D01*
X1505896Y-13213984D02*
X1534467Y-13223508D01*
X1534467Y-13223508D02*
X1553515Y-13242555D01*
X1553515Y-13242555D02*
X1563039Y-13261603D01*
X1563039Y-13261603D02*
X1572562Y-13299698D01*
X1572562Y-13299698D02*
X1572562Y-13328269D01*
X1572562Y-13328269D02*
X1563039Y-13366365D01*
X1563039Y-13366365D02*
X1553515Y-13385412D01*
X1553515Y-13385412D02*
X1534467Y-13404460D01*
X1534467Y-13404460D02*
X1505896Y-13413984D01*
X1505896Y-13413984D02*
X1458277Y-13413984D01*
X1658277Y-13413984D02*
X1658277Y-13280650D01*
X1658277Y-13318746D02*
X1667801Y-13299698D01*
X1667801Y-13299698D02*
X1677324Y-13290174D01*
X1677324Y-13290174D02*
X1696372Y-13280650D01*
X1696372Y-13280650D02*
X1715420Y-13280650D01*
X1782086Y-13413984D02*
X1782086Y-13280650D01*
X1782086Y-13213984D02*
X1772562Y-13223508D01*
X1772562Y-13223508D02*
X1782086Y-13233031D01*
X1782086Y-13233031D02*
X1791610Y-13223508D01*
X1791610Y-13223508D02*
X1782086Y-13213984D01*
X1782086Y-13213984D02*
X1782086Y-13233031D01*
X1905896Y-13413984D02*
X1886848Y-13404460D01*
X1886848Y-13404460D02*
X1877324Y-13385412D01*
X1877324Y-13385412D02*
X1877324Y-13213984D01*
X2010658Y-13413984D02*
X1991610Y-13404460D01*
X1991610Y-13404460D02*
X1982086Y-13385412D01*
X1982086Y-13385412D02*
X1982086Y-13213984D01*
X2239229Y-13413984D02*
X2239229Y-13213984D01*
X2239229Y-13213984D02*
X2305896Y-13356841D01*
X2305896Y-13356841D02*
X2372563Y-13213984D01*
X2372563Y-13213984D02*
X2372563Y-13413984D01*
X2553515Y-13413984D02*
X2553515Y-13309222D01*
X2553515Y-13309222D02*
X2543991Y-13290174D01*
X2543991Y-13290174D02*
X2524944Y-13280650D01*
X2524944Y-13280650D02*
X2486848Y-13280650D01*
X2486848Y-13280650D02*
X2467801Y-13290174D01*
X2553515Y-13404460D02*
X2534467Y-13413984D01*
X2534467Y-13413984D02*
X2486848Y-13413984D01*
X2486848Y-13413984D02*
X2467801Y-13404460D01*
X2467801Y-13404460D02*
X2458277Y-13385412D01*
X2458277Y-13385412D02*
X2458277Y-13366365D01*
X2458277Y-13366365D02*
X2467801Y-13347317D01*
X2467801Y-13347317D02*
X2486848Y-13337793D01*
X2486848Y-13337793D02*
X2534467Y-13337793D01*
X2534467Y-13337793D02*
X2553515Y-13328269D01*
X2648753Y-13280650D02*
X2648753Y-13480650D01*
X2648753Y-13290174D02*
X2667801Y-13280650D01*
X2667801Y-13280650D02*
X2705896Y-13280650D01*
X2705896Y-13280650D02*
X2724944Y-13290174D01*
X2724944Y-13290174D02*
X2734467Y-13299698D01*
X2734467Y-13299698D02*
X2743991Y-13318746D01*
X2743991Y-13318746D02*
X2743991Y-13375888D01*
X2743991Y-13375888D02*
X2734467Y-13394936D01*
X2734467Y-13394936D02*
X2724944Y-13404460D01*
X2724944Y-13404460D02*
X2705896Y-13413984D01*
X2705896Y-13413984D02*
X2667801Y-13413984D01*
X2667801Y-13413984D02*
X2648753Y-13404460D01*
X2829705Y-13394936D02*
X2839229Y-13404460D01*
X2839229Y-13404460D02*
X2829705Y-13413984D01*
X2829705Y-13413984D02*
X2820182Y-13404460D01*
X2820182Y-13404460D02*
X2829705Y-13394936D01*
X2829705Y-13394936D02*
X2829705Y-13413984D01*
X2829705Y-13290174D02*
X2839229Y-13299698D01*
X2839229Y-13299698D02*
X2829705Y-13309222D01*
X2829705Y-13309222D02*
X2820182Y-13299698D01*
X2820182Y-13299698D02*
X2829705Y-13290174D01*
X2829705Y-13290174D02*
X2829705Y-13309222D01*
D12*
X1167500Y-13727500D02*
X1197500Y-13757500D01*
X1197500Y-13727500D02*
X1167500Y-13757500D01*
D11*
X1496372Y-13633984D02*
X1515420Y-13633984D01*
X1515420Y-13633984D02*
X1534467Y-13643508D01*
X1534467Y-13643508D02*
X1543991Y-13653031D01*
X1543991Y-13653031D02*
X1553515Y-13672079D01*
X1553515Y-13672079D02*
X1563039Y-13710174D01*
X1563039Y-13710174D02*
X1563039Y-13757793D01*
X1563039Y-13757793D02*
X1553515Y-13795888D01*
X1553515Y-13795888D02*
X1543991Y-13814936D01*
X1543991Y-13814936D02*
X1534467Y-13824460D01*
X1534467Y-13824460D02*
X1515420Y-13833984D01*
X1515420Y-13833984D02*
X1496372Y-13833984D01*
X1496372Y-13833984D02*
X1477324Y-13824460D01*
X1477324Y-13824460D02*
X1467801Y-13814936D01*
X1467801Y-13814936D02*
X1458277Y-13795888D01*
X1458277Y-13795888D02*
X1448753Y-13757793D01*
X1448753Y-13757793D02*
X1448753Y-13710174D01*
X1448753Y-13710174D02*
X1458277Y-13672079D01*
X1458277Y-13672079D02*
X1467801Y-13653031D01*
X1467801Y-13653031D02*
X1477324Y-13643508D01*
X1477324Y-13643508D02*
X1496372Y-13633984D01*
X1648753Y-13814936D02*
X1658277Y-13824460D01*
X1658277Y-13824460D02*
X1648753Y-13833984D01*
X1648753Y-13833984D02*
X1639229Y-13824460D01*
X1639229Y-13824460D02*
X1648753Y-13814936D01*
X1648753Y-13814936D02*
X1648753Y-13833984D01*
X1724943Y-13633984D02*
X1848753Y-13633984D01*
X1848753Y-13633984D02*
X1782086Y-13710174D01*
X1782086Y-13710174D02*
X1810658Y-13710174D01*
X1810658Y-13710174D02*
X1829705Y-13719698D01*
X1829705Y-13719698D02*
X1839229Y-13729222D01*
X1839229Y-13729222D02*
X1848753Y-13748269D01*
X1848753Y-13748269D02*
X1848753Y-13795888D01*
X1848753Y-13795888D02*
X1839229Y-13814936D01*
X1839229Y-13814936D02*
X1829705Y-13824460D01*
X1829705Y-13824460D02*
X1810658Y-13833984D01*
X1810658Y-13833984D02*
X1753515Y-13833984D01*
X1753515Y-13833984D02*
X1734467Y-13824460D01*
X1734467Y-13824460D02*
X1724943Y-13814936D01*
X1972562Y-13633984D02*
X1991610Y-13633984D01*
X1991610Y-13633984D02*
X2010658Y-13643508D01*
X2010658Y-13643508D02*
X2020182Y-13653031D01*
X2020182Y-13653031D02*
X2029705Y-13672079D01*
X2029705Y-13672079D02*
X2039229Y-13710174D01*
X2039229Y-13710174D02*
X2039229Y-13757793D01*
X2039229Y-13757793D02*
X2029705Y-13795888D01*
X2029705Y-13795888D02*
X2020182Y-13814936D01*
X2020182Y-13814936D02*
X2010658Y-13824460D01*
X2010658Y-13824460D02*
X1991610Y-13833984D01*
X1991610Y-13833984D02*
X1972562Y-13833984D01*
X1972562Y-13833984D02*
X1953515Y-13824460D01*
X1953515Y-13824460D02*
X1943991Y-13814936D01*
X1943991Y-13814936D02*
X1934467Y-13795888D01*
X1934467Y-13795888D02*
X1924943Y-13757793D01*
X1924943Y-13757793D02*
X1924943Y-13710174D01*
X1924943Y-13710174D02*
X1934467Y-13672079D01*
X1934467Y-13672079D02*
X1943991Y-13653031D01*
X1943991Y-13653031D02*
X1953515Y-13643508D01*
X1953515Y-13643508D02*
X1972562Y-13633984D01*
X2163039Y-13633984D02*
X2182086Y-13633984D01*
X2182086Y-13633984D02*
X2201134Y-13643508D01*
X2201134Y-13643508D02*
X2210658Y-13653031D01*
X2210658Y-13653031D02*
X2220182Y-13672079D01*
X2220182Y-13672079D02*
X2229705Y-13710174D01*
X2229705Y-13710174D02*
X2229705Y-13757793D01*
X2229705Y-13757793D02*
X2220182Y-13795888D01*
X2220182Y-13795888D02*
X2210658Y-13814936D01*
X2210658Y-13814936D02*
X2201134Y-13824460D01*
X2201134Y-13824460D02*
X2182086Y-13833984D01*
X2182086Y-13833984D02*
X2163039Y-13833984D01*
X2163039Y-13833984D02*
X2143991Y-13824460D01*
X2143991Y-13824460D02*
X2134467Y-13814936D01*
X2134467Y-13814936D02*
X2124944Y-13795888D01*
X2124944Y-13795888D02*
X2115420Y-13757793D01*
X2115420Y-13757793D02*
X2115420Y-13710174D01*
X2115420Y-13710174D02*
X2124944Y-13672079D01*
X2124944Y-13672079D02*
X2134467Y-13653031D01*
X2134467Y-13653031D02*
X2143991Y-13643508D01*
X2143991Y-13643508D02*
X2163039Y-13633984D01*
X2315420Y-13833984D02*
X2315420Y-13700650D01*
X2315420Y-13719698D02*
X2324944Y-13710174D01*
X2324944Y-13710174D02*
X2343991Y-13700650D01*
X2343991Y-13700650D02*
X2372563Y-13700650D01*
X2372563Y-13700650D02*
X2391610Y-13710174D01*
X2391610Y-13710174D02*
X2401134Y-13729222D01*
X2401134Y-13729222D02*
X2401134Y-13833984D01*
X2401134Y-13729222D02*
X2410658Y-13710174D01*
X2410658Y-13710174D02*
X2429705Y-13700650D01*
X2429705Y-13700650D02*
X2458277Y-13700650D01*
X2458277Y-13700650D02*
X2477325Y-13710174D01*
X2477325Y-13710174D02*
X2486848Y-13729222D01*
X2486848Y-13729222D02*
X2486848Y-13833984D01*
X2582086Y-13833984D02*
X2582086Y-13700650D01*
X2582086Y-13719698D02*
X2591610Y-13710174D01*
X2591610Y-13710174D02*
X2610658Y-13700650D01*
X2610658Y-13700650D02*
X2639229Y-13700650D01*
X2639229Y-13700650D02*
X2658277Y-13710174D01*
X2658277Y-13710174D02*
X2667801Y-13729222D01*
X2667801Y-13729222D02*
X2667801Y-13833984D01*
X2667801Y-13729222D02*
X2677325Y-13710174D01*
X2677325Y-13710174D02*
X2696372Y-13700650D01*
X2696372Y-13700650D02*
X2724944Y-13700650D01*
X2724944Y-13700650D02*
X2743991Y-13710174D01*
X2743991Y-13710174D02*
X2753515Y-13729222D01*
X2753515Y-13729222D02*
X2753515Y-13833984D01*
X3143991Y-13624460D02*
X2972563Y-13881603D01*
X3401134Y-13633984D02*
X3420182Y-13633984D01*
X3420182Y-13633984D02*
X3439229Y-13643508D01*
X3439229Y-13643508D02*
X3448753Y-13653031D01*
X3448753Y-13653031D02*
X3458277Y-13672079D01*
X3458277Y-13672079D02*
X3467801Y-13710174D01*
X3467801Y-13710174D02*
X3467801Y-13757793D01*
X3467801Y-13757793D02*
X3458277Y-13795888D01*
X3458277Y-13795888D02*
X3448753Y-13814936D01*
X3448753Y-13814936D02*
X3439229Y-13824460D01*
X3439229Y-13824460D02*
X3420182Y-13833984D01*
X3420182Y-13833984D02*
X3401134Y-13833984D01*
X3401134Y-13833984D02*
X3382086Y-13824460D01*
X3382086Y-13824460D02*
X3372563Y-13814936D01*
X3372563Y-13814936D02*
X3363039Y-13795888D01*
X3363039Y-13795888D02*
X3353515Y-13757793D01*
X3353515Y-13757793D02*
X3353515Y-13710174D01*
X3353515Y-13710174D02*
X3363039Y-13672079D01*
X3363039Y-13672079D02*
X3372563Y-13653031D01*
X3372563Y-13653031D02*
X3382086Y-13643508D01*
X3382086Y-13643508D02*
X3401134Y-13633984D01*
X3553515Y-13814936D02*
X3563039Y-13824460D01*
X3563039Y-13824460D02*
X3553515Y-13833984D01*
X3553515Y-13833984D02*
X3543991Y-13824460D01*
X3543991Y-13824460D02*
X3553515Y-13814936D01*
X3553515Y-13814936D02*
X3553515Y-13833984D01*
X3686848Y-13633984D02*
X3705896Y-13633984D01*
X3705896Y-13633984D02*
X3724944Y-13643508D01*
X3724944Y-13643508D02*
X3734467Y-13653031D01*
X3734467Y-13653031D02*
X3743991Y-13672079D01*
X3743991Y-13672079D02*
X3753515Y-13710174D01*
X3753515Y-13710174D02*
X3753515Y-13757793D01*
X3753515Y-13757793D02*
X3743991Y-13795888D01*
X3743991Y-13795888D02*
X3734467Y-13814936D01*
X3734467Y-13814936D02*
X3724944Y-13824460D01*
X3724944Y-13824460D02*
X3705896Y-13833984D01*
X3705896Y-13833984D02*
X3686848Y-13833984D01*
X3686848Y-13833984D02*
X3667801Y-13824460D01*
X3667801Y-13824460D02*
X3658277Y-13814936D01*
X3658277Y-13814936D02*
X3648753Y-13795888D01*
X3648753Y-13795888D02*
X3639229Y-13757793D01*
X3639229Y-13757793D02*
X3639229Y-13710174D01*
X3639229Y-13710174D02*
X3648753Y-13672079D01*
X3648753Y-13672079D02*
X3658277Y-13653031D01*
X3658277Y-13653031D02*
X3667801Y-13643508D01*
X3667801Y-13643508D02*
X3686848Y-13633984D01*
X3943991Y-13833984D02*
X3829706Y-13833984D01*
X3886848Y-13833984D02*
X3886848Y-13633984D01*
X3886848Y-13633984D02*
X3867801Y-13662555D01*
X3867801Y-13662555D02*
X3848753Y-13681603D01*
X3848753Y-13681603D02*
X3829706Y-13691127D01*
X4134467Y-13833984D02*
X4020182Y-13833984D01*
X4077325Y-13833984D02*
X4077325Y-13633984D01*
X4077325Y-13633984D02*
X4058277Y-13662555D01*
X4058277Y-13662555D02*
X4039229Y-13681603D01*
X4039229Y-13681603D02*
X4020182Y-13691127D01*
X4248753Y-13719698D02*
X4229706Y-13710174D01*
X4229706Y-13710174D02*
X4220182Y-13700650D01*
X4220182Y-13700650D02*
X4210658Y-13681603D01*
X4210658Y-13681603D02*
X4210658Y-13672079D01*
X4210658Y-13672079D02*
X4220182Y-13653031D01*
X4220182Y-13653031D02*
X4229706Y-13643508D01*
X4229706Y-13643508D02*
X4248753Y-13633984D01*
X4248753Y-13633984D02*
X4286849Y-13633984D01*
X4286849Y-13633984D02*
X4305896Y-13643508D01*
X4305896Y-13643508D02*
X4315420Y-13653031D01*
X4315420Y-13653031D02*
X4324944Y-13672079D01*
X4324944Y-13672079D02*
X4324944Y-13681603D01*
X4324944Y-13681603D02*
X4315420Y-13700650D01*
X4315420Y-13700650D02*
X4305896Y-13710174D01*
X4305896Y-13710174D02*
X4286849Y-13719698D01*
X4286849Y-13719698D02*
X4248753Y-13719698D01*
X4248753Y-13719698D02*
X4229706Y-13729222D01*
X4229706Y-13729222D02*
X4220182Y-13738746D01*
X4220182Y-13738746D02*
X4210658Y-13757793D01*
X4210658Y-13757793D02*
X4210658Y-13795888D01*
X4210658Y-13795888D02*
X4220182Y-13814936D01*
X4220182Y-13814936D02*
X4229706Y-13824460D01*
X4229706Y-13824460D02*
X4248753Y-13833984D01*
X4248753Y-13833984D02*
X4286849Y-13833984D01*
X4286849Y-13833984D02*
X4305896Y-13824460D01*
X4305896Y-13824460D02*
X4315420Y-13814936D01*
X4315420Y-13814936D02*
X4324944Y-13795888D01*
X4324944Y-13795888D02*
X4324944Y-13757793D01*
X4324944Y-13757793D02*
X4315420Y-13738746D01*
X4315420Y-13738746D02*
X4305896Y-13729222D01*
X4305896Y-13729222D02*
X4286849Y-13719698D01*
X4401134Y-13633984D02*
X4401134Y-13672079D01*
X4477325Y-13633984D02*
X4477325Y-13672079D01*
X4772563Y-13910174D02*
X4763039Y-13900650D01*
X4763039Y-13900650D02*
X4743991Y-13872079D01*
X4743991Y-13872079D02*
X4734468Y-13853031D01*
X4734468Y-13853031D02*
X4724944Y-13824460D01*
X4724944Y-13824460D02*
X4715420Y-13776841D01*
X4715420Y-13776841D02*
X4715420Y-13738746D01*
X4715420Y-13738746D02*
X4724944Y-13691127D01*
X4724944Y-13691127D02*
X4734468Y-13662555D01*
X4734468Y-13662555D02*
X4743991Y-13643508D01*
X4743991Y-13643508D02*
X4763039Y-13614936D01*
X4763039Y-13614936D02*
X4772563Y-13605412D01*
X4953515Y-13833984D02*
X4839230Y-13833984D01*
X4896372Y-13833984D02*
X4896372Y-13633984D01*
X4896372Y-13633984D02*
X4877325Y-13662555D01*
X4877325Y-13662555D02*
X4858277Y-13681603D01*
X4858277Y-13681603D02*
X4839230Y-13691127D01*
X5029706Y-13653031D02*
X5039230Y-13643508D01*
X5039230Y-13643508D02*
X5058277Y-13633984D01*
X5058277Y-13633984D02*
X5105896Y-13633984D01*
X5105896Y-13633984D02*
X5124944Y-13643508D01*
X5124944Y-13643508D02*
X5134468Y-13653031D01*
X5134468Y-13653031D02*
X5143991Y-13672079D01*
X5143991Y-13672079D02*
X5143991Y-13691127D01*
X5143991Y-13691127D02*
X5134468Y-13719698D01*
X5134468Y-13719698D02*
X5020182Y-13833984D01*
X5020182Y-13833984D02*
X5143991Y-13833984D01*
X5334468Y-13833984D02*
X5220182Y-13833984D01*
X5277325Y-13833984D02*
X5277325Y-13633984D01*
X5277325Y-13633984D02*
X5258277Y-13662555D01*
X5258277Y-13662555D02*
X5239230Y-13681603D01*
X5239230Y-13681603D02*
X5220182Y-13691127D01*
X5572563Y-13833984D02*
X5572563Y-13633984D01*
X5658277Y-13833984D02*
X5658277Y-13729222D01*
X5658277Y-13729222D02*
X5648753Y-13710174D01*
X5648753Y-13710174D02*
X5629706Y-13700650D01*
X5629706Y-13700650D02*
X5601134Y-13700650D01*
X5601134Y-13700650D02*
X5582087Y-13710174D01*
X5582087Y-13710174D02*
X5572563Y-13719698D01*
X5782087Y-13833984D02*
X5763039Y-13824460D01*
X5763039Y-13824460D02*
X5753515Y-13814936D01*
X5753515Y-13814936D02*
X5743991Y-13795888D01*
X5743991Y-13795888D02*
X5743991Y-13738746D01*
X5743991Y-13738746D02*
X5753515Y-13719698D01*
X5753515Y-13719698D02*
X5763039Y-13710174D01*
X5763039Y-13710174D02*
X5782087Y-13700650D01*
X5782087Y-13700650D02*
X5810658Y-13700650D01*
X5810658Y-13700650D02*
X5829706Y-13710174D01*
X5829706Y-13710174D02*
X5839230Y-13719698D01*
X5839230Y-13719698D02*
X5848753Y-13738746D01*
X5848753Y-13738746D02*
X5848753Y-13795888D01*
X5848753Y-13795888D02*
X5839230Y-13814936D01*
X5839230Y-13814936D02*
X5829706Y-13824460D01*
X5829706Y-13824460D02*
X5810658Y-13833984D01*
X5810658Y-13833984D02*
X5782087Y-13833984D01*
X5963039Y-13833984D02*
X5943991Y-13824460D01*
X5943991Y-13824460D02*
X5934468Y-13805412D01*
X5934468Y-13805412D02*
X5934468Y-13633984D01*
X6115420Y-13824460D02*
X6096372Y-13833984D01*
X6096372Y-13833984D02*
X6058277Y-13833984D01*
X6058277Y-13833984D02*
X6039230Y-13824460D01*
X6039230Y-13824460D02*
X6029706Y-13805412D01*
X6029706Y-13805412D02*
X6029706Y-13729222D01*
X6029706Y-13729222D02*
X6039230Y-13710174D01*
X6039230Y-13710174D02*
X6058277Y-13700650D01*
X6058277Y-13700650D02*
X6096372Y-13700650D01*
X6096372Y-13700650D02*
X6115420Y-13710174D01*
X6115420Y-13710174D02*
X6124944Y-13729222D01*
X6124944Y-13729222D02*
X6124944Y-13748269D01*
X6124944Y-13748269D02*
X6029706Y-13767317D01*
X6201134Y-13824460D02*
X6220182Y-13833984D01*
X6220182Y-13833984D02*
X6258277Y-13833984D01*
X6258277Y-13833984D02*
X6277325Y-13824460D01*
X6277325Y-13824460D02*
X6286849Y-13805412D01*
X6286849Y-13805412D02*
X6286849Y-13795888D01*
X6286849Y-13795888D02*
X6277325Y-13776841D01*
X6277325Y-13776841D02*
X6258277Y-13767317D01*
X6258277Y-13767317D02*
X6229706Y-13767317D01*
X6229706Y-13767317D02*
X6210658Y-13757793D01*
X6210658Y-13757793D02*
X6201134Y-13738746D01*
X6201134Y-13738746D02*
X6201134Y-13729222D01*
X6201134Y-13729222D02*
X6210658Y-13710174D01*
X6210658Y-13710174D02*
X6229706Y-13700650D01*
X6229706Y-13700650D02*
X6258277Y-13700650D01*
X6258277Y-13700650D02*
X6277325Y-13710174D01*
X6353515Y-13910174D02*
X6363039Y-13900650D01*
X6363039Y-13900650D02*
X6382087Y-13872079D01*
X6382087Y-13872079D02*
X6391611Y-13853031D01*
X6391611Y-13853031D02*
X6401134Y-13824460D01*
X6401134Y-13824460D02*
X6410658Y-13776841D01*
X6410658Y-13776841D02*
X6410658Y-13738746D01*
X6410658Y-13738746D02*
X6401134Y-13691127D01*
X6401134Y-13691127D02*
X6391611Y-13662555D01*
X6391611Y-13662555D02*
X6382087Y-13643508D01*
X6382087Y-13643508D02*
X6363039Y-13614936D01*
X6363039Y-13614936D02*
X6353515Y-13605412D01*
D12*
X1197500Y-14006500D02*
G75*
G02*
X1117500Y-14006500I-40000J0D01*
G01*
X1117500Y-14006500D02*
G75*
G02*
X1197500Y-14006500I40000J0D01*
G01*
D11*
X1496372Y-13897984D02*
X1515420Y-13897984D01*
X1515420Y-13897984D02*
X1534467Y-13907508D01*
X1534467Y-13907508D02*
X1543991Y-13917031D01*
X1543991Y-13917031D02*
X1553515Y-13936079D01*
X1553515Y-13936079D02*
X1563039Y-13974174D01*
X1563039Y-13974174D02*
X1563039Y-14021793D01*
X1563039Y-14021793D02*
X1553515Y-14059888D01*
X1553515Y-14059888D02*
X1543991Y-14078936D01*
X1543991Y-14078936D02*
X1534467Y-14088460D01*
X1534467Y-14088460D02*
X1515420Y-14097984D01*
X1515420Y-14097984D02*
X1496372Y-14097984D01*
X1496372Y-14097984D02*
X1477324Y-14088460D01*
X1477324Y-14088460D02*
X1467801Y-14078936D01*
X1467801Y-14078936D02*
X1458277Y-14059888D01*
X1458277Y-14059888D02*
X1448753Y-14021793D01*
X1448753Y-14021793D02*
X1448753Y-13974174D01*
X1448753Y-13974174D02*
X1458277Y-13936079D01*
X1458277Y-13936079D02*
X1467801Y-13917031D01*
X1467801Y-13917031D02*
X1477324Y-13907508D01*
X1477324Y-13907508D02*
X1496372Y-13897984D01*
X1648753Y-14078936D02*
X1658277Y-14088460D01*
X1658277Y-14088460D02*
X1648753Y-14097984D01*
X1648753Y-14097984D02*
X1639229Y-14088460D01*
X1639229Y-14088460D02*
X1648753Y-14078936D01*
X1648753Y-14078936D02*
X1648753Y-14097984D01*
X1772562Y-13983698D02*
X1753515Y-13974174D01*
X1753515Y-13974174D02*
X1743991Y-13964650D01*
X1743991Y-13964650D02*
X1734467Y-13945603D01*
X1734467Y-13945603D02*
X1734467Y-13936079D01*
X1734467Y-13936079D02*
X1743991Y-13917031D01*
X1743991Y-13917031D02*
X1753515Y-13907508D01*
X1753515Y-13907508D02*
X1772562Y-13897984D01*
X1772562Y-13897984D02*
X1810658Y-13897984D01*
X1810658Y-13897984D02*
X1829705Y-13907508D01*
X1829705Y-13907508D02*
X1839229Y-13917031D01*
X1839229Y-13917031D02*
X1848753Y-13936079D01*
X1848753Y-13936079D02*
X1848753Y-13945603D01*
X1848753Y-13945603D02*
X1839229Y-13964650D01*
X1839229Y-13964650D02*
X1829705Y-13974174D01*
X1829705Y-13974174D02*
X1810658Y-13983698D01*
X1810658Y-13983698D02*
X1772562Y-13983698D01*
X1772562Y-13983698D02*
X1753515Y-13993222D01*
X1753515Y-13993222D02*
X1743991Y-14002746D01*
X1743991Y-14002746D02*
X1734467Y-14021793D01*
X1734467Y-14021793D02*
X1734467Y-14059888D01*
X1734467Y-14059888D02*
X1743991Y-14078936D01*
X1743991Y-14078936D02*
X1753515Y-14088460D01*
X1753515Y-14088460D02*
X1772562Y-14097984D01*
X1772562Y-14097984D02*
X1810658Y-14097984D01*
X1810658Y-14097984D02*
X1829705Y-14088460D01*
X1829705Y-14088460D02*
X1839229Y-14078936D01*
X1839229Y-14078936D02*
X1848753Y-14059888D01*
X1848753Y-14059888D02*
X1848753Y-14021793D01*
X1848753Y-14021793D02*
X1839229Y-14002746D01*
X1839229Y-14002746D02*
X1829705Y-13993222D01*
X1829705Y-13993222D02*
X1810658Y-13983698D01*
X1972562Y-13897984D02*
X1991610Y-13897984D01*
X1991610Y-13897984D02*
X2010658Y-13907508D01*
X2010658Y-13907508D02*
X2020182Y-13917031D01*
X2020182Y-13917031D02*
X2029705Y-13936079D01*
X2029705Y-13936079D02*
X2039229Y-13974174D01*
X2039229Y-13974174D02*
X2039229Y-14021793D01*
X2039229Y-14021793D02*
X2029705Y-14059888D01*
X2029705Y-14059888D02*
X2020182Y-14078936D01*
X2020182Y-14078936D02*
X2010658Y-14088460D01*
X2010658Y-14088460D02*
X1991610Y-14097984D01*
X1991610Y-14097984D02*
X1972562Y-14097984D01*
X1972562Y-14097984D02*
X1953515Y-14088460D01*
X1953515Y-14088460D02*
X1943991Y-14078936D01*
X1943991Y-14078936D02*
X1934467Y-14059888D01*
X1934467Y-14059888D02*
X1924943Y-14021793D01*
X1924943Y-14021793D02*
X1924943Y-13974174D01*
X1924943Y-13974174D02*
X1934467Y-13936079D01*
X1934467Y-13936079D02*
X1943991Y-13917031D01*
X1943991Y-13917031D02*
X1953515Y-13907508D01*
X1953515Y-13907508D02*
X1972562Y-13897984D01*
X2163039Y-13897984D02*
X2182086Y-13897984D01*
X2182086Y-13897984D02*
X2201134Y-13907508D01*
X2201134Y-13907508D02*
X2210658Y-13917031D01*
X2210658Y-13917031D02*
X2220182Y-13936079D01*
X2220182Y-13936079D02*
X2229705Y-13974174D01*
X2229705Y-13974174D02*
X2229705Y-14021793D01*
X2229705Y-14021793D02*
X2220182Y-14059888D01*
X2220182Y-14059888D02*
X2210658Y-14078936D01*
X2210658Y-14078936D02*
X2201134Y-14088460D01*
X2201134Y-14088460D02*
X2182086Y-14097984D01*
X2182086Y-14097984D02*
X2163039Y-14097984D01*
X2163039Y-14097984D02*
X2143991Y-14088460D01*
X2143991Y-14088460D02*
X2134467Y-14078936D01*
X2134467Y-14078936D02*
X2124944Y-14059888D01*
X2124944Y-14059888D02*
X2115420Y-14021793D01*
X2115420Y-14021793D02*
X2115420Y-13974174D01*
X2115420Y-13974174D02*
X2124944Y-13936079D01*
X2124944Y-13936079D02*
X2134467Y-13917031D01*
X2134467Y-13917031D02*
X2143991Y-13907508D01*
X2143991Y-13907508D02*
X2163039Y-13897984D01*
X2315420Y-14097984D02*
X2315420Y-13964650D01*
X2315420Y-13983698D02*
X2324944Y-13974174D01*
X2324944Y-13974174D02*
X2343991Y-13964650D01*
X2343991Y-13964650D02*
X2372563Y-13964650D01*
X2372563Y-13964650D02*
X2391610Y-13974174D01*
X2391610Y-13974174D02*
X2401134Y-13993222D01*
X2401134Y-13993222D02*
X2401134Y-14097984D01*
X2401134Y-13993222D02*
X2410658Y-13974174D01*
X2410658Y-13974174D02*
X2429705Y-13964650D01*
X2429705Y-13964650D02*
X2458277Y-13964650D01*
X2458277Y-13964650D02*
X2477325Y-13974174D01*
X2477325Y-13974174D02*
X2486848Y-13993222D01*
X2486848Y-13993222D02*
X2486848Y-14097984D01*
X2582086Y-14097984D02*
X2582086Y-13964650D01*
X2582086Y-13983698D02*
X2591610Y-13974174D01*
X2591610Y-13974174D02*
X2610658Y-13964650D01*
X2610658Y-13964650D02*
X2639229Y-13964650D01*
X2639229Y-13964650D02*
X2658277Y-13974174D01*
X2658277Y-13974174D02*
X2667801Y-13993222D01*
X2667801Y-13993222D02*
X2667801Y-14097984D01*
X2667801Y-13993222D02*
X2677325Y-13974174D01*
X2677325Y-13974174D02*
X2696372Y-13964650D01*
X2696372Y-13964650D02*
X2724944Y-13964650D01*
X2724944Y-13964650D02*
X2743991Y-13974174D01*
X2743991Y-13974174D02*
X2753515Y-13993222D01*
X2753515Y-13993222D02*
X2753515Y-14097984D01*
X3143991Y-13888460D02*
X2972563Y-14145603D01*
X3401134Y-13897984D02*
X3420182Y-13897984D01*
X3420182Y-13897984D02*
X3439229Y-13907508D01*
X3439229Y-13907508D02*
X3448753Y-13917031D01*
X3448753Y-13917031D02*
X3458277Y-13936079D01*
X3458277Y-13936079D02*
X3467801Y-13974174D01*
X3467801Y-13974174D02*
X3467801Y-14021793D01*
X3467801Y-14021793D02*
X3458277Y-14059888D01*
X3458277Y-14059888D02*
X3448753Y-14078936D01*
X3448753Y-14078936D02*
X3439229Y-14088460D01*
X3439229Y-14088460D02*
X3420182Y-14097984D01*
X3420182Y-14097984D02*
X3401134Y-14097984D01*
X3401134Y-14097984D02*
X3382086Y-14088460D01*
X3382086Y-14088460D02*
X3372563Y-14078936D01*
X3372563Y-14078936D02*
X3363039Y-14059888D01*
X3363039Y-14059888D02*
X3353515Y-14021793D01*
X3353515Y-14021793D02*
X3353515Y-13974174D01*
X3353515Y-13974174D02*
X3363039Y-13936079D01*
X3363039Y-13936079D02*
X3372563Y-13917031D01*
X3372563Y-13917031D02*
X3382086Y-13907508D01*
X3382086Y-13907508D02*
X3401134Y-13897984D01*
X3553515Y-14078936D02*
X3563039Y-14088460D01*
X3563039Y-14088460D02*
X3553515Y-14097984D01*
X3553515Y-14097984D02*
X3543991Y-14088460D01*
X3543991Y-14088460D02*
X3553515Y-14078936D01*
X3553515Y-14078936D02*
X3553515Y-14097984D01*
X3686848Y-13897984D02*
X3705896Y-13897984D01*
X3705896Y-13897984D02*
X3724944Y-13907508D01*
X3724944Y-13907508D02*
X3734467Y-13917031D01*
X3734467Y-13917031D02*
X3743991Y-13936079D01*
X3743991Y-13936079D02*
X3753515Y-13974174D01*
X3753515Y-13974174D02*
X3753515Y-14021793D01*
X3753515Y-14021793D02*
X3743991Y-14059888D01*
X3743991Y-14059888D02*
X3734467Y-14078936D01*
X3734467Y-14078936D02*
X3724944Y-14088460D01*
X3724944Y-14088460D02*
X3705896Y-14097984D01*
X3705896Y-14097984D02*
X3686848Y-14097984D01*
X3686848Y-14097984D02*
X3667801Y-14088460D01*
X3667801Y-14088460D02*
X3658277Y-14078936D01*
X3658277Y-14078936D02*
X3648753Y-14059888D01*
X3648753Y-14059888D02*
X3639229Y-14021793D01*
X3639229Y-14021793D02*
X3639229Y-13974174D01*
X3639229Y-13974174D02*
X3648753Y-13936079D01*
X3648753Y-13936079D02*
X3658277Y-13917031D01*
X3658277Y-13917031D02*
X3667801Y-13907508D01*
X3667801Y-13907508D02*
X3686848Y-13897984D01*
X3820182Y-13897984D02*
X3943991Y-13897984D01*
X3943991Y-13897984D02*
X3877325Y-13974174D01*
X3877325Y-13974174D02*
X3905896Y-13974174D01*
X3905896Y-13974174D02*
X3924944Y-13983698D01*
X3924944Y-13983698D02*
X3934467Y-13993222D01*
X3934467Y-13993222D02*
X3943991Y-14012269D01*
X3943991Y-14012269D02*
X3943991Y-14059888D01*
X3943991Y-14059888D02*
X3934467Y-14078936D01*
X3934467Y-14078936D02*
X3924944Y-14088460D01*
X3924944Y-14088460D02*
X3905896Y-14097984D01*
X3905896Y-14097984D02*
X3848753Y-14097984D01*
X3848753Y-14097984D02*
X3829706Y-14088460D01*
X3829706Y-14088460D02*
X3820182Y-14078936D01*
X4134467Y-14097984D02*
X4020182Y-14097984D01*
X4077325Y-14097984D02*
X4077325Y-13897984D01*
X4077325Y-13897984D02*
X4058277Y-13926555D01*
X4058277Y-13926555D02*
X4039229Y-13945603D01*
X4039229Y-13945603D02*
X4020182Y-13955127D01*
X4315420Y-13897984D02*
X4220182Y-13897984D01*
X4220182Y-13897984D02*
X4210658Y-13993222D01*
X4210658Y-13993222D02*
X4220182Y-13983698D01*
X4220182Y-13983698D02*
X4239229Y-13974174D01*
X4239229Y-13974174D02*
X4286849Y-13974174D01*
X4286849Y-13974174D02*
X4305896Y-13983698D01*
X4305896Y-13983698D02*
X4315420Y-13993222D01*
X4315420Y-13993222D02*
X4324944Y-14012269D01*
X4324944Y-14012269D02*
X4324944Y-14059888D01*
X4324944Y-14059888D02*
X4315420Y-14078936D01*
X4315420Y-14078936D02*
X4305896Y-14088460D01*
X4305896Y-14088460D02*
X4286849Y-14097984D01*
X4286849Y-14097984D02*
X4239229Y-14097984D01*
X4239229Y-14097984D02*
X4220182Y-14088460D01*
X4220182Y-14088460D02*
X4210658Y-14078936D01*
X4401134Y-13897984D02*
X4401134Y-13936079D01*
X4477325Y-13897984D02*
X4477325Y-13936079D01*
X4772563Y-14174174D02*
X4763039Y-14164650D01*
X4763039Y-14164650D02*
X4743991Y-14136079D01*
X4743991Y-14136079D02*
X4734468Y-14117031D01*
X4734468Y-14117031D02*
X4724944Y-14088460D01*
X4724944Y-14088460D02*
X4715420Y-14040841D01*
X4715420Y-14040841D02*
X4715420Y-14002746D01*
X4715420Y-14002746D02*
X4724944Y-13955127D01*
X4724944Y-13955127D02*
X4734468Y-13926555D01*
X4734468Y-13926555D02*
X4743991Y-13907508D01*
X4743991Y-13907508D02*
X4763039Y-13878936D01*
X4763039Y-13878936D02*
X4772563Y-13869412D01*
X4934468Y-13964650D02*
X4934468Y-14097984D01*
X4886849Y-13888460D02*
X4839230Y-14031317D01*
X4839230Y-14031317D02*
X4963039Y-14031317D01*
X5191611Y-14097984D02*
X5191611Y-13897984D01*
X5277325Y-14097984D02*
X5277325Y-13993222D01*
X5277325Y-13993222D02*
X5267801Y-13974174D01*
X5267801Y-13974174D02*
X5248753Y-13964650D01*
X5248753Y-13964650D02*
X5220182Y-13964650D01*
X5220182Y-13964650D02*
X5201134Y-13974174D01*
X5201134Y-13974174D02*
X5191611Y-13983698D01*
X5401134Y-14097984D02*
X5382087Y-14088460D01*
X5382087Y-14088460D02*
X5372563Y-14078936D01*
X5372563Y-14078936D02*
X5363039Y-14059888D01*
X5363039Y-14059888D02*
X5363039Y-14002746D01*
X5363039Y-14002746D02*
X5372563Y-13983698D01*
X5372563Y-13983698D02*
X5382087Y-13974174D01*
X5382087Y-13974174D02*
X5401134Y-13964650D01*
X5401134Y-13964650D02*
X5429706Y-13964650D01*
X5429706Y-13964650D02*
X5448753Y-13974174D01*
X5448753Y-13974174D02*
X5458277Y-13983698D01*
X5458277Y-13983698D02*
X5467801Y-14002746D01*
X5467801Y-14002746D02*
X5467801Y-14059888D01*
X5467801Y-14059888D02*
X5458277Y-14078936D01*
X5458277Y-14078936D02*
X5448753Y-14088460D01*
X5448753Y-14088460D02*
X5429706Y-14097984D01*
X5429706Y-14097984D02*
X5401134Y-14097984D01*
X5582087Y-14097984D02*
X5563039Y-14088460D01*
X5563039Y-14088460D02*
X5553515Y-14069412D01*
X5553515Y-14069412D02*
X5553515Y-13897984D01*
X5734468Y-14088460D02*
X5715420Y-14097984D01*
X5715420Y-14097984D02*
X5677325Y-14097984D01*
X5677325Y-14097984D02*
X5658277Y-14088460D01*
X5658277Y-14088460D02*
X5648753Y-14069412D01*
X5648753Y-14069412D02*
X5648753Y-13993222D01*
X5648753Y-13993222D02*
X5658277Y-13974174D01*
X5658277Y-13974174D02*
X5677325Y-13964650D01*
X5677325Y-13964650D02*
X5715420Y-13964650D01*
X5715420Y-13964650D02*
X5734468Y-13974174D01*
X5734468Y-13974174D02*
X5743991Y-13993222D01*
X5743991Y-13993222D02*
X5743991Y-14012269D01*
X5743991Y-14012269D02*
X5648753Y-14031317D01*
X5820182Y-14088460D02*
X5839230Y-14097984D01*
X5839230Y-14097984D02*
X5877325Y-14097984D01*
X5877325Y-14097984D02*
X5896372Y-14088460D01*
X5896372Y-14088460D02*
X5905896Y-14069412D01*
X5905896Y-14069412D02*
X5905896Y-14059888D01*
X5905896Y-14059888D02*
X5896372Y-14040841D01*
X5896372Y-14040841D02*
X5877325Y-14031317D01*
X5877325Y-14031317D02*
X5848753Y-14031317D01*
X5848753Y-14031317D02*
X5829706Y-14021793D01*
X5829706Y-14021793D02*
X5820182Y-14002746D01*
X5820182Y-14002746D02*
X5820182Y-13993222D01*
X5820182Y-13993222D02*
X5829706Y-13974174D01*
X5829706Y-13974174D02*
X5848753Y-13964650D01*
X5848753Y-13964650D02*
X5877325Y-13964650D01*
X5877325Y-13964650D02*
X5896372Y-13974174D01*
X5972563Y-14174174D02*
X5982087Y-14164650D01*
X5982087Y-14164650D02*
X6001134Y-14136079D01*
X6001134Y-14136079D02*
X6010658Y-14117031D01*
X6010658Y-14117031D02*
X6020182Y-14088460D01*
X6020182Y-14088460D02*
X6029706Y-14040841D01*
X6029706Y-14040841D02*
X6029706Y-14002746D01*
X6029706Y-14002746D02*
X6020182Y-13955127D01*
X6020182Y-13955127D02*
X6010658Y-13926555D01*
X6010658Y-13926555D02*
X6001134Y-13907508D01*
X6001134Y-13907508D02*
X5982087Y-13878936D01*
X5982087Y-13878936D02*
X5972563Y-13869412D01*
D12*
X1156500Y-14229500D02*
X1156500Y-14311500D01*
X1115500Y-14270500D02*
X1197500Y-14270500D01*
D11*
X1496372Y-14161984D02*
X1515420Y-14161984D01*
X1515420Y-14161984D02*
X1534467Y-14171508D01*
X1534467Y-14171508D02*
X1543991Y-14181031D01*
X1543991Y-14181031D02*
X1553515Y-14200079D01*
X1553515Y-14200079D02*
X1563039Y-14238174D01*
X1563039Y-14238174D02*
X1563039Y-14285793D01*
X1563039Y-14285793D02*
X1553515Y-14323888D01*
X1553515Y-14323888D02*
X1543991Y-14342936D01*
X1543991Y-14342936D02*
X1534467Y-14352460D01*
X1534467Y-14352460D02*
X1515420Y-14361984D01*
X1515420Y-14361984D02*
X1496372Y-14361984D01*
X1496372Y-14361984D02*
X1477324Y-14352460D01*
X1477324Y-14352460D02*
X1467801Y-14342936D01*
X1467801Y-14342936D02*
X1458277Y-14323888D01*
X1458277Y-14323888D02*
X1448753Y-14285793D01*
X1448753Y-14285793D02*
X1448753Y-14238174D01*
X1448753Y-14238174D02*
X1458277Y-14200079D01*
X1458277Y-14200079D02*
X1467801Y-14181031D01*
X1467801Y-14181031D02*
X1477324Y-14171508D01*
X1477324Y-14171508D02*
X1496372Y-14161984D01*
X1648753Y-14342936D02*
X1658277Y-14352460D01*
X1658277Y-14352460D02*
X1648753Y-14361984D01*
X1648753Y-14361984D02*
X1639229Y-14352460D01*
X1639229Y-14352460D02*
X1648753Y-14342936D01*
X1648753Y-14342936D02*
X1648753Y-14361984D01*
X1772562Y-14247698D02*
X1753515Y-14238174D01*
X1753515Y-14238174D02*
X1743991Y-14228650D01*
X1743991Y-14228650D02*
X1734467Y-14209603D01*
X1734467Y-14209603D02*
X1734467Y-14200079D01*
X1734467Y-14200079D02*
X1743991Y-14181031D01*
X1743991Y-14181031D02*
X1753515Y-14171508D01*
X1753515Y-14171508D02*
X1772562Y-14161984D01*
X1772562Y-14161984D02*
X1810658Y-14161984D01*
X1810658Y-14161984D02*
X1829705Y-14171508D01*
X1829705Y-14171508D02*
X1839229Y-14181031D01*
X1839229Y-14181031D02*
X1848753Y-14200079D01*
X1848753Y-14200079D02*
X1848753Y-14209603D01*
X1848753Y-14209603D02*
X1839229Y-14228650D01*
X1839229Y-14228650D02*
X1829705Y-14238174D01*
X1829705Y-14238174D02*
X1810658Y-14247698D01*
X1810658Y-14247698D02*
X1772562Y-14247698D01*
X1772562Y-14247698D02*
X1753515Y-14257222D01*
X1753515Y-14257222D02*
X1743991Y-14266746D01*
X1743991Y-14266746D02*
X1734467Y-14285793D01*
X1734467Y-14285793D02*
X1734467Y-14323888D01*
X1734467Y-14323888D02*
X1743991Y-14342936D01*
X1743991Y-14342936D02*
X1753515Y-14352460D01*
X1753515Y-14352460D02*
X1772562Y-14361984D01*
X1772562Y-14361984D02*
X1810658Y-14361984D01*
X1810658Y-14361984D02*
X1829705Y-14352460D01*
X1829705Y-14352460D02*
X1839229Y-14342936D01*
X1839229Y-14342936D02*
X1848753Y-14323888D01*
X1848753Y-14323888D02*
X1848753Y-14285793D01*
X1848753Y-14285793D02*
X1839229Y-14266746D01*
X1839229Y-14266746D02*
X1829705Y-14257222D01*
X1829705Y-14257222D02*
X1810658Y-14247698D01*
X1924943Y-14181031D02*
X1934467Y-14171508D01*
X1934467Y-14171508D02*
X1953515Y-14161984D01*
X1953515Y-14161984D02*
X2001134Y-14161984D01*
X2001134Y-14161984D02*
X2020182Y-14171508D01*
X2020182Y-14171508D02*
X2029705Y-14181031D01*
X2029705Y-14181031D02*
X2039229Y-14200079D01*
X2039229Y-14200079D02*
X2039229Y-14219127D01*
X2039229Y-14219127D02*
X2029705Y-14247698D01*
X2029705Y-14247698D02*
X1915420Y-14361984D01*
X1915420Y-14361984D02*
X2039229Y-14361984D01*
X2163039Y-14161984D02*
X2182086Y-14161984D01*
X2182086Y-14161984D02*
X2201134Y-14171508D01*
X2201134Y-14171508D02*
X2210658Y-14181031D01*
X2210658Y-14181031D02*
X2220182Y-14200079D01*
X2220182Y-14200079D02*
X2229705Y-14238174D01*
X2229705Y-14238174D02*
X2229705Y-14285793D01*
X2229705Y-14285793D02*
X2220182Y-14323888D01*
X2220182Y-14323888D02*
X2210658Y-14342936D01*
X2210658Y-14342936D02*
X2201134Y-14352460D01*
X2201134Y-14352460D02*
X2182086Y-14361984D01*
X2182086Y-14361984D02*
X2163039Y-14361984D01*
X2163039Y-14361984D02*
X2143991Y-14352460D01*
X2143991Y-14352460D02*
X2134467Y-14342936D01*
X2134467Y-14342936D02*
X2124944Y-14323888D01*
X2124944Y-14323888D02*
X2115420Y-14285793D01*
X2115420Y-14285793D02*
X2115420Y-14238174D01*
X2115420Y-14238174D02*
X2124944Y-14200079D01*
X2124944Y-14200079D02*
X2134467Y-14181031D01*
X2134467Y-14181031D02*
X2143991Y-14171508D01*
X2143991Y-14171508D02*
X2163039Y-14161984D01*
X2315420Y-14361984D02*
X2315420Y-14228650D01*
X2315420Y-14247698D02*
X2324944Y-14238174D01*
X2324944Y-14238174D02*
X2343991Y-14228650D01*
X2343991Y-14228650D02*
X2372563Y-14228650D01*
X2372563Y-14228650D02*
X2391610Y-14238174D01*
X2391610Y-14238174D02*
X2401134Y-14257222D01*
X2401134Y-14257222D02*
X2401134Y-14361984D01*
X2401134Y-14257222D02*
X2410658Y-14238174D01*
X2410658Y-14238174D02*
X2429705Y-14228650D01*
X2429705Y-14228650D02*
X2458277Y-14228650D01*
X2458277Y-14228650D02*
X2477325Y-14238174D01*
X2477325Y-14238174D02*
X2486848Y-14257222D01*
X2486848Y-14257222D02*
X2486848Y-14361984D01*
X2582086Y-14361984D02*
X2582086Y-14228650D01*
X2582086Y-14247698D02*
X2591610Y-14238174D01*
X2591610Y-14238174D02*
X2610658Y-14228650D01*
X2610658Y-14228650D02*
X2639229Y-14228650D01*
X2639229Y-14228650D02*
X2658277Y-14238174D01*
X2658277Y-14238174D02*
X2667801Y-14257222D01*
X2667801Y-14257222D02*
X2667801Y-14361984D01*
X2667801Y-14257222D02*
X2677325Y-14238174D01*
X2677325Y-14238174D02*
X2696372Y-14228650D01*
X2696372Y-14228650D02*
X2724944Y-14228650D01*
X2724944Y-14228650D02*
X2743991Y-14238174D01*
X2743991Y-14238174D02*
X2753515Y-14257222D01*
X2753515Y-14257222D02*
X2753515Y-14361984D01*
X3143991Y-14152460D02*
X2972563Y-14409603D01*
X3401134Y-14161984D02*
X3420182Y-14161984D01*
X3420182Y-14161984D02*
X3439229Y-14171508D01*
X3439229Y-14171508D02*
X3448753Y-14181031D01*
X3448753Y-14181031D02*
X3458277Y-14200079D01*
X3458277Y-14200079D02*
X3467801Y-14238174D01*
X3467801Y-14238174D02*
X3467801Y-14285793D01*
X3467801Y-14285793D02*
X3458277Y-14323888D01*
X3458277Y-14323888D02*
X3448753Y-14342936D01*
X3448753Y-14342936D02*
X3439229Y-14352460D01*
X3439229Y-14352460D02*
X3420182Y-14361984D01*
X3420182Y-14361984D02*
X3401134Y-14361984D01*
X3401134Y-14361984D02*
X3382086Y-14352460D01*
X3382086Y-14352460D02*
X3372563Y-14342936D01*
X3372563Y-14342936D02*
X3363039Y-14323888D01*
X3363039Y-14323888D02*
X3353515Y-14285793D01*
X3353515Y-14285793D02*
X3353515Y-14238174D01*
X3353515Y-14238174D02*
X3363039Y-14200079D01*
X3363039Y-14200079D02*
X3372563Y-14181031D01*
X3372563Y-14181031D02*
X3382086Y-14171508D01*
X3382086Y-14171508D02*
X3401134Y-14161984D01*
X3553515Y-14342936D02*
X3563039Y-14352460D01*
X3563039Y-14352460D02*
X3553515Y-14361984D01*
X3553515Y-14361984D02*
X3543991Y-14352460D01*
X3543991Y-14352460D02*
X3553515Y-14342936D01*
X3553515Y-14342936D02*
X3553515Y-14361984D01*
X3686848Y-14161984D02*
X3705896Y-14161984D01*
X3705896Y-14161984D02*
X3724944Y-14171508D01*
X3724944Y-14171508D02*
X3734467Y-14181031D01*
X3734467Y-14181031D02*
X3743991Y-14200079D01*
X3743991Y-14200079D02*
X3753515Y-14238174D01*
X3753515Y-14238174D02*
X3753515Y-14285793D01*
X3753515Y-14285793D02*
X3743991Y-14323888D01*
X3743991Y-14323888D02*
X3734467Y-14342936D01*
X3734467Y-14342936D02*
X3724944Y-14352460D01*
X3724944Y-14352460D02*
X3705896Y-14361984D01*
X3705896Y-14361984D02*
X3686848Y-14361984D01*
X3686848Y-14361984D02*
X3667801Y-14352460D01*
X3667801Y-14352460D02*
X3658277Y-14342936D01*
X3658277Y-14342936D02*
X3648753Y-14323888D01*
X3648753Y-14323888D02*
X3639229Y-14285793D01*
X3639229Y-14285793D02*
X3639229Y-14238174D01*
X3639229Y-14238174D02*
X3648753Y-14200079D01*
X3648753Y-14200079D02*
X3658277Y-14181031D01*
X3658277Y-14181031D02*
X3667801Y-14171508D01*
X3667801Y-14171508D02*
X3686848Y-14161984D01*
X3820182Y-14161984D02*
X3943991Y-14161984D01*
X3943991Y-14161984D02*
X3877325Y-14238174D01*
X3877325Y-14238174D02*
X3905896Y-14238174D01*
X3905896Y-14238174D02*
X3924944Y-14247698D01*
X3924944Y-14247698D02*
X3934467Y-14257222D01*
X3934467Y-14257222D02*
X3943991Y-14276269D01*
X3943991Y-14276269D02*
X3943991Y-14323888D01*
X3943991Y-14323888D02*
X3934467Y-14342936D01*
X3934467Y-14342936D02*
X3924944Y-14352460D01*
X3924944Y-14352460D02*
X3905896Y-14361984D01*
X3905896Y-14361984D02*
X3848753Y-14361984D01*
X3848753Y-14361984D02*
X3829706Y-14352460D01*
X3829706Y-14352460D02*
X3820182Y-14342936D01*
X4020182Y-14181031D02*
X4029706Y-14171508D01*
X4029706Y-14171508D02*
X4048753Y-14161984D01*
X4048753Y-14161984D02*
X4096372Y-14161984D01*
X4096372Y-14161984D02*
X4115420Y-14171508D01*
X4115420Y-14171508D02*
X4124944Y-14181031D01*
X4124944Y-14181031D02*
X4134467Y-14200079D01*
X4134467Y-14200079D02*
X4134467Y-14219127D01*
X4134467Y-14219127D02*
X4124944Y-14247698D01*
X4124944Y-14247698D02*
X4010658Y-14361984D01*
X4010658Y-14361984D02*
X4134467Y-14361984D01*
X4201134Y-14161984D02*
X4324944Y-14161984D01*
X4324944Y-14161984D02*
X4258277Y-14238174D01*
X4258277Y-14238174D02*
X4286849Y-14238174D01*
X4286849Y-14238174D02*
X4305896Y-14247698D01*
X4305896Y-14247698D02*
X4315420Y-14257222D01*
X4315420Y-14257222D02*
X4324944Y-14276269D01*
X4324944Y-14276269D02*
X4324944Y-14323888D01*
X4324944Y-14323888D02*
X4315420Y-14342936D01*
X4315420Y-14342936D02*
X4305896Y-14352460D01*
X4305896Y-14352460D02*
X4286849Y-14361984D01*
X4286849Y-14361984D02*
X4229706Y-14361984D01*
X4229706Y-14361984D02*
X4210658Y-14352460D01*
X4210658Y-14352460D02*
X4201134Y-14342936D01*
X4401134Y-14161984D02*
X4401134Y-14200079D01*
X4477325Y-14161984D02*
X4477325Y-14200079D01*
X4772563Y-14438174D02*
X4763039Y-14428650D01*
X4763039Y-14428650D02*
X4743991Y-14400079D01*
X4743991Y-14400079D02*
X4734468Y-14381031D01*
X4734468Y-14381031D02*
X4724944Y-14352460D01*
X4724944Y-14352460D02*
X4715420Y-14304841D01*
X4715420Y-14304841D02*
X4715420Y-14266746D01*
X4715420Y-14266746D02*
X4724944Y-14219127D01*
X4724944Y-14219127D02*
X4734468Y-14190555D01*
X4734468Y-14190555D02*
X4743991Y-14171508D01*
X4743991Y-14171508D02*
X4763039Y-14142936D01*
X4763039Y-14142936D02*
X4772563Y-14133412D01*
X4839230Y-14181031D02*
X4848753Y-14171508D01*
X4848753Y-14171508D02*
X4867801Y-14161984D01*
X4867801Y-14161984D02*
X4915420Y-14161984D01*
X4915420Y-14161984D02*
X4934468Y-14171508D01*
X4934468Y-14171508D02*
X4943991Y-14181031D01*
X4943991Y-14181031D02*
X4953515Y-14200079D01*
X4953515Y-14200079D02*
X4953515Y-14219127D01*
X4953515Y-14219127D02*
X4943991Y-14247698D01*
X4943991Y-14247698D02*
X4829706Y-14361984D01*
X4829706Y-14361984D02*
X4953515Y-14361984D01*
X5067801Y-14247698D02*
X5048753Y-14238174D01*
X5048753Y-14238174D02*
X5039230Y-14228650D01*
X5039230Y-14228650D02*
X5029706Y-14209603D01*
X5029706Y-14209603D02*
X5029706Y-14200079D01*
X5029706Y-14200079D02*
X5039230Y-14181031D01*
X5039230Y-14181031D02*
X5048753Y-14171508D01*
X5048753Y-14171508D02*
X5067801Y-14161984D01*
X5067801Y-14161984D02*
X5105896Y-14161984D01*
X5105896Y-14161984D02*
X5124944Y-14171508D01*
X5124944Y-14171508D02*
X5134468Y-14181031D01*
X5134468Y-14181031D02*
X5143991Y-14200079D01*
X5143991Y-14200079D02*
X5143991Y-14209603D01*
X5143991Y-14209603D02*
X5134468Y-14228650D01*
X5134468Y-14228650D02*
X5124944Y-14238174D01*
X5124944Y-14238174D02*
X5105896Y-14247698D01*
X5105896Y-14247698D02*
X5067801Y-14247698D01*
X5067801Y-14247698D02*
X5048753Y-14257222D01*
X5048753Y-14257222D02*
X5039230Y-14266746D01*
X5039230Y-14266746D02*
X5029706Y-14285793D01*
X5029706Y-14285793D02*
X5029706Y-14323888D01*
X5029706Y-14323888D02*
X5039230Y-14342936D01*
X5039230Y-14342936D02*
X5048753Y-14352460D01*
X5048753Y-14352460D02*
X5067801Y-14361984D01*
X5067801Y-14361984D02*
X5105896Y-14361984D01*
X5105896Y-14361984D02*
X5124944Y-14352460D01*
X5124944Y-14352460D02*
X5134468Y-14342936D01*
X5134468Y-14342936D02*
X5143991Y-14323888D01*
X5143991Y-14323888D02*
X5143991Y-14285793D01*
X5143991Y-14285793D02*
X5134468Y-14266746D01*
X5134468Y-14266746D02*
X5124944Y-14257222D01*
X5124944Y-14257222D02*
X5105896Y-14247698D01*
X5382087Y-14361984D02*
X5382087Y-14161984D01*
X5467801Y-14361984D02*
X5467801Y-14257222D01*
X5467801Y-14257222D02*
X5458277Y-14238174D01*
X5458277Y-14238174D02*
X5439230Y-14228650D01*
X5439230Y-14228650D02*
X5410658Y-14228650D01*
X5410658Y-14228650D02*
X5391611Y-14238174D01*
X5391611Y-14238174D02*
X5382087Y-14247698D01*
X5591611Y-14361984D02*
X5572563Y-14352460D01*
X5572563Y-14352460D02*
X5563039Y-14342936D01*
X5563039Y-14342936D02*
X5553515Y-14323888D01*
X5553515Y-14323888D02*
X5553515Y-14266746D01*
X5553515Y-14266746D02*
X5563039Y-14247698D01*
X5563039Y-14247698D02*
X5572563Y-14238174D01*
X5572563Y-14238174D02*
X5591611Y-14228650D01*
X5591611Y-14228650D02*
X5620182Y-14228650D01*
X5620182Y-14228650D02*
X5639230Y-14238174D01*
X5639230Y-14238174D02*
X5648753Y-14247698D01*
X5648753Y-14247698D02*
X5658277Y-14266746D01*
X5658277Y-14266746D02*
X5658277Y-14323888D01*
X5658277Y-14323888D02*
X5648753Y-14342936D01*
X5648753Y-14342936D02*
X5639230Y-14352460D01*
X5639230Y-14352460D02*
X5620182Y-14361984D01*
X5620182Y-14361984D02*
X5591611Y-14361984D01*
X5772563Y-14361984D02*
X5753515Y-14352460D01*
X5753515Y-14352460D02*
X5743991Y-14333412D01*
X5743991Y-14333412D02*
X5743991Y-14161984D01*
X5924944Y-14352460D02*
X5905896Y-14361984D01*
X5905896Y-14361984D02*
X5867801Y-14361984D01*
X5867801Y-14361984D02*
X5848753Y-14352460D01*
X5848753Y-14352460D02*
X5839230Y-14333412D01*
X5839230Y-14333412D02*
X5839230Y-14257222D01*
X5839230Y-14257222D02*
X5848753Y-14238174D01*
X5848753Y-14238174D02*
X5867801Y-14228650D01*
X5867801Y-14228650D02*
X5905896Y-14228650D01*
X5905896Y-14228650D02*
X5924944Y-14238174D01*
X5924944Y-14238174D02*
X5934468Y-14257222D01*
X5934468Y-14257222D02*
X5934468Y-14276269D01*
X5934468Y-14276269D02*
X5839230Y-14295317D01*
X6010658Y-14352460D02*
X6029706Y-14361984D01*
X6029706Y-14361984D02*
X6067801Y-14361984D01*
X6067801Y-14361984D02*
X6086849Y-14352460D01*
X6086849Y-14352460D02*
X6096372Y-14333412D01*
X6096372Y-14333412D02*
X6096372Y-14323888D01*
X6096372Y-14323888D02*
X6086849Y-14304841D01*
X6086849Y-14304841D02*
X6067801Y-14295317D01*
X6067801Y-14295317D02*
X6039230Y-14295317D01*
X6039230Y-14295317D02*
X6020182Y-14285793D01*
X6020182Y-14285793D02*
X6010658Y-14266746D01*
X6010658Y-14266746D02*
X6010658Y-14257222D01*
X6010658Y-14257222D02*
X6020182Y-14238174D01*
X6020182Y-14238174D02*
X6039230Y-14228650D01*
X6039230Y-14228650D02*
X6067801Y-14228650D01*
X6067801Y-14228650D02*
X6086849Y-14238174D01*
X6163039Y-14438174D02*
X6172563Y-14428650D01*
X6172563Y-14428650D02*
X6191611Y-14400079D01*
X6191611Y-14400079D02*
X6201134Y-14381031D01*
X6201134Y-14381031D02*
X6210658Y-14352460D01*
X6210658Y-14352460D02*
X6220182Y-14304841D01*
X6220182Y-14304841D02*
X6220182Y-14266746D01*
X6220182Y-14266746D02*
X6210658Y-14219127D01*
X6210658Y-14219127D02*
X6201134Y-14190555D01*
X6201134Y-14190555D02*
X6191611Y-14171508D01*
X6191611Y-14171508D02*
X6172563Y-14142936D01*
X6172563Y-14142936D02*
X6163039Y-14133412D01*
X1168211Y-14605211D02*
X1168211Y-14463789D01*
X1026789Y-14463789D01*
X1026789Y-14605211D01*
X1168211Y-14605211D01*
X1448753Y-14445031D02*
X1458277Y-14435508D01*
X1458277Y-14435508D02*
X1477324Y-14425984D01*
X1477324Y-14425984D02*
X1524943Y-14425984D01*
X1524943Y-14425984D02*
X1543991Y-14435508D01*
X1543991Y-14435508D02*
X1553515Y-14445031D01*
X1553515Y-14445031D02*
X1563039Y-14464079D01*
X1563039Y-14464079D02*
X1563039Y-14483127D01*
X1563039Y-14483127D02*
X1553515Y-14511698D01*
X1553515Y-14511698D02*
X1439229Y-14625984D01*
X1439229Y-14625984D02*
X1563039Y-14625984D01*
X1648753Y-14606936D02*
X1658277Y-14616460D01*
X1658277Y-14616460D02*
X1648753Y-14625984D01*
X1648753Y-14625984D02*
X1639229Y-14616460D01*
X1639229Y-14616460D02*
X1648753Y-14606936D01*
X1648753Y-14606936D02*
X1648753Y-14625984D01*
X1839229Y-14425984D02*
X1743991Y-14425984D01*
X1743991Y-14425984D02*
X1734467Y-14521222D01*
X1734467Y-14521222D02*
X1743991Y-14511698D01*
X1743991Y-14511698D02*
X1763039Y-14502174D01*
X1763039Y-14502174D02*
X1810658Y-14502174D01*
X1810658Y-14502174D02*
X1829705Y-14511698D01*
X1829705Y-14511698D02*
X1839229Y-14521222D01*
X1839229Y-14521222D02*
X1848753Y-14540269D01*
X1848753Y-14540269D02*
X1848753Y-14587888D01*
X1848753Y-14587888D02*
X1839229Y-14606936D01*
X1839229Y-14606936D02*
X1829705Y-14616460D01*
X1829705Y-14616460D02*
X1810658Y-14625984D01*
X1810658Y-14625984D02*
X1763039Y-14625984D01*
X1763039Y-14625984D02*
X1743991Y-14616460D01*
X1743991Y-14616460D02*
X1734467Y-14606936D01*
X1972562Y-14425984D02*
X1991610Y-14425984D01*
X1991610Y-14425984D02*
X2010658Y-14435508D01*
X2010658Y-14435508D02*
X2020182Y-14445031D01*
X2020182Y-14445031D02*
X2029705Y-14464079D01*
X2029705Y-14464079D02*
X2039229Y-14502174D01*
X2039229Y-14502174D02*
X2039229Y-14549793D01*
X2039229Y-14549793D02*
X2029705Y-14587888D01*
X2029705Y-14587888D02*
X2020182Y-14606936D01*
X2020182Y-14606936D02*
X2010658Y-14616460D01*
X2010658Y-14616460D02*
X1991610Y-14625984D01*
X1991610Y-14625984D02*
X1972562Y-14625984D01*
X1972562Y-14625984D02*
X1953515Y-14616460D01*
X1953515Y-14616460D02*
X1943991Y-14606936D01*
X1943991Y-14606936D02*
X1934467Y-14587888D01*
X1934467Y-14587888D02*
X1924943Y-14549793D01*
X1924943Y-14549793D02*
X1924943Y-14502174D01*
X1924943Y-14502174D02*
X1934467Y-14464079D01*
X1934467Y-14464079D02*
X1943991Y-14445031D01*
X1943991Y-14445031D02*
X1953515Y-14435508D01*
X1953515Y-14435508D02*
X1972562Y-14425984D01*
X2163039Y-14425984D02*
X2182086Y-14425984D01*
X2182086Y-14425984D02*
X2201134Y-14435508D01*
X2201134Y-14435508D02*
X2210658Y-14445031D01*
X2210658Y-14445031D02*
X2220182Y-14464079D01*
X2220182Y-14464079D02*
X2229705Y-14502174D01*
X2229705Y-14502174D02*
X2229705Y-14549793D01*
X2229705Y-14549793D02*
X2220182Y-14587888D01*
X2220182Y-14587888D02*
X2210658Y-14606936D01*
X2210658Y-14606936D02*
X2201134Y-14616460D01*
X2201134Y-14616460D02*
X2182086Y-14625984D01*
X2182086Y-14625984D02*
X2163039Y-14625984D01*
X2163039Y-14625984D02*
X2143991Y-14616460D01*
X2143991Y-14616460D02*
X2134467Y-14606936D01*
X2134467Y-14606936D02*
X2124944Y-14587888D01*
X2124944Y-14587888D02*
X2115420Y-14549793D01*
X2115420Y-14549793D02*
X2115420Y-14502174D01*
X2115420Y-14502174D02*
X2124944Y-14464079D01*
X2124944Y-14464079D02*
X2134467Y-14445031D01*
X2134467Y-14445031D02*
X2143991Y-14435508D01*
X2143991Y-14435508D02*
X2163039Y-14425984D01*
X2315420Y-14625984D02*
X2315420Y-14492650D01*
X2315420Y-14511698D02*
X2324944Y-14502174D01*
X2324944Y-14502174D02*
X2343991Y-14492650D01*
X2343991Y-14492650D02*
X2372563Y-14492650D01*
X2372563Y-14492650D02*
X2391610Y-14502174D01*
X2391610Y-14502174D02*
X2401134Y-14521222D01*
X2401134Y-14521222D02*
X2401134Y-14625984D01*
X2401134Y-14521222D02*
X2410658Y-14502174D01*
X2410658Y-14502174D02*
X2429705Y-14492650D01*
X2429705Y-14492650D02*
X2458277Y-14492650D01*
X2458277Y-14492650D02*
X2477325Y-14502174D01*
X2477325Y-14502174D02*
X2486848Y-14521222D01*
X2486848Y-14521222D02*
X2486848Y-14625984D01*
X2582086Y-14625984D02*
X2582086Y-14492650D01*
X2582086Y-14511698D02*
X2591610Y-14502174D01*
X2591610Y-14502174D02*
X2610658Y-14492650D01*
X2610658Y-14492650D02*
X2639229Y-14492650D01*
X2639229Y-14492650D02*
X2658277Y-14502174D01*
X2658277Y-14502174D02*
X2667801Y-14521222D01*
X2667801Y-14521222D02*
X2667801Y-14625984D01*
X2667801Y-14521222D02*
X2677325Y-14502174D01*
X2677325Y-14502174D02*
X2696372Y-14492650D01*
X2696372Y-14492650D02*
X2724944Y-14492650D01*
X2724944Y-14492650D02*
X2743991Y-14502174D01*
X2743991Y-14502174D02*
X2753515Y-14521222D01*
X2753515Y-14521222D02*
X2753515Y-14625984D01*
X3143991Y-14416460D02*
X2972563Y-14673603D01*
X3401134Y-14425984D02*
X3420182Y-14425984D01*
X3420182Y-14425984D02*
X3439229Y-14435508D01*
X3439229Y-14435508D02*
X3448753Y-14445031D01*
X3448753Y-14445031D02*
X3458277Y-14464079D01*
X3458277Y-14464079D02*
X3467801Y-14502174D01*
X3467801Y-14502174D02*
X3467801Y-14549793D01*
X3467801Y-14549793D02*
X3458277Y-14587888D01*
X3458277Y-14587888D02*
X3448753Y-14606936D01*
X3448753Y-14606936D02*
X3439229Y-14616460D01*
X3439229Y-14616460D02*
X3420182Y-14625984D01*
X3420182Y-14625984D02*
X3401134Y-14625984D01*
X3401134Y-14625984D02*
X3382086Y-14616460D01*
X3382086Y-14616460D02*
X3372563Y-14606936D01*
X3372563Y-14606936D02*
X3363039Y-14587888D01*
X3363039Y-14587888D02*
X3353515Y-14549793D01*
X3353515Y-14549793D02*
X3353515Y-14502174D01*
X3353515Y-14502174D02*
X3363039Y-14464079D01*
X3363039Y-14464079D02*
X3372563Y-14445031D01*
X3372563Y-14445031D02*
X3382086Y-14435508D01*
X3382086Y-14435508D02*
X3401134Y-14425984D01*
X3553515Y-14606936D02*
X3563039Y-14616460D01*
X3563039Y-14616460D02*
X3553515Y-14625984D01*
X3553515Y-14625984D02*
X3543991Y-14616460D01*
X3543991Y-14616460D02*
X3553515Y-14606936D01*
X3553515Y-14606936D02*
X3553515Y-14625984D01*
X3686848Y-14425984D02*
X3705896Y-14425984D01*
X3705896Y-14425984D02*
X3724944Y-14435508D01*
X3724944Y-14435508D02*
X3734467Y-14445031D01*
X3734467Y-14445031D02*
X3743991Y-14464079D01*
X3743991Y-14464079D02*
X3753515Y-14502174D01*
X3753515Y-14502174D02*
X3753515Y-14549793D01*
X3753515Y-14549793D02*
X3743991Y-14587888D01*
X3743991Y-14587888D02*
X3734467Y-14606936D01*
X3734467Y-14606936D02*
X3724944Y-14616460D01*
X3724944Y-14616460D02*
X3705896Y-14625984D01*
X3705896Y-14625984D02*
X3686848Y-14625984D01*
X3686848Y-14625984D02*
X3667801Y-14616460D01*
X3667801Y-14616460D02*
X3658277Y-14606936D01*
X3658277Y-14606936D02*
X3648753Y-14587888D01*
X3648753Y-14587888D02*
X3639229Y-14549793D01*
X3639229Y-14549793D02*
X3639229Y-14502174D01*
X3639229Y-14502174D02*
X3648753Y-14464079D01*
X3648753Y-14464079D02*
X3658277Y-14445031D01*
X3658277Y-14445031D02*
X3667801Y-14435508D01*
X3667801Y-14435508D02*
X3686848Y-14425984D01*
X3848753Y-14625984D02*
X3886848Y-14625984D01*
X3886848Y-14625984D02*
X3905896Y-14616460D01*
X3905896Y-14616460D02*
X3915420Y-14606936D01*
X3915420Y-14606936D02*
X3934467Y-14578365D01*
X3934467Y-14578365D02*
X3943991Y-14540269D01*
X3943991Y-14540269D02*
X3943991Y-14464079D01*
X3943991Y-14464079D02*
X3934467Y-14445031D01*
X3934467Y-14445031D02*
X3924944Y-14435508D01*
X3924944Y-14435508D02*
X3905896Y-14425984D01*
X3905896Y-14425984D02*
X3867801Y-14425984D01*
X3867801Y-14425984D02*
X3848753Y-14435508D01*
X3848753Y-14435508D02*
X3839229Y-14445031D01*
X3839229Y-14445031D02*
X3829706Y-14464079D01*
X3829706Y-14464079D02*
X3829706Y-14511698D01*
X3829706Y-14511698D02*
X3839229Y-14530746D01*
X3839229Y-14530746D02*
X3848753Y-14540269D01*
X3848753Y-14540269D02*
X3867801Y-14549793D01*
X3867801Y-14549793D02*
X3905896Y-14549793D01*
X3905896Y-14549793D02*
X3924944Y-14540269D01*
X3924944Y-14540269D02*
X3934467Y-14530746D01*
X3934467Y-14530746D02*
X3943991Y-14511698D01*
X4058277Y-14511698D02*
X4039229Y-14502174D01*
X4039229Y-14502174D02*
X4029706Y-14492650D01*
X4029706Y-14492650D02*
X4020182Y-14473603D01*
X4020182Y-14473603D02*
X4020182Y-14464079D01*
X4020182Y-14464079D02*
X4029706Y-14445031D01*
X4029706Y-14445031D02*
X4039229Y-14435508D01*
X4039229Y-14435508D02*
X4058277Y-14425984D01*
X4058277Y-14425984D02*
X4096372Y-14425984D01*
X4096372Y-14425984D02*
X4115420Y-14435508D01*
X4115420Y-14435508D02*
X4124944Y-14445031D01*
X4124944Y-14445031D02*
X4134467Y-14464079D01*
X4134467Y-14464079D02*
X4134467Y-14473603D01*
X4134467Y-14473603D02*
X4124944Y-14492650D01*
X4124944Y-14492650D02*
X4115420Y-14502174D01*
X4115420Y-14502174D02*
X4096372Y-14511698D01*
X4096372Y-14511698D02*
X4058277Y-14511698D01*
X4058277Y-14511698D02*
X4039229Y-14521222D01*
X4039229Y-14521222D02*
X4029706Y-14530746D01*
X4029706Y-14530746D02*
X4020182Y-14549793D01*
X4020182Y-14549793D02*
X4020182Y-14587888D01*
X4020182Y-14587888D02*
X4029706Y-14606936D01*
X4029706Y-14606936D02*
X4039229Y-14616460D01*
X4039229Y-14616460D02*
X4058277Y-14625984D01*
X4058277Y-14625984D02*
X4096372Y-14625984D01*
X4096372Y-14625984D02*
X4115420Y-14616460D01*
X4115420Y-14616460D02*
X4124944Y-14606936D01*
X4124944Y-14606936D02*
X4134467Y-14587888D01*
X4134467Y-14587888D02*
X4134467Y-14549793D01*
X4134467Y-14549793D02*
X4124944Y-14530746D01*
X4124944Y-14530746D02*
X4115420Y-14521222D01*
X4115420Y-14521222D02*
X4096372Y-14511698D01*
X4305896Y-14492650D02*
X4305896Y-14625984D01*
X4258277Y-14416460D02*
X4210658Y-14559317D01*
X4210658Y-14559317D02*
X4334468Y-14559317D01*
X4401134Y-14425984D02*
X4401134Y-14464079D01*
X4477325Y-14425984D02*
X4477325Y-14464079D01*
X4772563Y-14702174D02*
X4763039Y-14692650D01*
X4763039Y-14692650D02*
X4743991Y-14664079D01*
X4743991Y-14664079D02*
X4734468Y-14645031D01*
X4734468Y-14645031D02*
X4724944Y-14616460D01*
X4724944Y-14616460D02*
X4715420Y-14568841D01*
X4715420Y-14568841D02*
X4715420Y-14530746D01*
X4715420Y-14530746D02*
X4724944Y-14483127D01*
X4724944Y-14483127D02*
X4734468Y-14454555D01*
X4734468Y-14454555D02*
X4743991Y-14435508D01*
X4743991Y-14435508D02*
X4763039Y-14406936D01*
X4763039Y-14406936D02*
X4772563Y-14397412D01*
X4839230Y-14445031D02*
X4848753Y-14435508D01*
X4848753Y-14435508D02*
X4867801Y-14425984D01*
X4867801Y-14425984D02*
X4915420Y-14425984D01*
X4915420Y-14425984D02*
X4934468Y-14435508D01*
X4934468Y-14435508D02*
X4943991Y-14445031D01*
X4943991Y-14445031D02*
X4953515Y-14464079D01*
X4953515Y-14464079D02*
X4953515Y-14483127D01*
X4953515Y-14483127D02*
X4943991Y-14511698D01*
X4943991Y-14511698D02*
X4829706Y-14625984D01*
X4829706Y-14625984D02*
X4953515Y-14625984D01*
X5191611Y-14625984D02*
X5191611Y-14425984D01*
X5277325Y-14625984D02*
X5277325Y-14521222D01*
X5277325Y-14521222D02*
X5267801Y-14502174D01*
X5267801Y-14502174D02*
X5248753Y-14492650D01*
X5248753Y-14492650D02*
X5220182Y-14492650D01*
X5220182Y-14492650D02*
X5201134Y-14502174D01*
X5201134Y-14502174D02*
X5191611Y-14511698D01*
X5401134Y-14625984D02*
X5382087Y-14616460D01*
X5382087Y-14616460D02*
X5372563Y-14606936D01*
X5372563Y-14606936D02*
X5363039Y-14587888D01*
X5363039Y-14587888D02*
X5363039Y-14530746D01*
X5363039Y-14530746D02*
X5372563Y-14511698D01*
X5372563Y-14511698D02*
X5382087Y-14502174D01*
X5382087Y-14502174D02*
X5401134Y-14492650D01*
X5401134Y-14492650D02*
X5429706Y-14492650D01*
X5429706Y-14492650D02*
X5448753Y-14502174D01*
X5448753Y-14502174D02*
X5458277Y-14511698D01*
X5458277Y-14511698D02*
X5467801Y-14530746D01*
X5467801Y-14530746D02*
X5467801Y-14587888D01*
X5467801Y-14587888D02*
X5458277Y-14606936D01*
X5458277Y-14606936D02*
X5448753Y-14616460D01*
X5448753Y-14616460D02*
X5429706Y-14625984D01*
X5429706Y-14625984D02*
X5401134Y-14625984D01*
X5582087Y-14625984D02*
X5563039Y-14616460D01*
X5563039Y-14616460D02*
X5553515Y-14597412D01*
X5553515Y-14597412D02*
X5553515Y-14425984D01*
X5734468Y-14616460D02*
X5715420Y-14625984D01*
X5715420Y-14625984D02*
X5677325Y-14625984D01*
X5677325Y-14625984D02*
X5658277Y-14616460D01*
X5658277Y-14616460D02*
X5648753Y-14597412D01*
X5648753Y-14597412D02*
X5648753Y-14521222D01*
X5648753Y-14521222D02*
X5658277Y-14502174D01*
X5658277Y-14502174D02*
X5677325Y-14492650D01*
X5677325Y-14492650D02*
X5715420Y-14492650D01*
X5715420Y-14492650D02*
X5734468Y-14502174D01*
X5734468Y-14502174D02*
X5743991Y-14521222D01*
X5743991Y-14521222D02*
X5743991Y-14540269D01*
X5743991Y-14540269D02*
X5648753Y-14559317D01*
X5820182Y-14616460D02*
X5839230Y-14625984D01*
X5839230Y-14625984D02*
X5877325Y-14625984D01*
X5877325Y-14625984D02*
X5896372Y-14616460D01*
X5896372Y-14616460D02*
X5905896Y-14597412D01*
X5905896Y-14597412D02*
X5905896Y-14587888D01*
X5905896Y-14587888D02*
X5896372Y-14568841D01*
X5896372Y-14568841D02*
X5877325Y-14559317D01*
X5877325Y-14559317D02*
X5848753Y-14559317D01*
X5848753Y-14559317D02*
X5829706Y-14549793D01*
X5829706Y-14549793D02*
X5820182Y-14530746D01*
X5820182Y-14530746D02*
X5820182Y-14521222D01*
X5820182Y-14521222D02*
X5829706Y-14502174D01*
X5829706Y-14502174D02*
X5848753Y-14492650D01*
X5848753Y-14492650D02*
X5877325Y-14492650D01*
X5877325Y-14492650D02*
X5896372Y-14502174D01*
X5972563Y-14702174D02*
X5982087Y-14692650D01*
X5982087Y-14692650D02*
X6001134Y-14664079D01*
X6001134Y-14664079D02*
X6010658Y-14645031D01*
X6010658Y-14645031D02*
X6020182Y-14616460D01*
X6020182Y-14616460D02*
X6029706Y-14568841D01*
X6029706Y-14568841D02*
X6029706Y-14530746D01*
X6029706Y-14530746D02*
X6020182Y-14483127D01*
X6020182Y-14483127D02*
X6010658Y-14454555D01*
X6010658Y-14454555D02*
X6001134Y-14435508D01*
X6001134Y-14435508D02*
X5982087Y-14406936D01*
X5982087Y-14406936D02*
X5972563Y-14397412D01*
M02*
