%TF.GenerationSoftware,KiCad,Pcbnew,9.0.6*%
%TF.CreationDate,2026-03-25T18:17:54+08:00*%
%TF.ProjectId,ZBoard V1,5a426f61-7264-4205-9631-2e6b69636164,rev?*%
%TF.SameCoordinates,Original*%
%TF.FileFunction,Drillmap*%
%TF.FilePolarity,Positive*%
%FSLAX45Y45*%
G04 Gerber Fmt 4.5, Leading zero omitted, Abs format (unit mm)*
G04 Created by KiCad (PCBNEW 9.0.6) date 2026-03-25 18:17:54*
%MOMM*%
%LPD*%
G01*
G04 APERTURE LIST*
%ADD10C,0.050000*%
%ADD11C,0.200000*%
%ADD12C,0.300000*%
%ADD13C,0.510000*%
G04 APERTURE END LIST*
D10*
X1200000Y-1200000D02*
X34500000Y-1200000D01*
X34500000Y-13100000D01*
X1200000Y-13100000D01*
X1200000Y-1200000D01*
D11*
D12*
X1791250Y-2701250D02*
X2091250Y-3001250D01*
X2091250Y-2701250D02*
X1791250Y-3001250D01*
X1791250Y-4606250D02*
X2091250Y-4906250D01*
X2091250Y-4606250D02*
X1791250Y-4906250D01*
X2029375Y-12226250D02*
X2329375Y-12526250D01*
X2329375Y-12226250D02*
X2029375Y-12526250D01*
X2267500Y-6511250D02*
X2567500Y-6811250D01*
X2567500Y-6511250D02*
X2267500Y-6811250D01*
X2491250Y-2806250D02*
X2791250Y-3106250D01*
X2791250Y-2806250D02*
X2491250Y-3106250D01*
X2491250Y-4711250D02*
X2791250Y-5011250D01*
X2791250Y-4711250D02*
X2491250Y-5011250D01*
X2505625Y-8416250D02*
X2805625Y-8716250D01*
X2805625Y-8416250D02*
X2505625Y-8716250D01*
X2729375Y-12331250D02*
X3029375Y-12631250D01*
X3029375Y-12331250D02*
X2729375Y-12631250D01*
X2967500Y-6616250D02*
X3267500Y-6916250D01*
X3267500Y-6616250D02*
X2967500Y-6916250D01*
X2981875Y-10321250D02*
X3281875Y-10621250D01*
X3281875Y-10321250D02*
X2981875Y-10621250D01*
X3205625Y-8521250D02*
X3505625Y-8821250D01*
X3505625Y-8521250D02*
X3205625Y-8821250D01*
X3681875Y-10426250D02*
X3981875Y-10726250D01*
X3981875Y-10426250D02*
X3681875Y-10726250D01*
X3696250Y-2701250D02*
X3996250Y-3001250D01*
X3996250Y-2701250D02*
X3696250Y-3001250D01*
X3696250Y-4606250D02*
X3996250Y-4906250D01*
X3996250Y-4606250D02*
X3696250Y-4906250D01*
X4396250Y-2806250D02*
X4696250Y-3106250D01*
X4696250Y-2806250D02*
X4396250Y-3106250D01*
X4396250Y-4711250D02*
X4696250Y-5011250D01*
X4696250Y-4711250D02*
X4396250Y-5011250D01*
X4410625Y-12226250D02*
X4710625Y-12526250D01*
X4710625Y-12226250D02*
X4410625Y-12526250D01*
X4648750Y-6511250D02*
X4948750Y-6811250D01*
X4948750Y-6511250D02*
X4648750Y-6811250D01*
X5110625Y-12331250D02*
X5410625Y-12631250D01*
X5410625Y-12331250D02*
X5110625Y-12631250D01*
X5125000Y-8416250D02*
X5425000Y-8716250D01*
X5425000Y-8416250D02*
X5125000Y-8716250D01*
X5348750Y-6616250D02*
X5648750Y-6916250D01*
X5648750Y-6616250D02*
X5348750Y-6916250D01*
X5601250Y-2701250D02*
X5901250Y-3001250D01*
X5901250Y-2701250D02*
X5601250Y-3001250D01*
X5601250Y-4606250D02*
X5901250Y-4906250D01*
X5901250Y-4606250D02*
X5601250Y-4906250D01*
X5825000Y-8521250D02*
X6125000Y-8821250D01*
X6125000Y-8521250D02*
X5825000Y-8821250D01*
X6077500Y-10321250D02*
X6377500Y-10621250D01*
X6377500Y-10321250D02*
X6077500Y-10621250D01*
X6301250Y-2806250D02*
X6601250Y-3106250D01*
X6601250Y-2806250D02*
X6301250Y-3106250D01*
X6301250Y-4711250D02*
X6601250Y-5011250D01*
X6601250Y-4711250D02*
X6301250Y-5011250D01*
X6553750Y-6511250D02*
X6853750Y-6811250D01*
X6853750Y-6511250D02*
X6553750Y-6811250D01*
X6777500Y-10426250D02*
X7077500Y-10726250D01*
X7077500Y-10426250D02*
X6777500Y-10726250D01*
X6791875Y-12226250D02*
X7091875Y-12526250D01*
X7091875Y-12226250D02*
X6791875Y-12526250D01*
X7030000Y-8416250D02*
X7330000Y-8716250D01*
X7330000Y-8416250D02*
X7030000Y-8716250D01*
X7253750Y-6616250D02*
X7553750Y-6916250D01*
X7553750Y-6616250D02*
X7253750Y-6916250D01*
X7491875Y-12331250D02*
X7791875Y-12631250D01*
X7791875Y-12331250D02*
X7491875Y-12631250D01*
X7506250Y-2701250D02*
X7806250Y-3001250D01*
X7806250Y-2701250D02*
X7506250Y-3001250D01*
X7506250Y-4606250D02*
X7806250Y-4906250D01*
X7806250Y-4606250D02*
X7506250Y-4906250D01*
X7730000Y-8521250D02*
X8030000Y-8821250D01*
X8030000Y-8521250D02*
X7730000Y-8821250D01*
X7982500Y-10321250D02*
X8282500Y-10621250D01*
X8282500Y-10321250D02*
X7982500Y-10621250D01*
X8206250Y-2806250D02*
X8506250Y-3106250D01*
X8506250Y-2806250D02*
X8206250Y-3106250D01*
X8206250Y-4711250D02*
X8506250Y-5011250D01*
X8506250Y-4711250D02*
X8206250Y-5011250D01*
X8458750Y-6511250D02*
X8758750Y-6811250D01*
X8758750Y-6511250D02*
X8458750Y-6811250D01*
X8682500Y-10426250D02*
X8982500Y-10726250D01*
X8982500Y-10426250D02*
X8682500Y-10726250D01*
X8935000Y-8416250D02*
X9235000Y-8716250D01*
X9235000Y-8416250D02*
X8935000Y-8716250D01*
X9158750Y-6616250D02*
X9458750Y-6916250D01*
X9458750Y-6616250D02*
X9158750Y-6916250D01*
X9411250Y-2701250D02*
X9711250Y-3001250D01*
X9711250Y-2701250D02*
X9411250Y-3001250D01*
X9411250Y-4606250D02*
X9711250Y-4906250D01*
X9711250Y-4606250D02*
X9411250Y-4906250D01*
X9635000Y-8521250D02*
X9935000Y-8821250D01*
X9935000Y-8521250D02*
X9635000Y-8821250D01*
X9887500Y-10321250D02*
X10187500Y-10621250D01*
X10187500Y-10321250D02*
X9887500Y-10621250D01*
X10111250Y-2806250D02*
X10411250Y-3106250D01*
X10411250Y-2806250D02*
X10111250Y-3106250D01*
X10111250Y-4711250D02*
X10411250Y-5011250D01*
X10411250Y-4711250D02*
X10111250Y-5011250D01*
X10363750Y-6511250D02*
X10663750Y-6811250D01*
X10663750Y-6511250D02*
X10363750Y-6811250D01*
X10587500Y-10426250D02*
X10887500Y-10726250D01*
X10887500Y-10426250D02*
X10587500Y-10726250D01*
X10840000Y-8416250D02*
X11140000Y-8716250D01*
X11140000Y-8416250D02*
X10840000Y-8716250D01*
X11063750Y-6616250D02*
X11363750Y-6916250D01*
X11363750Y-6616250D02*
X11063750Y-6916250D01*
X11316250Y-2701250D02*
X11616250Y-3001250D01*
X11616250Y-2701250D02*
X11316250Y-3001250D01*
X11316250Y-4606250D02*
X11616250Y-4906250D01*
X11616250Y-4606250D02*
X11316250Y-4906250D01*
X11540000Y-8521250D02*
X11840000Y-8821250D01*
X11840000Y-8521250D02*
X11540000Y-8821250D01*
X11792500Y-10321250D02*
X12092500Y-10621250D01*
X12092500Y-10321250D02*
X11792500Y-10621250D01*
X12016250Y-2806250D02*
X12316250Y-3106250D01*
X12316250Y-2806250D02*
X12016250Y-3106250D01*
X12016250Y-4711250D02*
X12316250Y-5011250D01*
X12316250Y-4711250D02*
X12016250Y-5011250D01*
X12268750Y-6511250D02*
X12568750Y-6811250D01*
X12568750Y-6511250D02*
X12268750Y-6811250D01*
X12492500Y-10426250D02*
X12792500Y-10726250D01*
X12792500Y-10426250D02*
X12492500Y-10726250D01*
X12745000Y-8416250D02*
X13045000Y-8716250D01*
X13045000Y-8416250D02*
X12745000Y-8716250D01*
X12968750Y-6616250D02*
X13268750Y-6916250D01*
X13268750Y-6616250D02*
X12968750Y-6916250D01*
X13221250Y-2701250D02*
X13521250Y-3001250D01*
X13521250Y-2701250D02*
X13221250Y-3001250D01*
X13221250Y-4606250D02*
X13521250Y-4906250D01*
X13521250Y-4606250D02*
X13221250Y-4906250D01*
X13445000Y-8521250D02*
X13745000Y-8821250D01*
X13745000Y-8521250D02*
X13445000Y-8821250D01*
X13697500Y-10321250D02*
X13997500Y-10621250D01*
X13997500Y-10321250D02*
X13697500Y-10621250D01*
X13921250Y-2806250D02*
X14221250Y-3106250D01*
X14221250Y-2806250D02*
X13921250Y-3106250D01*
X13921250Y-4711250D02*
X14221250Y-5011250D01*
X14221250Y-4711250D02*
X13921250Y-5011250D01*
X13935625Y-12226250D02*
X14235625Y-12526250D01*
X14235625Y-12226250D02*
X13935625Y-12526250D01*
X14173750Y-6511250D02*
X14473750Y-6811250D01*
X14473750Y-6511250D02*
X14173750Y-6811250D01*
X14397500Y-10426250D02*
X14697500Y-10726250D01*
X14697500Y-10426250D02*
X14397500Y-10726250D01*
X14635625Y-12331250D02*
X14935625Y-12631250D01*
X14935625Y-12331250D02*
X14635625Y-12631250D01*
X14650000Y-8416250D02*
X14950000Y-8716250D01*
X14950000Y-8416250D02*
X14650000Y-8716250D01*
X14873750Y-6616250D02*
X15173750Y-6916250D01*
X15173750Y-6616250D02*
X14873750Y-6916250D01*
X15126250Y-2701250D02*
X15426250Y-3001250D01*
X15426250Y-2701250D02*
X15126250Y-3001250D01*
X15126250Y-4606250D02*
X15426250Y-4906250D01*
X15426250Y-4606250D02*
X15126250Y-4906250D01*
X15350000Y-8521250D02*
X15650000Y-8821250D01*
X15650000Y-8521250D02*
X15350000Y-8821250D01*
X15602500Y-10321250D02*
X15902500Y-10621250D01*
X15902500Y-10321250D02*
X15602500Y-10621250D01*
X15826250Y-2806250D02*
X16126250Y-3106250D01*
X16126250Y-2806250D02*
X15826250Y-3106250D01*
X15826250Y-4711250D02*
X16126250Y-5011250D01*
X16126250Y-4711250D02*
X15826250Y-5011250D01*
X16078750Y-6511250D02*
X16378750Y-6811250D01*
X16378750Y-6511250D02*
X16078750Y-6811250D01*
X16302500Y-10426250D02*
X16602500Y-10726250D01*
X16602500Y-10426250D02*
X16302500Y-10726250D01*
X16555000Y-8416250D02*
X16855000Y-8716250D01*
X16855000Y-8416250D02*
X16555000Y-8716250D01*
X16778750Y-6616250D02*
X17078750Y-6916250D01*
X17078750Y-6616250D02*
X16778750Y-6916250D01*
X17031250Y-2701250D02*
X17331250Y-3001250D01*
X17331250Y-2701250D02*
X17031250Y-3001250D01*
X17031250Y-4606250D02*
X17331250Y-4906250D01*
X17331250Y-4606250D02*
X17031250Y-4906250D01*
X17255000Y-8521250D02*
X17555000Y-8821250D01*
X17555000Y-8521250D02*
X17255000Y-8821250D01*
X17507500Y-10321250D02*
X17807500Y-10621250D01*
X17807500Y-10321250D02*
X17507500Y-10621250D01*
X17731250Y-2806250D02*
X18031250Y-3106250D01*
X18031250Y-2806250D02*
X17731250Y-3106250D01*
X17731250Y-4711250D02*
X18031250Y-5011250D01*
X18031250Y-4711250D02*
X17731250Y-5011250D01*
X17983750Y-6511250D02*
X18283750Y-6811250D01*
X18283750Y-6511250D02*
X17983750Y-6811250D01*
X18207500Y-10426250D02*
X18507500Y-10726250D01*
X18507500Y-10426250D02*
X18207500Y-10726250D01*
X18460000Y-8416250D02*
X18760000Y-8716250D01*
X18760000Y-8416250D02*
X18460000Y-8716250D01*
X18683750Y-6616250D02*
X18983750Y-6916250D01*
X18983750Y-6616250D02*
X18683750Y-6916250D01*
X18936250Y-2701250D02*
X19236250Y-3001250D01*
X19236250Y-2701250D02*
X18936250Y-3001250D01*
X18936250Y-4606250D02*
X19236250Y-4906250D01*
X19236250Y-4606250D02*
X18936250Y-4906250D01*
X19160000Y-8521250D02*
X19460000Y-8821250D01*
X19460000Y-8521250D02*
X19160000Y-8821250D01*
X19412500Y-10321250D02*
X19712500Y-10621250D01*
X19712500Y-10321250D02*
X19412500Y-10621250D01*
X19636250Y-2806250D02*
X19936250Y-3106250D01*
X19936250Y-2806250D02*
X19636250Y-3106250D01*
X19636250Y-4711250D02*
X19936250Y-5011250D01*
X19936250Y-4711250D02*
X19636250Y-5011250D01*
X19888750Y-6511250D02*
X20188750Y-6811250D01*
X20188750Y-6511250D02*
X19888750Y-6811250D01*
X20112500Y-10426250D02*
X20412500Y-10726250D01*
X20412500Y-10426250D02*
X20112500Y-10726250D01*
X20365000Y-8416250D02*
X20665000Y-8716250D01*
X20665000Y-8416250D02*
X20365000Y-8716250D01*
X20588750Y-6616250D02*
X20888750Y-6916250D01*
X20888750Y-6616250D02*
X20588750Y-6916250D01*
X20841250Y-2701250D02*
X21141250Y-3001250D01*
X21141250Y-2701250D02*
X20841250Y-3001250D01*
X20841250Y-4606250D02*
X21141250Y-4906250D01*
X21141250Y-4606250D02*
X20841250Y-4906250D01*
X20841250Y-12226250D02*
X21141250Y-12526250D01*
X21141250Y-12226250D02*
X20841250Y-12526250D01*
X21065000Y-8521250D02*
X21365000Y-8821250D01*
X21365000Y-8521250D02*
X21065000Y-8821250D01*
X21317500Y-10321250D02*
X21617500Y-10621250D01*
X21617500Y-10321250D02*
X21317500Y-10621250D01*
X21541250Y-2806250D02*
X21841250Y-3106250D01*
X21841250Y-2806250D02*
X21541250Y-3106250D01*
X21541250Y-4711250D02*
X21841250Y-5011250D01*
X21841250Y-4711250D02*
X21541250Y-5011250D01*
X21541250Y-12331250D02*
X21841250Y-12631250D01*
X21841250Y-12331250D02*
X21541250Y-12631250D01*
X21793750Y-6511250D02*
X22093750Y-6811250D01*
X22093750Y-6511250D02*
X21793750Y-6811250D01*
X22017500Y-10426250D02*
X22317500Y-10726250D01*
X22317500Y-10426250D02*
X22017500Y-10726250D01*
X22270000Y-8416250D02*
X22570000Y-8716250D01*
X22570000Y-8416250D02*
X22270000Y-8716250D01*
X22493750Y-6616250D02*
X22793750Y-6916250D01*
X22793750Y-6616250D02*
X22493750Y-6916250D01*
X22746250Y-2701250D02*
X23046250Y-3001250D01*
X23046250Y-2701250D02*
X22746250Y-3001250D01*
X22746250Y-4606250D02*
X23046250Y-4906250D01*
X23046250Y-4606250D02*
X22746250Y-4906250D01*
X22746250Y-12226250D02*
X23046250Y-12526250D01*
X23046250Y-12226250D02*
X22746250Y-12526250D01*
X22970000Y-8521250D02*
X23270000Y-8821250D01*
X23270000Y-8521250D02*
X22970000Y-8821250D01*
X23222500Y-10321250D02*
X23522500Y-10621250D01*
X23522500Y-10321250D02*
X23222500Y-10621250D01*
X23446250Y-2806250D02*
X23746250Y-3106250D01*
X23746250Y-2806250D02*
X23446250Y-3106250D01*
X23446250Y-4711250D02*
X23746250Y-5011250D01*
X23746250Y-4711250D02*
X23446250Y-5011250D01*
X23446250Y-12331250D02*
X23746250Y-12631250D01*
X23746250Y-12331250D02*
X23446250Y-12631250D01*
X23698750Y-6511250D02*
X23998750Y-6811250D01*
X23998750Y-6511250D02*
X23698750Y-6811250D01*
X23922500Y-10426250D02*
X24222500Y-10726250D01*
X24222500Y-10426250D02*
X23922500Y-10726250D01*
X24175000Y-8416250D02*
X24475000Y-8716250D01*
X24475000Y-8416250D02*
X24175000Y-8716250D01*
X24398750Y-6616250D02*
X24698750Y-6916250D01*
X24698750Y-6616250D02*
X24398750Y-6916250D01*
X24651250Y-2701250D02*
X24951250Y-3001250D01*
X24951250Y-2701250D02*
X24651250Y-3001250D01*
X24651250Y-4606250D02*
X24951250Y-4906250D01*
X24951250Y-4606250D02*
X24651250Y-4906250D01*
X24651250Y-12226250D02*
X24951250Y-12526250D01*
X24951250Y-12226250D02*
X24651250Y-12526250D01*
X24875000Y-8521250D02*
X25175000Y-8821250D01*
X25175000Y-8521250D02*
X24875000Y-8821250D01*
X25351250Y-2806250D02*
X25651250Y-3106250D01*
X25651250Y-2806250D02*
X25351250Y-3106250D01*
X25351250Y-4711250D02*
X25651250Y-5011250D01*
X25651250Y-4711250D02*
X25351250Y-5011250D01*
X25351250Y-12331250D02*
X25651250Y-12631250D01*
X25651250Y-12331250D02*
X25351250Y-12631250D01*
X25603750Y-6511250D02*
X25903750Y-6811250D01*
X25903750Y-6511250D02*
X25603750Y-6811250D01*
X25841875Y-10321250D02*
X26141875Y-10621250D01*
X26141875Y-10321250D02*
X25841875Y-10621250D01*
X26303750Y-6616250D02*
X26603750Y-6916250D01*
X26603750Y-6616250D02*
X26303750Y-6916250D01*
X26541875Y-10426250D02*
X26841875Y-10726250D01*
X26841875Y-10426250D02*
X26541875Y-10726250D01*
X26556250Y-2701250D02*
X26856250Y-3001250D01*
X26856250Y-2701250D02*
X26556250Y-3001250D01*
X26556250Y-12226250D02*
X26856250Y-12526250D01*
X26856250Y-12226250D02*
X26556250Y-12526250D01*
X27256250Y-2806250D02*
X27556250Y-3106250D01*
X27556250Y-2806250D02*
X27256250Y-3106250D01*
X27256250Y-12331250D02*
X27556250Y-12631250D01*
X27556250Y-12331250D02*
X27256250Y-12631250D01*
X27270625Y-8416250D02*
X27570625Y-8716250D01*
X27570625Y-8416250D02*
X27270625Y-8716250D01*
X27508750Y-4606250D02*
X27808750Y-4906250D01*
X27808750Y-4606250D02*
X27508750Y-4906250D01*
X27970625Y-8521250D02*
X28270625Y-8821250D01*
X28270625Y-8521250D02*
X27970625Y-8821250D01*
X27985000Y-6511250D02*
X28285000Y-6811250D01*
X28285000Y-6511250D02*
X27985000Y-6811250D01*
X28208750Y-4711250D02*
X28508750Y-5011250D01*
X28508750Y-4711250D02*
X28208750Y-5011250D01*
X28461250Y-2701250D02*
X28761250Y-3001250D01*
X28761250Y-2701250D02*
X28461250Y-3001250D01*
X28461250Y-10321250D02*
X28761250Y-10621250D01*
X28761250Y-10321250D02*
X28461250Y-10621250D01*
X28461250Y-12226250D02*
X28761250Y-12526250D01*
X28761250Y-12226250D02*
X28461250Y-12526250D01*
X28685000Y-6616250D02*
X28985000Y-6916250D01*
X28985000Y-6616250D02*
X28685000Y-6916250D01*
X29161250Y-2806250D02*
X29461250Y-3106250D01*
X29461250Y-2806250D02*
X29161250Y-3106250D01*
X29161250Y-10426250D02*
X29461250Y-10726250D01*
X29461250Y-10426250D02*
X29161250Y-10726250D01*
X29161250Y-12331250D02*
X29461250Y-12631250D01*
X29461250Y-12331250D02*
X29161250Y-12631250D01*
X30366250Y-2701250D02*
X30666250Y-3001250D01*
X30666250Y-2701250D02*
X30366250Y-3001250D01*
X30366250Y-4606250D02*
X30666250Y-4906250D01*
X30666250Y-4606250D02*
X30366250Y-4906250D01*
X30366250Y-6511250D02*
X30666250Y-6811250D01*
X30666250Y-6511250D02*
X30366250Y-6811250D01*
X30366250Y-8416250D02*
X30666250Y-8716250D01*
X30666250Y-8416250D02*
X30366250Y-8716250D01*
X30366250Y-10321250D02*
X30666250Y-10621250D01*
X30666250Y-10321250D02*
X30366250Y-10621250D01*
X30366250Y-12226250D02*
X30666250Y-12526250D01*
X30666250Y-12226250D02*
X30366250Y-12526250D01*
X31066250Y-2806250D02*
X31366250Y-3106250D01*
X31366250Y-2806250D02*
X31066250Y-3106250D01*
X31066250Y-4711250D02*
X31366250Y-5011250D01*
X31366250Y-4711250D02*
X31066250Y-5011250D01*
X31066250Y-6616250D02*
X31366250Y-6916250D01*
X31366250Y-6616250D02*
X31066250Y-6916250D01*
X31066250Y-8521250D02*
X31366250Y-8821250D01*
X31366250Y-8521250D02*
X31066250Y-8821250D01*
X31066250Y-10426250D02*
X31366250Y-10726250D01*
X31366250Y-10426250D02*
X31066250Y-10726250D01*
X31066250Y-12331250D02*
X31366250Y-12631250D01*
X31366250Y-12331250D02*
X31066250Y-12631250D01*
D13*
X2636250Y-2381250D02*
G75*
G02*
X2126250Y-2381250I-255000J0D01*
G01*
X2126250Y-2381250D02*
G75*
G02*
X2636250Y-2381250I255000J0D01*
G01*
X2636250Y-4286250D02*
G75*
G02*
X2126250Y-4286250I-255000J0D01*
G01*
X2126250Y-4286250D02*
G75*
G02*
X2636250Y-4286250I255000J0D01*
G01*
X2874375Y-11906250D02*
G75*
G02*
X2364375Y-11906250I-255000J0D01*
G01*
X2364375Y-11906250D02*
G75*
G02*
X2874375Y-11906250I255000J0D01*
G01*
X3112500Y-6191250D02*
G75*
G02*
X2602500Y-6191250I-255000J0D01*
G01*
X2602500Y-6191250D02*
G75*
G02*
X3112500Y-6191250I255000J0D01*
G01*
X3350625Y-8096250D02*
G75*
G02*
X2840625Y-8096250I-255000J0D01*
G01*
X2840625Y-8096250D02*
G75*
G02*
X3350625Y-8096250I255000J0D01*
G01*
X3826875Y-10001250D02*
G75*
G02*
X3316875Y-10001250I-255000J0D01*
G01*
X3316875Y-10001250D02*
G75*
G02*
X3826875Y-10001250I255000J0D01*
G01*
X4541250Y-2381250D02*
G75*
G02*
X4031250Y-2381250I-255000J0D01*
G01*
X4031250Y-2381250D02*
G75*
G02*
X4541250Y-2381250I255000J0D01*
G01*
X4541250Y-4286250D02*
G75*
G02*
X4031250Y-4286250I-255000J0D01*
G01*
X4031250Y-4286250D02*
G75*
G02*
X4541250Y-4286250I255000J0D01*
G01*
X5255625Y-11906250D02*
G75*
G02*
X4745625Y-11906250I-255000J0D01*
G01*
X4745625Y-11906250D02*
G75*
G02*
X5255625Y-11906250I255000J0D01*
G01*
X5493750Y-6191250D02*
G75*
G02*
X4983750Y-6191250I-255000J0D01*
G01*
X4983750Y-6191250D02*
G75*
G02*
X5493750Y-6191250I255000J0D01*
G01*
X5970000Y-8096250D02*
G75*
G02*
X5460000Y-8096250I-255000J0D01*
G01*
X5460000Y-8096250D02*
G75*
G02*
X5970000Y-8096250I255000J0D01*
G01*
X6446250Y-2381250D02*
G75*
G02*
X5936250Y-2381250I-255000J0D01*
G01*
X5936250Y-2381250D02*
G75*
G02*
X6446250Y-2381250I255000J0D01*
G01*
X6446250Y-4286250D02*
G75*
G02*
X5936250Y-4286250I-255000J0D01*
G01*
X5936250Y-4286250D02*
G75*
G02*
X6446250Y-4286250I255000J0D01*
G01*
X6922500Y-10001250D02*
G75*
G02*
X6412500Y-10001250I-255000J0D01*
G01*
X6412500Y-10001250D02*
G75*
G02*
X6922500Y-10001250I255000J0D01*
G01*
X7398750Y-6191250D02*
G75*
G02*
X6888750Y-6191250I-255000J0D01*
G01*
X6888750Y-6191250D02*
G75*
G02*
X7398750Y-6191250I255000J0D01*
G01*
X7636875Y-11906250D02*
G75*
G02*
X7126875Y-11906250I-255000J0D01*
G01*
X7126875Y-11906250D02*
G75*
G02*
X7636875Y-11906250I255000J0D01*
G01*
X7875000Y-8096250D02*
G75*
G02*
X7365000Y-8096250I-255000J0D01*
G01*
X7365000Y-8096250D02*
G75*
G02*
X7875000Y-8096250I255000J0D01*
G01*
X8351250Y-2381250D02*
G75*
G02*
X7841250Y-2381250I-255000J0D01*
G01*
X7841250Y-2381250D02*
G75*
G02*
X8351250Y-2381250I255000J0D01*
G01*
X8351250Y-4286250D02*
G75*
G02*
X7841250Y-4286250I-255000J0D01*
G01*
X7841250Y-4286250D02*
G75*
G02*
X8351250Y-4286250I255000J0D01*
G01*
X8827500Y-10001250D02*
G75*
G02*
X8317500Y-10001250I-255000J0D01*
G01*
X8317500Y-10001250D02*
G75*
G02*
X8827500Y-10001250I255000J0D01*
G01*
X9303750Y-6191250D02*
G75*
G02*
X8793750Y-6191250I-255000J0D01*
G01*
X8793750Y-6191250D02*
G75*
G02*
X9303750Y-6191250I255000J0D01*
G01*
X9780000Y-8096250D02*
G75*
G02*
X9270000Y-8096250I-255000J0D01*
G01*
X9270000Y-8096250D02*
G75*
G02*
X9780000Y-8096250I255000J0D01*
G01*
X10256250Y-2381250D02*
G75*
G02*
X9746250Y-2381250I-255000J0D01*
G01*
X9746250Y-2381250D02*
G75*
G02*
X10256250Y-2381250I255000J0D01*
G01*
X10256250Y-4286250D02*
G75*
G02*
X9746250Y-4286250I-255000J0D01*
G01*
X9746250Y-4286250D02*
G75*
G02*
X10256250Y-4286250I255000J0D01*
G01*
X10732500Y-10001250D02*
G75*
G02*
X10222500Y-10001250I-255000J0D01*
G01*
X10222500Y-10001250D02*
G75*
G02*
X10732500Y-10001250I255000J0D01*
G01*
X11208750Y-6191250D02*
G75*
G02*
X10698750Y-6191250I-255000J0D01*
G01*
X10698750Y-6191250D02*
G75*
G02*
X11208750Y-6191250I255000J0D01*
G01*
X11685000Y-8096250D02*
G75*
G02*
X11175000Y-8096250I-255000J0D01*
G01*
X11175000Y-8096250D02*
G75*
G02*
X11685000Y-8096250I255000J0D01*
G01*
X12161250Y-2381250D02*
G75*
G02*
X11651250Y-2381250I-255000J0D01*
G01*
X11651250Y-2381250D02*
G75*
G02*
X12161250Y-2381250I255000J0D01*
G01*
X12161250Y-4286250D02*
G75*
G02*
X11651250Y-4286250I-255000J0D01*
G01*
X11651250Y-4286250D02*
G75*
G02*
X12161250Y-4286250I255000J0D01*
G01*
X12637500Y-10001250D02*
G75*
G02*
X12127500Y-10001250I-255000J0D01*
G01*
X12127500Y-10001250D02*
G75*
G02*
X12637500Y-10001250I255000J0D01*
G01*
X13113750Y-6191250D02*
G75*
G02*
X12603750Y-6191250I-255000J0D01*
G01*
X12603750Y-6191250D02*
G75*
G02*
X13113750Y-6191250I255000J0D01*
G01*
X13590000Y-8096250D02*
G75*
G02*
X13080000Y-8096250I-255000J0D01*
G01*
X13080000Y-8096250D02*
G75*
G02*
X13590000Y-8096250I255000J0D01*
G01*
X14066250Y-2381250D02*
G75*
G02*
X13556250Y-2381250I-255000J0D01*
G01*
X13556250Y-2381250D02*
G75*
G02*
X14066250Y-2381250I255000J0D01*
G01*
X14066250Y-4286250D02*
G75*
G02*
X13556250Y-4286250I-255000J0D01*
G01*
X13556250Y-4286250D02*
G75*
G02*
X14066250Y-4286250I255000J0D01*
G01*
X14542500Y-10001250D02*
G75*
G02*
X14032500Y-10001250I-255000J0D01*
G01*
X14032500Y-10001250D02*
G75*
G02*
X14542500Y-10001250I255000J0D01*
G01*
X14780625Y-11906250D02*
G75*
G02*
X14270625Y-11906250I-255000J0D01*
G01*
X14270625Y-11906250D02*
G75*
G02*
X14780625Y-11906250I255000J0D01*
G01*
X15018750Y-6191250D02*
G75*
G02*
X14508750Y-6191250I-255000J0D01*
G01*
X14508750Y-6191250D02*
G75*
G02*
X15018750Y-6191250I255000J0D01*
G01*
X15495000Y-8096250D02*
G75*
G02*
X14985000Y-8096250I-255000J0D01*
G01*
X14985000Y-8096250D02*
G75*
G02*
X15495000Y-8096250I255000J0D01*
G01*
X15971250Y-2381250D02*
G75*
G02*
X15461250Y-2381250I-255000J0D01*
G01*
X15461250Y-2381250D02*
G75*
G02*
X15971250Y-2381250I255000J0D01*
G01*
X15971250Y-4286250D02*
G75*
G02*
X15461250Y-4286250I-255000J0D01*
G01*
X15461250Y-4286250D02*
G75*
G02*
X15971250Y-4286250I255000J0D01*
G01*
X16447500Y-10001250D02*
G75*
G02*
X15937500Y-10001250I-255000J0D01*
G01*
X15937500Y-10001250D02*
G75*
G02*
X16447500Y-10001250I255000J0D01*
G01*
X16923750Y-6191250D02*
G75*
G02*
X16413750Y-6191250I-255000J0D01*
G01*
X16413750Y-6191250D02*
G75*
G02*
X16923750Y-6191250I255000J0D01*
G01*
X17400000Y-8096250D02*
G75*
G02*
X16890000Y-8096250I-255000J0D01*
G01*
X16890000Y-8096250D02*
G75*
G02*
X17400000Y-8096250I255000J0D01*
G01*
X17876250Y-2381250D02*
G75*
G02*
X17366250Y-2381250I-255000J0D01*
G01*
X17366250Y-2381250D02*
G75*
G02*
X17876250Y-2381250I255000J0D01*
G01*
X17876250Y-4286250D02*
G75*
G02*
X17366250Y-4286250I-255000J0D01*
G01*
X17366250Y-4286250D02*
G75*
G02*
X17876250Y-4286250I255000J0D01*
G01*
X18352500Y-10001250D02*
G75*
G02*
X17842500Y-10001250I-255000J0D01*
G01*
X17842500Y-10001250D02*
G75*
G02*
X18352500Y-10001250I255000J0D01*
G01*
X18828750Y-6191250D02*
G75*
G02*
X18318750Y-6191250I-255000J0D01*
G01*
X18318750Y-6191250D02*
G75*
G02*
X18828750Y-6191250I255000J0D01*
G01*
X19305000Y-8096250D02*
G75*
G02*
X18795000Y-8096250I-255000J0D01*
G01*
X18795000Y-8096250D02*
G75*
G02*
X19305000Y-8096250I255000J0D01*
G01*
X19781250Y-2381250D02*
G75*
G02*
X19271250Y-2381250I-255000J0D01*
G01*
X19271250Y-2381250D02*
G75*
G02*
X19781250Y-2381250I255000J0D01*
G01*
X19781250Y-4286250D02*
G75*
G02*
X19271250Y-4286250I-255000J0D01*
G01*
X19271250Y-4286250D02*
G75*
G02*
X19781250Y-4286250I255000J0D01*
G01*
X20257500Y-10001250D02*
G75*
G02*
X19747500Y-10001250I-255000J0D01*
G01*
X19747500Y-10001250D02*
G75*
G02*
X20257500Y-10001250I255000J0D01*
G01*
X20733750Y-6191250D02*
G75*
G02*
X20223750Y-6191250I-255000J0D01*
G01*
X20223750Y-6191250D02*
G75*
G02*
X20733750Y-6191250I255000J0D01*
G01*
X21210000Y-8096250D02*
G75*
G02*
X20700000Y-8096250I-255000J0D01*
G01*
X20700000Y-8096250D02*
G75*
G02*
X21210000Y-8096250I255000J0D01*
G01*
X21686250Y-2381250D02*
G75*
G02*
X21176250Y-2381250I-255000J0D01*
G01*
X21176250Y-2381250D02*
G75*
G02*
X21686250Y-2381250I255000J0D01*
G01*
X21686250Y-4286250D02*
G75*
G02*
X21176250Y-4286250I-255000J0D01*
G01*
X21176250Y-4286250D02*
G75*
G02*
X21686250Y-4286250I255000J0D01*
G01*
X21686250Y-11906250D02*
G75*
G02*
X21176250Y-11906250I-255000J0D01*
G01*
X21176250Y-11906250D02*
G75*
G02*
X21686250Y-11906250I255000J0D01*
G01*
X22162500Y-10001250D02*
G75*
G02*
X21652500Y-10001250I-255000J0D01*
G01*
X21652500Y-10001250D02*
G75*
G02*
X22162500Y-10001250I255000J0D01*
G01*
X22638750Y-6191250D02*
G75*
G02*
X22128750Y-6191250I-255000J0D01*
G01*
X22128750Y-6191250D02*
G75*
G02*
X22638750Y-6191250I255000J0D01*
G01*
X23115000Y-8096250D02*
G75*
G02*
X22605000Y-8096250I-255000J0D01*
G01*
X22605000Y-8096250D02*
G75*
G02*
X23115000Y-8096250I255000J0D01*
G01*
X23591250Y-2381250D02*
G75*
G02*
X23081250Y-2381250I-255000J0D01*
G01*
X23081250Y-2381250D02*
G75*
G02*
X23591250Y-2381250I255000J0D01*
G01*
X23591250Y-4286250D02*
G75*
G02*
X23081250Y-4286250I-255000J0D01*
G01*
X23081250Y-4286250D02*
G75*
G02*
X23591250Y-4286250I255000J0D01*
G01*
X23591250Y-11906250D02*
G75*
G02*
X23081250Y-11906250I-255000J0D01*
G01*
X23081250Y-11906250D02*
G75*
G02*
X23591250Y-11906250I255000J0D01*
G01*
X24067500Y-10001250D02*
G75*
G02*
X23557500Y-10001250I-255000J0D01*
G01*
X23557500Y-10001250D02*
G75*
G02*
X24067500Y-10001250I255000J0D01*
G01*
X24543750Y-6191250D02*
G75*
G02*
X24033750Y-6191250I-255000J0D01*
G01*
X24033750Y-6191250D02*
G75*
G02*
X24543750Y-6191250I255000J0D01*
G01*
X25020000Y-8096250D02*
G75*
G02*
X24510000Y-8096250I-255000J0D01*
G01*
X24510000Y-8096250D02*
G75*
G02*
X25020000Y-8096250I255000J0D01*
G01*
X25496250Y-2381250D02*
G75*
G02*
X24986250Y-2381250I-255000J0D01*
G01*
X24986250Y-2381250D02*
G75*
G02*
X25496250Y-2381250I255000J0D01*
G01*
X25496250Y-4286250D02*
G75*
G02*
X24986250Y-4286250I-255000J0D01*
G01*
X24986250Y-4286250D02*
G75*
G02*
X25496250Y-4286250I255000J0D01*
G01*
X25496250Y-11906250D02*
G75*
G02*
X24986250Y-11906250I-255000J0D01*
G01*
X24986250Y-11906250D02*
G75*
G02*
X25496250Y-11906250I255000J0D01*
G01*
X26448750Y-6191250D02*
G75*
G02*
X25938750Y-6191250I-255000J0D01*
G01*
X25938750Y-6191250D02*
G75*
G02*
X26448750Y-6191250I255000J0D01*
G01*
X26686875Y-10001250D02*
G75*
G02*
X26176875Y-10001250I-255000J0D01*
G01*
X26176875Y-10001250D02*
G75*
G02*
X26686875Y-10001250I255000J0D01*
G01*
X27401250Y-2381250D02*
G75*
G02*
X26891250Y-2381250I-255000J0D01*
G01*
X26891250Y-2381250D02*
G75*
G02*
X27401250Y-2381250I255000J0D01*
G01*
X27401250Y-11906250D02*
G75*
G02*
X26891250Y-11906250I-255000J0D01*
G01*
X26891250Y-11906250D02*
G75*
G02*
X27401250Y-11906250I255000J0D01*
G01*
X28115625Y-8096250D02*
G75*
G02*
X27605625Y-8096250I-255000J0D01*
G01*
X27605625Y-8096250D02*
G75*
G02*
X28115625Y-8096250I255000J0D01*
G01*
X28353750Y-4286250D02*
G75*
G02*
X27843750Y-4286250I-255000J0D01*
G01*
X27843750Y-4286250D02*
G75*
G02*
X28353750Y-4286250I255000J0D01*
G01*
X28830000Y-6191250D02*
G75*
G02*
X28320000Y-6191250I-255000J0D01*
G01*
X28320000Y-6191250D02*
G75*
G02*
X28830000Y-6191250I255000J0D01*
G01*
X29306250Y-2381250D02*
G75*
G02*
X28796250Y-2381250I-255000J0D01*
G01*
X28796250Y-2381250D02*
G75*
G02*
X29306250Y-2381250I255000J0D01*
G01*
X29306250Y-10001250D02*
G75*
G02*
X28796250Y-10001250I-255000J0D01*
G01*
X28796250Y-10001250D02*
G75*
G02*
X29306250Y-10001250I255000J0D01*
G01*
X29306250Y-11906250D02*
G75*
G02*
X28796250Y-11906250I-255000J0D01*
G01*
X28796250Y-11906250D02*
G75*
G02*
X29306250Y-11906250I255000J0D01*
G01*
X31211250Y-2381250D02*
G75*
G02*
X30701250Y-2381250I-255000J0D01*
G01*
X30701250Y-2381250D02*
G75*
G02*
X31211250Y-2381250I255000J0D01*
G01*
X31211250Y-4286250D02*
G75*
G02*
X30701250Y-4286250I-255000J0D01*
G01*
X30701250Y-4286250D02*
G75*
G02*
X31211250Y-4286250I255000J0D01*
G01*
X31211250Y-6191250D02*
G75*
G02*
X30701250Y-6191250I-255000J0D01*
G01*
X30701250Y-6191250D02*
G75*
G02*
X31211250Y-6191250I255000J0D01*
G01*
X31211250Y-8096250D02*
G75*
G02*
X30701250Y-8096250I-255000J0D01*
G01*
X30701250Y-8096250D02*
G75*
G02*
X31211250Y-8096250I255000J0D01*
G01*
X31211250Y-10001250D02*
G75*
G02*
X30701250Y-10001250I-255000J0D01*
G01*
X30701250Y-10001250D02*
G75*
G02*
X31211250Y-10001250I255000J0D01*
G01*
X31211250Y-11906250D02*
G75*
G02*
X30701250Y-11906250I-255000J0D01*
G01*
X30701250Y-11906250D02*
G75*
G02*
X31211250Y-11906250I255000J0D01*
G01*
D11*
X1458277Y-13413984D02*
X1458277Y-13213984D01*
X1458277Y-13213984D02*
X1505896Y-13213984D01*
X1505896Y-13213984D02*
X1534467Y-13223508D01*
X1534467Y-13223508D02*
X1553515Y-13242555D01*
X1553515Y-13242555D02*
X1563039Y-13261603D01*
X1563039Y-13261603D02*
X1572562Y-13299698D01*
X1572562Y-13299698D02*
X1572562Y-13328269D01*
X1572562Y-13328269D02*
X1563039Y-13366365D01*
X1563039Y-13366365D02*
X1553515Y-13385412D01*
X1553515Y-13385412D02*
X1534467Y-13404460D01*
X1534467Y-13404460D02*
X1505896Y-13413984D01*
X1505896Y-13413984D02*
X1458277Y-13413984D01*
X1658277Y-13413984D02*
X1658277Y-13280650D01*
X1658277Y-13318746D02*
X1667801Y-13299698D01*
X1667801Y-13299698D02*
X1677324Y-13290174D01*
X1677324Y-13290174D02*
X1696372Y-13280650D01*
X1696372Y-13280650D02*
X1715420Y-13280650D01*
X1782086Y-13413984D02*
X1782086Y-13280650D01*
X1782086Y-13213984D02*
X1772562Y-13223508D01*
X1772562Y-13223508D02*
X1782086Y-13233031D01*
X1782086Y-13233031D02*
X1791610Y-13223508D01*
X1791610Y-13223508D02*
X1782086Y-13213984D01*
X1782086Y-13213984D02*
X1782086Y-13233031D01*
X1905896Y-13413984D02*
X1886848Y-13404460D01*
X1886848Y-13404460D02*
X1877324Y-13385412D01*
X1877324Y-13385412D02*
X1877324Y-13213984D01*
X2010658Y-13413984D02*
X1991610Y-13404460D01*
X1991610Y-13404460D02*
X1982086Y-13385412D01*
X1982086Y-13385412D02*
X1982086Y-13213984D01*
X2239229Y-13413984D02*
X2239229Y-13213984D01*
X2239229Y-13213984D02*
X2305896Y-13356841D01*
X2305896Y-13356841D02*
X2372563Y-13213984D01*
X2372563Y-13213984D02*
X2372563Y-13413984D01*
X2553515Y-13413984D02*
X2553515Y-13309222D01*
X2553515Y-13309222D02*
X2543991Y-13290174D01*
X2543991Y-13290174D02*
X2524944Y-13280650D01*
X2524944Y-13280650D02*
X2486848Y-13280650D01*
X2486848Y-13280650D02*
X2467801Y-13290174D01*
X2553515Y-13404460D02*
X2534467Y-13413984D01*
X2534467Y-13413984D02*
X2486848Y-13413984D01*
X2486848Y-13413984D02*
X2467801Y-13404460D01*
X2467801Y-13404460D02*
X2458277Y-13385412D01*
X2458277Y-13385412D02*
X2458277Y-13366365D01*
X2458277Y-13366365D02*
X2467801Y-13347317D01*
X2467801Y-13347317D02*
X2486848Y-13337793D01*
X2486848Y-13337793D02*
X2534467Y-13337793D01*
X2534467Y-13337793D02*
X2553515Y-13328269D01*
X2648753Y-13280650D02*
X2648753Y-13480650D01*
X2648753Y-13290174D02*
X2667801Y-13280650D01*
X2667801Y-13280650D02*
X2705896Y-13280650D01*
X2705896Y-13280650D02*
X2724944Y-13290174D01*
X2724944Y-13290174D02*
X2734467Y-13299698D01*
X2734467Y-13299698D02*
X2743991Y-13318746D01*
X2743991Y-13318746D02*
X2743991Y-13375888D01*
X2743991Y-13375888D02*
X2734467Y-13394936D01*
X2734467Y-13394936D02*
X2724944Y-13404460D01*
X2724944Y-13404460D02*
X2705896Y-13413984D01*
X2705896Y-13413984D02*
X2667801Y-13413984D01*
X2667801Y-13413984D02*
X2648753Y-13404460D01*
X2829705Y-13394936D02*
X2839229Y-13404460D01*
X2839229Y-13404460D02*
X2829705Y-13413984D01*
X2829705Y-13413984D02*
X2820182Y-13404460D01*
X2820182Y-13404460D02*
X2829705Y-13394936D01*
X2829705Y-13394936D02*
X2829705Y-13413984D01*
X2829705Y-13290174D02*
X2839229Y-13299698D01*
X2839229Y-13299698D02*
X2829705Y-13309222D01*
X2829705Y-13309222D02*
X2820182Y-13299698D01*
X2820182Y-13299698D02*
X2829705Y-13290174D01*
X2829705Y-13290174D02*
X2829705Y-13309222D01*
X997500Y-13642500D02*
X1197500Y-13842500D01*
X1197500Y-13642500D02*
X997500Y-13842500D01*
X1439229Y-13633984D02*
X1563039Y-13633984D01*
X1563039Y-13633984D02*
X1496372Y-13710174D01*
X1496372Y-13710174D02*
X1524943Y-13710174D01*
X1524943Y-13710174D02*
X1543991Y-13719698D01*
X1543991Y-13719698D02*
X1553515Y-13729222D01*
X1553515Y-13729222D02*
X1563039Y-13748269D01*
X1563039Y-13748269D02*
X1563039Y-13795888D01*
X1563039Y-13795888D02*
X1553515Y-13814936D01*
X1553515Y-13814936D02*
X1543991Y-13824460D01*
X1543991Y-13824460D02*
X1524943Y-13833984D01*
X1524943Y-13833984D02*
X1467801Y-13833984D01*
X1467801Y-13833984D02*
X1448753Y-13824460D01*
X1448753Y-13824460D02*
X1439229Y-13814936D01*
X1648753Y-13814936D02*
X1658277Y-13824460D01*
X1658277Y-13824460D02*
X1648753Y-13833984D01*
X1648753Y-13833984D02*
X1639229Y-13824460D01*
X1639229Y-13824460D02*
X1648753Y-13814936D01*
X1648753Y-13814936D02*
X1648753Y-13833984D01*
X1782086Y-13633984D02*
X1801134Y-13633984D01*
X1801134Y-13633984D02*
X1820182Y-13643508D01*
X1820182Y-13643508D02*
X1829705Y-13653031D01*
X1829705Y-13653031D02*
X1839229Y-13672079D01*
X1839229Y-13672079D02*
X1848753Y-13710174D01*
X1848753Y-13710174D02*
X1848753Y-13757793D01*
X1848753Y-13757793D02*
X1839229Y-13795888D01*
X1839229Y-13795888D02*
X1829705Y-13814936D01*
X1829705Y-13814936D02*
X1820182Y-13824460D01*
X1820182Y-13824460D02*
X1801134Y-13833984D01*
X1801134Y-13833984D02*
X1782086Y-13833984D01*
X1782086Y-13833984D02*
X1763039Y-13824460D01*
X1763039Y-13824460D02*
X1753515Y-13814936D01*
X1753515Y-13814936D02*
X1743991Y-13795888D01*
X1743991Y-13795888D02*
X1734467Y-13757793D01*
X1734467Y-13757793D02*
X1734467Y-13710174D01*
X1734467Y-13710174D02*
X1743991Y-13672079D01*
X1743991Y-13672079D02*
X1753515Y-13653031D01*
X1753515Y-13653031D02*
X1763039Y-13643508D01*
X1763039Y-13643508D02*
X1782086Y-13633984D01*
X1972562Y-13633984D02*
X1991610Y-13633984D01*
X1991610Y-13633984D02*
X2010658Y-13643508D01*
X2010658Y-13643508D02*
X2020182Y-13653031D01*
X2020182Y-13653031D02*
X2029705Y-13672079D01*
X2029705Y-13672079D02*
X2039229Y-13710174D01*
X2039229Y-13710174D02*
X2039229Y-13757793D01*
X2039229Y-13757793D02*
X2029705Y-13795888D01*
X2029705Y-13795888D02*
X2020182Y-13814936D01*
X2020182Y-13814936D02*
X2010658Y-13824460D01*
X2010658Y-13824460D02*
X1991610Y-13833984D01*
X1991610Y-13833984D02*
X1972562Y-13833984D01*
X1972562Y-13833984D02*
X1953515Y-13824460D01*
X1953515Y-13824460D02*
X1943991Y-13814936D01*
X1943991Y-13814936D02*
X1934467Y-13795888D01*
X1934467Y-13795888D02*
X1924943Y-13757793D01*
X1924943Y-13757793D02*
X1924943Y-13710174D01*
X1924943Y-13710174D02*
X1934467Y-13672079D01*
X1934467Y-13672079D02*
X1943991Y-13653031D01*
X1943991Y-13653031D02*
X1953515Y-13643508D01*
X1953515Y-13643508D02*
X1972562Y-13633984D01*
X2163039Y-13633984D02*
X2182086Y-13633984D01*
X2182086Y-13633984D02*
X2201134Y-13643508D01*
X2201134Y-13643508D02*
X2210658Y-13653031D01*
X2210658Y-13653031D02*
X2220182Y-13672079D01*
X2220182Y-13672079D02*
X2229705Y-13710174D01*
X2229705Y-13710174D02*
X2229705Y-13757793D01*
X2229705Y-13757793D02*
X2220182Y-13795888D01*
X2220182Y-13795888D02*
X2210658Y-13814936D01*
X2210658Y-13814936D02*
X2201134Y-13824460D01*
X2201134Y-13824460D02*
X2182086Y-13833984D01*
X2182086Y-13833984D02*
X2163039Y-13833984D01*
X2163039Y-13833984D02*
X2143991Y-13824460D01*
X2143991Y-13824460D02*
X2134467Y-13814936D01*
X2134467Y-13814936D02*
X2124944Y-13795888D01*
X2124944Y-13795888D02*
X2115420Y-13757793D01*
X2115420Y-13757793D02*
X2115420Y-13710174D01*
X2115420Y-13710174D02*
X2124944Y-13672079D01*
X2124944Y-13672079D02*
X2134467Y-13653031D01*
X2134467Y-13653031D02*
X2143991Y-13643508D01*
X2143991Y-13643508D02*
X2163039Y-13633984D01*
X2315420Y-13833984D02*
X2315420Y-13700650D01*
X2315420Y-13719698D02*
X2324944Y-13710174D01*
X2324944Y-13710174D02*
X2343991Y-13700650D01*
X2343991Y-13700650D02*
X2372563Y-13700650D01*
X2372563Y-13700650D02*
X2391610Y-13710174D01*
X2391610Y-13710174D02*
X2401134Y-13729222D01*
X2401134Y-13729222D02*
X2401134Y-13833984D01*
X2401134Y-13729222D02*
X2410658Y-13710174D01*
X2410658Y-13710174D02*
X2429705Y-13700650D01*
X2429705Y-13700650D02*
X2458277Y-13700650D01*
X2458277Y-13700650D02*
X2477325Y-13710174D01*
X2477325Y-13710174D02*
X2486848Y-13729222D01*
X2486848Y-13729222D02*
X2486848Y-13833984D01*
X2582086Y-13833984D02*
X2582086Y-13700650D01*
X2582086Y-13719698D02*
X2591610Y-13710174D01*
X2591610Y-13710174D02*
X2610658Y-13700650D01*
X2610658Y-13700650D02*
X2639229Y-13700650D01*
X2639229Y-13700650D02*
X2658277Y-13710174D01*
X2658277Y-13710174D02*
X2667801Y-13729222D01*
X2667801Y-13729222D02*
X2667801Y-13833984D01*
X2667801Y-13729222D02*
X2677325Y-13710174D01*
X2677325Y-13710174D02*
X2696372Y-13700650D01*
X2696372Y-13700650D02*
X2724944Y-13700650D01*
X2724944Y-13700650D02*
X2743991Y-13710174D01*
X2743991Y-13710174D02*
X2753515Y-13729222D01*
X2753515Y-13729222D02*
X2753515Y-13833984D01*
X3143991Y-13624460D02*
X2972563Y-13881603D01*
X3401134Y-13633984D02*
X3420182Y-13633984D01*
X3420182Y-13633984D02*
X3439229Y-13643508D01*
X3439229Y-13643508D02*
X3448753Y-13653031D01*
X3448753Y-13653031D02*
X3458277Y-13672079D01*
X3458277Y-13672079D02*
X3467801Y-13710174D01*
X3467801Y-13710174D02*
X3467801Y-13757793D01*
X3467801Y-13757793D02*
X3458277Y-13795888D01*
X3458277Y-13795888D02*
X3448753Y-13814936D01*
X3448753Y-13814936D02*
X3439229Y-13824460D01*
X3439229Y-13824460D02*
X3420182Y-13833984D01*
X3420182Y-13833984D02*
X3401134Y-13833984D01*
X3401134Y-13833984D02*
X3382086Y-13824460D01*
X3382086Y-13824460D02*
X3372563Y-13814936D01*
X3372563Y-13814936D02*
X3363039Y-13795888D01*
X3363039Y-13795888D02*
X3353515Y-13757793D01*
X3353515Y-13757793D02*
X3353515Y-13710174D01*
X3353515Y-13710174D02*
X3363039Y-13672079D01*
X3363039Y-13672079D02*
X3372563Y-13653031D01*
X3372563Y-13653031D02*
X3382086Y-13643508D01*
X3382086Y-13643508D02*
X3401134Y-13633984D01*
X3553515Y-13814936D02*
X3563039Y-13824460D01*
X3563039Y-13824460D02*
X3553515Y-13833984D01*
X3553515Y-13833984D02*
X3543991Y-13824460D01*
X3543991Y-13824460D02*
X3553515Y-13814936D01*
X3553515Y-13814936D02*
X3553515Y-13833984D01*
X3753515Y-13833984D02*
X3639229Y-13833984D01*
X3696372Y-13833984D02*
X3696372Y-13633984D01*
X3696372Y-13633984D02*
X3677325Y-13662555D01*
X3677325Y-13662555D02*
X3658277Y-13681603D01*
X3658277Y-13681603D02*
X3639229Y-13691127D01*
X3943991Y-13833984D02*
X3829706Y-13833984D01*
X3886848Y-13833984D02*
X3886848Y-13633984D01*
X3886848Y-13633984D02*
X3867801Y-13662555D01*
X3867801Y-13662555D02*
X3848753Y-13681603D01*
X3848753Y-13681603D02*
X3829706Y-13691127D01*
X4058277Y-13719698D02*
X4039229Y-13710174D01*
X4039229Y-13710174D02*
X4029706Y-13700650D01*
X4029706Y-13700650D02*
X4020182Y-13681603D01*
X4020182Y-13681603D02*
X4020182Y-13672079D01*
X4020182Y-13672079D02*
X4029706Y-13653031D01*
X4029706Y-13653031D02*
X4039229Y-13643508D01*
X4039229Y-13643508D02*
X4058277Y-13633984D01*
X4058277Y-13633984D02*
X4096372Y-13633984D01*
X4096372Y-13633984D02*
X4115420Y-13643508D01*
X4115420Y-13643508D02*
X4124944Y-13653031D01*
X4124944Y-13653031D02*
X4134467Y-13672079D01*
X4134467Y-13672079D02*
X4134467Y-13681603D01*
X4134467Y-13681603D02*
X4124944Y-13700650D01*
X4124944Y-13700650D02*
X4115420Y-13710174D01*
X4115420Y-13710174D02*
X4096372Y-13719698D01*
X4096372Y-13719698D02*
X4058277Y-13719698D01*
X4058277Y-13719698D02*
X4039229Y-13729222D01*
X4039229Y-13729222D02*
X4029706Y-13738746D01*
X4029706Y-13738746D02*
X4020182Y-13757793D01*
X4020182Y-13757793D02*
X4020182Y-13795888D01*
X4020182Y-13795888D02*
X4029706Y-13814936D01*
X4029706Y-13814936D02*
X4039229Y-13824460D01*
X4039229Y-13824460D02*
X4058277Y-13833984D01*
X4058277Y-13833984D02*
X4096372Y-13833984D01*
X4096372Y-13833984D02*
X4115420Y-13824460D01*
X4115420Y-13824460D02*
X4124944Y-13814936D01*
X4124944Y-13814936D02*
X4134467Y-13795888D01*
X4134467Y-13795888D02*
X4134467Y-13757793D01*
X4134467Y-13757793D02*
X4124944Y-13738746D01*
X4124944Y-13738746D02*
X4115420Y-13729222D01*
X4115420Y-13729222D02*
X4096372Y-13719698D01*
X4324944Y-13833984D02*
X4210658Y-13833984D01*
X4267801Y-13833984D02*
X4267801Y-13633984D01*
X4267801Y-13633984D02*
X4248753Y-13662555D01*
X4248753Y-13662555D02*
X4229706Y-13681603D01*
X4229706Y-13681603D02*
X4210658Y-13691127D01*
X4401134Y-13633984D02*
X4401134Y-13672079D01*
X4477325Y-13633984D02*
X4477325Y-13672079D01*
X4772563Y-13910174D02*
X4763039Y-13900650D01*
X4763039Y-13900650D02*
X4743991Y-13872079D01*
X4743991Y-13872079D02*
X4734468Y-13853031D01*
X4734468Y-13853031D02*
X4724944Y-13824460D01*
X4724944Y-13824460D02*
X4715420Y-13776841D01*
X4715420Y-13776841D02*
X4715420Y-13738746D01*
X4715420Y-13738746D02*
X4724944Y-13691127D01*
X4724944Y-13691127D02*
X4734468Y-13662555D01*
X4734468Y-13662555D02*
X4743991Y-13643508D01*
X4743991Y-13643508D02*
X4763039Y-13614936D01*
X4763039Y-13614936D02*
X4772563Y-13605412D01*
X4953515Y-13833984D02*
X4839230Y-13833984D01*
X4896372Y-13833984D02*
X4896372Y-13633984D01*
X4896372Y-13633984D02*
X4877325Y-13662555D01*
X4877325Y-13662555D02*
X4858277Y-13681603D01*
X4858277Y-13681603D02*
X4839230Y-13691127D01*
X5124944Y-13633984D02*
X5086849Y-13633984D01*
X5086849Y-13633984D02*
X5067801Y-13643508D01*
X5067801Y-13643508D02*
X5058277Y-13653031D01*
X5058277Y-13653031D02*
X5039230Y-13681603D01*
X5039230Y-13681603D02*
X5029706Y-13719698D01*
X5029706Y-13719698D02*
X5029706Y-13795888D01*
X5029706Y-13795888D02*
X5039230Y-13814936D01*
X5039230Y-13814936D02*
X5048753Y-13824460D01*
X5048753Y-13824460D02*
X5067801Y-13833984D01*
X5067801Y-13833984D02*
X5105896Y-13833984D01*
X5105896Y-13833984D02*
X5124944Y-13824460D01*
X5124944Y-13824460D02*
X5134468Y-13814936D01*
X5134468Y-13814936D02*
X5143991Y-13795888D01*
X5143991Y-13795888D02*
X5143991Y-13748269D01*
X5143991Y-13748269D02*
X5134468Y-13729222D01*
X5134468Y-13729222D02*
X5124944Y-13719698D01*
X5124944Y-13719698D02*
X5105896Y-13710174D01*
X5105896Y-13710174D02*
X5067801Y-13710174D01*
X5067801Y-13710174D02*
X5048753Y-13719698D01*
X5048753Y-13719698D02*
X5039230Y-13729222D01*
X5039230Y-13729222D02*
X5029706Y-13748269D01*
X5258277Y-13719698D02*
X5239230Y-13710174D01*
X5239230Y-13710174D02*
X5229706Y-13700650D01*
X5229706Y-13700650D02*
X5220182Y-13681603D01*
X5220182Y-13681603D02*
X5220182Y-13672079D01*
X5220182Y-13672079D02*
X5229706Y-13653031D01*
X5229706Y-13653031D02*
X5239230Y-13643508D01*
X5239230Y-13643508D02*
X5258277Y-13633984D01*
X5258277Y-13633984D02*
X5296372Y-13633984D01*
X5296372Y-13633984D02*
X5315420Y-13643508D01*
X5315420Y-13643508D02*
X5324944Y-13653031D01*
X5324944Y-13653031D02*
X5334468Y-13672079D01*
X5334468Y-13672079D02*
X5334468Y-13681603D01*
X5334468Y-13681603D02*
X5324944Y-13700650D01*
X5324944Y-13700650D02*
X5315420Y-13710174D01*
X5315420Y-13710174D02*
X5296372Y-13719698D01*
X5296372Y-13719698D02*
X5258277Y-13719698D01*
X5258277Y-13719698D02*
X5239230Y-13729222D01*
X5239230Y-13729222D02*
X5229706Y-13738746D01*
X5229706Y-13738746D02*
X5220182Y-13757793D01*
X5220182Y-13757793D02*
X5220182Y-13795888D01*
X5220182Y-13795888D02*
X5229706Y-13814936D01*
X5229706Y-13814936D02*
X5239230Y-13824460D01*
X5239230Y-13824460D02*
X5258277Y-13833984D01*
X5258277Y-13833984D02*
X5296372Y-13833984D01*
X5296372Y-13833984D02*
X5315420Y-13824460D01*
X5315420Y-13824460D02*
X5324944Y-13814936D01*
X5324944Y-13814936D02*
X5334468Y-13795888D01*
X5334468Y-13795888D02*
X5334468Y-13757793D01*
X5334468Y-13757793D02*
X5324944Y-13738746D01*
X5324944Y-13738746D02*
X5315420Y-13729222D01*
X5315420Y-13729222D02*
X5296372Y-13719698D01*
X5572563Y-13833984D02*
X5572563Y-13633984D01*
X5658277Y-13833984D02*
X5658277Y-13729222D01*
X5658277Y-13729222D02*
X5648753Y-13710174D01*
X5648753Y-13710174D02*
X5629706Y-13700650D01*
X5629706Y-13700650D02*
X5601134Y-13700650D01*
X5601134Y-13700650D02*
X5582087Y-13710174D01*
X5582087Y-13710174D02*
X5572563Y-13719698D01*
X5782087Y-13833984D02*
X5763039Y-13824460D01*
X5763039Y-13824460D02*
X5753515Y-13814936D01*
X5753515Y-13814936D02*
X5743991Y-13795888D01*
X5743991Y-13795888D02*
X5743991Y-13738746D01*
X5743991Y-13738746D02*
X5753515Y-13719698D01*
X5753515Y-13719698D02*
X5763039Y-13710174D01*
X5763039Y-13710174D02*
X5782087Y-13700650D01*
X5782087Y-13700650D02*
X5810658Y-13700650D01*
X5810658Y-13700650D02*
X5829706Y-13710174D01*
X5829706Y-13710174D02*
X5839230Y-13719698D01*
X5839230Y-13719698D02*
X5848753Y-13738746D01*
X5848753Y-13738746D02*
X5848753Y-13795888D01*
X5848753Y-13795888D02*
X5839230Y-13814936D01*
X5839230Y-13814936D02*
X5829706Y-13824460D01*
X5829706Y-13824460D02*
X5810658Y-13833984D01*
X5810658Y-13833984D02*
X5782087Y-13833984D01*
X5963039Y-13833984D02*
X5943991Y-13824460D01*
X5943991Y-13824460D02*
X5934468Y-13805412D01*
X5934468Y-13805412D02*
X5934468Y-13633984D01*
X6115420Y-13824460D02*
X6096372Y-13833984D01*
X6096372Y-13833984D02*
X6058277Y-13833984D01*
X6058277Y-13833984D02*
X6039230Y-13824460D01*
X6039230Y-13824460D02*
X6029706Y-13805412D01*
X6029706Y-13805412D02*
X6029706Y-13729222D01*
X6029706Y-13729222D02*
X6039230Y-13710174D01*
X6039230Y-13710174D02*
X6058277Y-13700650D01*
X6058277Y-13700650D02*
X6096372Y-13700650D01*
X6096372Y-13700650D02*
X6115420Y-13710174D01*
X6115420Y-13710174D02*
X6124944Y-13729222D01*
X6124944Y-13729222D02*
X6124944Y-13748269D01*
X6124944Y-13748269D02*
X6029706Y-13767317D01*
X6201134Y-13824460D02*
X6220182Y-13833984D01*
X6220182Y-13833984D02*
X6258277Y-13833984D01*
X6258277Y-13833984D02*
X6277325Y-13824460D01*
X6277325Y-13824460D02*
X6286849Y-13805412D01*
X6286849Y-13805412D02*
X6286849Y-13795888D01*
X6286849Y-13795888D02*
X6277325Y-13776841D01*
X6277325Y-13776841D02*
X6258277Y-13767317D01*
X6258277Y-13767317D02*
X6229706Y-13767317D01*
X6229706Y-13767317D02*
X6210658Y-13757793D01*
X6210658Y-13757793D02*
X6201134Y-13738746D01*
X6201134Y-13738746D02*
X6201134Y-13729222D01*
X6201134Y-13729222D02*
X6210658Y-13710174D01*
X6210658Y-13710174D02*
X6229706Y-13700650D01*
X6229706Y-13700650D02*
X6258277Y-13700650D01*
X6258277Y-13700650D02*
X6277325Y-13710174D01*
X6353515Y-13910174D02*
X6363039Y-13900650D01*
X6363039Y-13900650D02*
X6382087Y-13872079D01*
X6382087Y-13872079D02*
X6391611Y-13853031D01*
X6391611Y-13853031D02*
X6401134Y-13824460D01*
X6401134Y-13824460D02*
X6410658Y-13776841D01*
X6410658Y-13776841D02*
X6410658Y-13738746D01*
X6410658Y-13738746D02*
X6401134Y-13691127D01*
X6401134Y-13691127D02*
X6391611Y-13662555D01*
X6391611Y-13662555D02*
X6382087Y-13643508D01*
X6382087Y-13643508D02*
X6363039Y-13614936D01*
X6363039Y-13614936D02*
X6353515Y-13605412D01*
X6715420Y-13910174D02*
X6705896Y-13900650D01*
X6705896Y-13900650D02*
X6686849Y-13872079D01*
X6686849Y-13872079D02*
X6677325Y-13853031D01*
X6677325Y-13853031D02*
X6667801Y-13824460D01*
X6667801Y-13824460D02*
X6658277Y-13776841D01*
X6658277Y-13776841D02*
X6658277Y-13738746D01*
X6658277Y-13738746D02*
X6667801Y-13691127D01*
X6667801Y-13691127D02*
X6677325Y-13662555D01*
X6677325Y-13662555D02*
X6686849Y-13643508D01*
X6686849Y-13643508D02*
X6705896Y-13614936D01*
X6705896Y-13614936D02*
X6715420Y-13605412D01*
X6791611Y-13700650D02*
X6791611Y-13833984D01*
X6791611Y-13719698D02*
X6801134Y-13710174D01*
X6801134Y-13710174D02*
X6820182Y-13700650D01*
X6820182Y-13700650D02*
X6848753Y-13700650D01*
X6848753Y-13700650D02*
X6867801Y-13710174D01*
X6867801Y-13710174D02*
X6877325Y-13729222D01*
X6877325Y-13729222D02*
X6877325Y-13833984D01*
X7001134Y-13833984D02*
X6982087Y-13824460D01*
X6982087Y-13824460D02*
X6972563Y-13814936D01*
X6972563Y-13814936D02*
X6963039Y-13795888D01*
X6963039Y-13795888D02*
X6963039Y-13738746D01*
X6963039Y-13738746D02*
X6972563Y-13719698D01*
X6972563Y-13719698D02*
X6982087Y-13710174D01*
X6982087Y-13710174D02*
X7001134Y-13700650D01*
X7001134Y-13700650D02*
X7029706Y-13700650D01*
X7029706Y-13700650D02*
X7048753Y-13710174D01*
X7048753Y-13710174D02*
X7058277Y-13719698D01*
X7058277Y-13719698D02*
X7067801Y-13738746D01*
X7067801Y-13738746D02*
X7067801Y-13795888D01*
X7067801Y-13795888D02*
X7058277Y-13814936D01*
X7058277Y-13814936D02*
X7048753Y-13824460D01*
X7048753Y-13824460D02*
X7029706Y-13833984D01*
X7029706Y-13833984D02*
X7001134Y-13833984D01*
X7124944Y-13700650D02*
X7201134Y-13700650D01*
X7153515Y-13633984D02*
X7153515Y-13805412D01*
X7153515Y-13805412D02*
X7163039Y-13824460D01*
X7163039Y-13824460D02*
X7182087Y-13833984D01*
X7182087Y-13833984D02*
X7201134Y-13833984D01*
X7420182Y-13700650D02*
X7420182Y-13900650D01*
X7420182Y-13710174D02*
X7439230Y-13700650D01*
X7439230Y-13700650D02*
X7477325Y-13700650D01*
X7477325Y-13700650D02*
X7496373Y-13710174D01*
X7496373Y-13710174D02*
X7505896Y-13719698D01*
X7505896Y-13719698D02*
X7515420Y-13738746D01*
X7515420Y-13738746D02*
X7515420Y-13795888D01*
X7515420Y-13795888D02*
X7505896Y-13814936D01*
X7505896Y-13814936D02*
X7496373Y-13824460D01*
X7496373Y-13824460D02*
X7477325Y-13833984D01*
X7477325Y-13833984D02*
X7439230Y-13833984D01*
X7439230Y-13833984D02*
X7420182Y-13824460D01*
X7629706Y-13833984D02*
X7610658Y-13824460D01*
X7610658Y-13824460D02*
X7601134Y-13805412D01*
X7601134Y-13805412D02*
X7601134Y-13633984D01*
X7791611Y-13833984D02*
X7791611Y-13729222D01*
X7791611Y-13729222D02*
X7782087Y-13710174D01*
X7782087Y-13710174D02*
X7763039Y-13700650D01*
X7763039Y-13700650D02*
X7724944Y-13700650D01*
X7724944Y-13700650D02*
X7705896Y-13710174D01*
X7791611Y-13824460D02*
X7772563Y-13833984D01*
X7772563Y-13833984D02*
X7724944Y-13833984D01*
X7724944Y-13833984D02*
X7705896Y-13824460D01*
X7705896Y-13824460D02*
X7696373Y-13805412D01*
X7696373Y-13805412D02*
X7696373Y-13786365D01*
X7696373Y-13786365D02*
X7705896Y-13767317D01*
X7705896Y-13767317D02*
X7724944Y-13757793D01*
X7724944Y-13757793D02*
X7772563Y-13757793D01*
X7772563Y-13757793D02*
X7791611Y-13748269D01*
X7858277Y-13700650D02*
X7934468Y-13700650D01*
X7886849Y-13633984D02*
X7886849Y-13805412D01*
X7886849Y-13805412D02*
X7896373Y-13824460D01*
X7896373Y-13824460D02*
X7915420Y-13833984D01*
X7915420Y-13833984D02*
X7934468Y-13833984D01*
X8077325Y-13824460D02*
X8058277Y-13833984D01*
X8058277Y-13833984D02*
X8020182Y-13833984D01*
X8020182Y-13833984D02*
X8001134Y-13824460D01*
X8001134Y-13824460D02*
X7991611Y-13805412D01*
X7991611Y-13805412D02*
X7991611Y-13729222D01*
X7991611Y-13729222D02*
X8001134Y-13710174D01*
X8001134Y-13710174D02*
X8020182Y-13700650D01*
X8020182Y-13700650D02*
X8058277Y-13700650D01*
X8058277Y-13700650D02*
X8077325Y-13710174D01*
X8077325Y-13710174D02*
X8086849Y-13729222D01*
X8086849Y-13729222D02*
X8086849Y-13748269D01*
X8086849Y-13748269D02*
X7991611Y-13767317D01*
X8258277Y-13833984D02*
X8258277Y-13633984D01*
X8258277Y-13824460D02*
X8239230Y-13833984D01*
X8239230Y-13833984D02*
X8201134Y-13833984D01*
X8201134Y-13833984D02*
X8182087Y-13824460D01*
X8182087Y-13824460D02*
X8172563Y-13814936D01*
X8172563Y-13814936D02*
X8163039Y-13795888D01*
X8163039Y-13795888D02*
X8163039Y-13738746D01*
X8163039Y-13738746D02*
X8172563Y-13719698D01*
X8172563Y-13719698D02*
X8182087Y-13710174D01*
X8182087Y-13710174D02*
X8201134Y-13700650D01*
X8201134Y-13700650D02*
X8239230Y-13700650D01*
X8239230Y-13700650D02*
X8258277Y-13710174D01*
X8334468Y-13910174D02*
X8343992Y-13900650D01*
X8343992Y-13900650D02*
X8363039Y-13872079D01*
X8363039Y-13872079D02*
X8372563Y-13853031D01*
X8372563Y-13853031D02*
X8382087Y-13824460D01*
X8382087Y-13824460D02*
X8391611Y-13776841D01*
X8391611Y-13776841D02*
X8391611Y-13738746D01*
X8391611Y-13738746D02*
X8382087Y-13691127D01*
X8382087Y-13691127D02*
X8372563Y-13662555D01*
X8372563Y-13662555D02*
X8363039Y-13643508D01*
X8363039Y-13643508D02*
X8343992Y-13614936D01*
X8343992Y-13614936D02*
X8334468Y-13605412D01*
X1197500Y-14062500D02*
G75*
G02*
X997500Y-14062500I-100000J0D01*
G01*
X997500Y-14062500D02*
G75*
G02*
X1197500Y-14062500I100000J0D01*
G01*
X1553515Y-13953984D02*
X1458277Y-13953984D01*
X1458277Y-13953984D02*
X1448753Y-14049222D01*
X1448753Y-14049222D02*
X1458277Y-14039698D01*
X1458277Y-14039698D02*
X1477324Y-14030174D01*
X1477324Y-14030174D02*
X1524943Y-14030174D01*
X1524943Y-14030174D02*
X1543991Y-14039698D01*
X1543991Y-14039698D02*
X1553515Y-14049222D01*
X1553515Y-14049222D02*
X1563039Y-14068269D01*
X1563039Y-14068269D02*
X1563039Y-14115888D01*
X1563039Y-14115888D02*
X1553515Y-14134936D01*
X1553515Y-14134936D02*
X1543991Y-14144460D01*
X1543991Y-14144460D02*
X1524943Y-14153984D01*
X1524943Y-14153984D02*
X1477324Y-14153984D01*
X1477324Y-14153984D02*
X1458277Y-14144460D01*
X1458277Y-14144460D02*
X1448753Y-14134936D01*
X1648753Y-14134936D02*
X1658277Y-14144460D01*
X1658277Y-14144460D02*
X1648753Y-14153984D01*
X1648753Y-14153984D02*
X1639229Y-14144460D01*
X1639229Y-14144460D02*
X1648753Y-14134936D01*
X1648753Y-14134936D02*
X1648753Y-14153984D01*
X1848753Y-14153984D02*
X1734467Y-14153984D01*
X1791610Y-14153984D02*
X1791610Y-13953984D01*
X1791610Y-13953984D02*
X1772562Y-13982555D01*
X1772562Y-13982555D02*
X1753515Y-14001603D01*
X1753515Y-14001603D02*
X1734467Y-14011127D01*
X1972562Y-13953984D02*
X1991610Y-13953984D01*
X1991610Y-13953984D02*
X2010658Y-13963508D01*
X2010658Y-13963508D02*
X2020182Y-13973031D01*
X2020182Y-13973031D02*
X2029705Y-13992079D01*
X2029705Y-13992079D02*
X2039229Y-14030174D01*
X2039229Y-14030174D02*
X2039229Y-14077793D01*
X2039229Y-14077793D02*
X2029705Y-14115888D01*
X2029705Y-14115888D02*
X2020182Y-14134936D01*
X2020182Y-14134936D02*
X2010658Y-14144460D01*
X2010658Y-14144460D02*
X1991610Y-14153984D01*
X1991610Y-14153984D02*
X1972562Y-14153984D01*
X1972562Y-14153984D02*
X1953515Y-14144460D01*
X1953515Y-14144460D02*
X1943991Y-14134936D01*
X1943991Y-14134936D02*
X1934467Y-14115888D01*
X1934467Y-14115888D02*
X1924943Y-14077793D01*
X1924943Y-14077793D02*
X1924943Y-14030174D01*
X1924943Y-14030174D02*
X1934467Y-13992079D01*
X1934467Y-13992079D02*
X1943991Y-13973031D01*
X1943991Y-13973031D02*
X1953515Y-13963508D01*
X1953515Y-13963508D02*
X1972562Y-13953984D01*
X2163039Y-13953984D02*
X2182086Y-13953984D01*
X2182086Y-13953984D02*
X2201134Y-13963508D01*
X2201134Y-13963508D02*
X2210658Y-13973031D01*
X2210658Y-13973031D02*
X2220182Y-13992079D01*
X2220182Y-13992079D02*
X2229705Y-14030174D01*
X2229705Y-14030174D02*
X2229705Y-14077793D01*
X2229705Y-14077793D02*
X2220182Y-14115888D01*
X2220182Y-14115888D02*
X2210658Y-14134936D01*
X2210658Y-14134936D02*
X2201134Y-14144460D01*
X2201134Y-14144460D02*
X2182086Y-14153984D01*
X2182086Y-14153984D02*
X2163039Y-14153984D01*
X2163039Y-14153984D02*
X2143991Y-14144460D01*
X2143991Y-14144460D02*
X2134467Y-14134936D01*
X2134467Y-14134936D02*
X2124944Y-14115888D01*
X2124944Y-14115888D02*
X2115420Y-14077793D01*
X2115420Y-14077793D02*
X2115420Y-14030174D01*
X2115420Y-14030174D02*
X2124944Y-13992079D01*
X2124944Y-13992079D02*
X2134467Y-13973031D01*
X2134467Y-13973031D02*
X2143991Y-13963508D01*
X2143991Y-13963508D02*
X2163039Y-13953984D01*
X2315420Y-14153984D02*
X2315420Y-14020650D01*
X2315420Y-14039698D02*
X2324944Y-14030174D01*
X2324944Y-14030174D02*
X2343991Y-14020650D01*
X2343991Y-14020650D02*
X2372563Y-14020650D01*
X2372563Y-14020650D02*
X2391610Y-14030174D01*
X2391610Y-14030174D02*
X2401134Y-14049222D01*
X2401134Y-14049222D02*
X2401134Y-14153984D01*
X2401134Y-14049222D02*
X2410658Y-14030174D01*
X2410658Y-14030174D02*
X2429705Y-14020650D01*
X2429705Y-14020650D02*
X2458277Y-14020650D01*
X2458277Y-14020650D02*
X2477325Y-14030174D01*
X2477325Y-14030174D02*
X2486848Y-14049222D01*
X2486848Y-14049222D02*
X2486848Y-14153984D01*
X2582086Y-14153984D02*
X2582086Y-14020650D01*
X2582086Y-14039698D02*
X2591610Y-14030174D01*
X2591610Y-14030174D02*
X2610658Y-14020650D01*
X2610658Y-14020650D02*
X2639229Y-14020650D01*
X2639229Y-14020650D02*
X2658277Y-14030174D01*
X2658277Y-14030174D02*
X2667801Y-14049222D01*
X2667801Y-14049222D02*
X2667801Y-14153984D01*
X2667801Y-14049222D02*
X2677325Y-14030174D01*
X2677325Y-14030174D02*
X2696372Y-14020650D01*
X2696372Y-14020650D02*
X2724944Y-14020650D01*
X2724944Y-14020650D02*
X2743991Y-14030174D01*
X2743991Y-14030174D02*
X2753515Y-14049222D01*
X2753515Y-14049222D02*
X2753515Y-14153984D01*
X3143991Y-13944460D02*
X2972563Y-14201603D01*
X3401134Y-13953984D02*
X3420182Y-13953984D01*
X3420182Y-13953984D02*
X3439229Y-13963508D01*
X3439229Y-13963508D02*
X3448753Y-13973031D01*
X3448753Y-13973031D02*
X3458277Y-13992079D01*
X3458277Y-13992079D02*
X3467801Y-14030174D01*
X3467801Y-14030174D02*
X3467801Y-14077793D01*
X3467801Y-14077793D02*
X3458277Y-14115888D01*
X3458277Y-14115888D02*
X3448753Y-14134936D01*
X3448753Y-14134936D02*
X3439229Y-14144460D01*
X3439229Y-14144460D02*
X3420182Y-14153984D01*
X3420182Y-14153984D02*
X3401134Y-14153984D01*
X3401134Y-14153984D02*
X3382086Y-14144460D01*
X3382086Y-14144460D02*
X3372563Y-14134936D01*
X3372563Y-14134936D02*
X3363039Y-14115888D01*
X3363039Y-14115888D02*
X3353515Y-14077793D01*
X3353515Y-14077793D02*
X3353515Y-14030174D01*
X3353515Y-14030174D02*
X3363039Y-13992079D01*
X3363039Y-13992079D02*
X3372563Y-13973031D01*
X3372563Y-13973031D02*
X3382086Y-13963508D01*
X3382086Y-13963508D02*
X3401134Y-13953984D01*
X3553515Y-14134936D02*
X3563039Y-14144460D01*
X3563039Y-14144460D02*
X3553515Y-14153984D01*
X3553515Y-14153984D02*
X3543991Y-14144460D01*
X3543991Y-14144460D02*
X3553515Y-14134936D01*
X3553515Y-14134936D02*
X3553515Y-14153984D01*
X3639229Y-13973031D02*
X3648753Y-13963508D01*
X3648753Y-13963508D02*
X3667801Y-13953984D01*
X3667801Y-13953984D02*
X3715420Y-13953984D01*
X3715420Y-13953984D02*
X3734467Y-13963508D01*
X3734467Y-13963508D02*
X3743991Y-13973031D01*
X3743991Y-13973031D02*
X3753515Y-13992079D01*
X3753515Y-13992079D02*
X3753515Y-14011127D01*
X3753515Y-14011127D02*
X3743991Y-14039698D01*
X3743991Y-14039698D02*
X3629706Y-14153984D01*
X3629706Y-14153984D02*
X3753515Y-14153984D01*
X3877325Y-13953984D02*
X3896372Y-13953984D01*
X3896372Y-13953984D02*
X3915420Y-13963508D01*
X3915420Y-13963508D02*
X3924944Y-13973031D01*
X3924944Y-13973031D02*
X3934467Y-13992079D01*
X3934467Y-13992079D02*
X3943991Y-14030174D01*
X3943991Y-14030174D02*
X3943991Y-14077793D01*
X3943991Y-14077793D02*
X3934467Y-14115888D01*
X3934467Y-14115888D02*
X3924944Y-14134936D01*
X3924944Y-14134936D02*
X3915420Y-14144460D01*
X3915420Y-14144460D02*
X3896372Y-14153984D01*
X3896372Y-14153984D02*
X3877325Y-14153984D01*
X3877325Y-14153984D02*
X3858277Y-14144460D01*
X3858277Y-14144460D02*
X3848753Y-14134936D01*
X3848753Y-14134936D02*
X3839229Y-14115888D01*
X3839229Y-14115888D02*
X3829706Y-14077793D01*
X3829706Y-14077793D02*
X3829706Y-14030174D01*
X3829706Y-14030174D02*
X3839229Y-13992079D01*
X3839229Y-13992079D02*
X3848753Y-13973031D01*
X3848753Y-13973031D02*
X3858277Y-13963508D01*
X3858277Y-13963508D02*
X3877325Y-13953984D01*
X4067801Y-13953984D02*
X4086848Y-13953984D01*
X4086848Y-13953984D02*
X4105896Y-13963508D01*
X4105896Y-13963508D02*
X4115420Y-13973031D01*
X4115420Y-13973031D02*
X4124944Y-13992079D01*
X4124944Y-13992079D02*
X4134467Y-14030174D01*
X4134467Y-14030174D02*
X4134467Y-14077793D01*
X4134467Y-14077793D02*
X4124944Y-14115888D01*
X4124944Y-14115888D02*
X4115420Y-14134936D01*
X4115420Y-14134936D02*
X4105896Y-14144460D01*
X4105896Y-14144460D02*
X4086848Y-14153984D01*
X4086848Y-14153984D02*
X4067801Y-14153984D01*
X4067801Y-14153984D02*
X4048753Y-14144460D01*
X4048753Y-14144460D02*
X4039229Y-14134936D01*
X4039229Y-14134936D02*
X4029706Y-14115888D01*
X4029706Y-14115888D02*
X4020182Y-14077793D01*
X4020182Y-14077793D02*
X4020182Y-14030174D01*
X4020182Y-14030174D02*
X4029706Y-13992079D01*
X4029706Y-13992079D02*
X4039229Y-13973031D01*
X4039229Y-13973031D02*
X4048753Y-13963508D01*
X4048753Y-13963508D02*
X4067801Y-13953984D01*
X4248753Y-14039698D02*
X4229706Y-14030174D01*
X4229706Y-14030174D02*
X4220182Y-14020650D01*
X4220182Y-14020650D02*
X4210658Y-14001603D01*
X4210658Y-14001603D02*
X4210658Y-13992079D01*
X4210658Y-13992079D02*
X4220182Y-13973031D01*
X4220182Y-13973031D02*
X4229706Y-13963508D01*
X4229706Y-13963508D02*
X4248753Y-13953984D01*
X4248753Y-13953984D02*
X4286849Y-13953984D01*
X4286849Y-13953984D02*
X4305896Y-13963508D01*
X4305896Y-13963508D02*
X4315420Y-13973031D01*
X4315420Y-13973031D02*
X4324944Y-13992079D01*
X4324944Y-13992079D02*
X4324944Y-14001603D01*
X4324944Y-14001603D02*
X4315420Y-14020650D01*
X4315420Y-14020650D02*
X4305896Y-14030174D01*
X4305896Y-14030174D02*
X4286849Y-14039698D01*
X4286849Y-14039698D02*
X4248753Y-14039698D01*
X4248753Y-14039698D02*
X4229706Y-14049222D01*
X4229706Y-14049222D02*
X4220182Y-14058746D01*
X4220182Y-14058746D02*
X4210658Y-14077793D01*
X4210658Y-14077793D02*
X4210658Y-14115888D01*
X4210658Y-14115888D02*
X4220182Y-14134936D01*
X4220182Y-14134936D02*
X4229706Y-14144460D01*
X4229706Y-14144460D02*
X4248753Y-14153984D01*
X4248753Y-14153984D02*
X4286849Y-14153984D01*
X4286849Y-14153984D02*
X4305896Y-14144460D01*
X4305896Y-14144460D02*
X4315420Y-14134936D01*
X4315420Y-14134936D02*
X4324944Y-14115888D01*
X4324944Y-14115888D02*
X4324944Y-14077793D01*
X4324944Y-14077793D02*
X4315420Y-14058746D01*
X4315420Y-14058746D02*
X4305896Y-14049222D01*
X4305896Y-14049222D02*
X4286849Y-14039698D01*
X4401134Y-13953984D02*
X4401134Y-13992079D01*
X4477325Y-13953984D02*
X4477325Y-13992079D01*
X4772563Y-14230174D02*
X4763039Y-14220650D01*
X4763039Y-14220650D02*
X4743991Y-14192079D01*
X4743991Y-14192079D02*
X4734468Y-14173031D01*
X4734468Y-14173031D02*
X4724944Y-14144460D01*
X4724944Y-14144460D02*
X4715420Y-14096841D01*
X4715420Y-14096841D02*
X4715420Y-14058746D01*
X4715420Y-14058746D02*
X4724944Y-14011127D01*
X4724944Y-14011127D02*
X4734468Y-13982555D01*
X4734468Y-13982555D02*
X4743991Y-13963508D01*
X4743991Y-13963508D02*
X4763039Y-13934936D01*
X4763039Y-13934936D02*
X4772563Y-13925412D01*
X4877325Y-14039698D02*
X4858277Y-14030174D01*
X4858277Y-14030174D02*
X4848753Y-14020650D01*
X4848753Y-14020650D02*
X4839230Y-14001603D01*
X4839230Y-14001603D02*
X4839230Y-13992079D01*
X4839230Y-13992079D02*
X4848753Y-13973031D01*
X4848753Y-13973031D02*
X4858277Y-13963508D01*
X4858277Y-13963508D02*
X4877325Y-13953984D01*
X4877325Y-13953984D02*
X4915420Y-13953984D01*
X4915420Y-13953984D02*
X4934468Y-13963508D01*
X4934468Y-13963508D02*
X4943991Y-13973031D01*
X4943991Y-13973031D02*
X4953515Y-13992079D01*
X4953515Y-13992079D02*
X4953515Y-14001603D01*
X4953515Y-14001603D02*
X4943991Y-14020650D01*
X4943991Y-14020650D02*
X4934468Y-14030174D01*
X4934468Y-14030174D02*
X4915420Y-14039698D01*
X4915420Y-14039698D02*
X4877325Y-14039698D01*
X4877325Y-14039698D02*
X4858277Y-14049222D01*
X4858277Y-14049222D02*
X4848753Y-14058746D01*
X4848753Y-14058746D02*
X4839230Y-14077793D01*
X4839230Y-14077793D02*
X4839230Y-14115888D01*
X4839230Y-14115888D02*
X4848753Y-14134936D01*
X4848753Y-14134936D02*
X4858277Y-14144460D01*
X4858277Y-14144460D02*
X4877325Y-14153984D01*
X4877325Y-14153984D02*
X4915420Y-14153984D01*
X4915420Y-14153984D02*
X4934468Y-14144460D01*
X4934468Y-14144460D02*
X4943991Y-14134936D01*
X4943991Y-14134936D02*
X4953515Y-14115888D01*
X4953515Y-14115888D02*
X4953515Y-14077793D01*
X4953515Y-14077793D02*
X4943991Y-14058746D01*
X4943991Y-14058746D02*
X4934468Y-14049222D01*
X4934468Y-14049222D02*
X4915420Y-14039698D01*
X5124944Y-14020650D02*
X5124944Y-14153984D01*
X5077325Y-13944460D02*
X5029706Y-14087317D01*
X5029706Y-14087317D02*
X5153515Y-14087317D01*
X5382087Y-14153984D02*
X5382087Y-13953984D01*
X5467801Y-14153984D02*
X5467801Y-14049222D01*
X5467801Y-14049222D02*
X5458277Y-14030174D01*
X5458277Y-14030174D02*
X5439230Y-14020650D01*
X5439230Y-14020650D02*
X5410658Y-14020650D01*
X5410658Y-14020650D02*
X5391611Y-14030174D01*
X5391611Y-14030174D02*
X5382087Y-14039698D01*
X5591611Y-14153984D02*
X5572563Y-14144460D01*
X5572563Y-14144460D02*
X5563039Y-14134936D01*
X5563039Y-14134936D02*
X5553515Y-14115888D01*
X5553515Y-14115888D02*
X5553515Y-14058746D01*
X5553515Y-14058746D02*
X5563039Y-14039698D01*
X5563039Y-14039698D02*
X5572563Y-14030174D01*
X5572563Y-14030174D02*
X5591611Y-14020650D01*
X5591611Y-14020650D02*
X5620182Y-14020650D01*
X5620182Y-14020650D02*
X5639230Y-14030174D01*
X5639230Y-14030174D02*
X5648753Y-14039698D01*
X5648753Y-14039698D02*
X5658277Y-14058746D01*
X5658277Y-14058746D02*
X5658277Y-14115888D01*
X5658277Y-14115888D02*
X5648753Y-14134936D01*
X5648753Y-14134936D02*
X5639230Y-14144460D01*
X5639230Y-14144460D02*
X5620182Y-14153984D01*
X5620182Y-14153984D02*
X5591611Y-14153984D01*
X5772563Y-14153984D02*
X5753515Y-14144460D01*
X5753515Y-14144460D02*
X5743991Y-14125412D01*
X5743991Y-14125412D02*
X5743991Y-13953984D01*
X5924944Y-14144460D02*
X5905896Y-14153984D01*
X5905896Y-14153984D02*
X5867801Y-14153984D01*
X5867801Y-14153984D02*
X5848753Y-14144460D01*
X5848753Y-14144460D02*
X5839230Y-14125412D01*
X5839230Y-14125412D02*
X5839230Y-14049222D01*
X5839230Y-14049222D02*
X5848753Y-14030174D01*
X5848753Y-14030174D02*
X5867801Y-14020650D01*
X5867801Y-14020650D02*
X5905896Y-14020650D01*
X5905896Y-14020650D02*
X5924944Y-14030174D01*
X5924944Y-14030174D02*
X5934468Y-14049222D01*
X5934468Y-14049222D02*
X5934468Y-14068269D01*
X5934468Y-14068269D02*
X5839230Y-14087317D01*
X6010658Y-14144460D02*
X6029706Y-14153984D01*
X6029706Y-14153984D02*
X6067801Y-14153984D01*
X6067801Y-14153984D02*
X6086849Y-14144460D01*
X6086849Y-14144460D02*
X6096372Y-14125412D01*
X6096372Y-14125412D02*
X6096372Y-14115888D01*
X6096372Y-14115888D02*
X6086849Y-14096841D01*
X6086849Y-14096841D02*
X6067801Y-14087317D01*
X6067801Y-14087317D02*
X6039230Y-14087317D01*
X6039230Y-14087317D02*
X6020182Y-14077793D01*
X6020182Y-14077793D02*
X6010658Y-14058746D01*
X6010658Y-14058746D02*
X6010658Y-14049222D01*
X6010658Y-14049222D02*
X6020182Y-14030174D01*
X6020182Y-14030174D02*
X6039230Y-14020650D01*
X6039230Y-14020650D02*
X6067801Y-14020650D01*
X6067801Y-14020650D02*
X6086849Y-14030174D01*
X6163039Y-14230174D02*
X6172563Y-14220650D01*
X6172563Y-14220650D02*
X6191611Y-14192079D01*
X6191611Y-14192079D02*
X6201134Y-14173031D01*
X6201134Y-14173031D02*
X6210658Y-14144460D01*
X6210658Y-14144460D02*
X6220182Y-14096841D01*
X6220182Y-14096841D02*
X6220182Y-14058746D01*
X6220182Y-14058746D02*
X6210658Y-14011127D01*
X6210658Y-14011127D02*
X6201134Y-13982555D01*
X6201134Y-13982555D02*
X6191611Y-13963508D01*
X6191611Y-13963508D02*
X6172563Y-13934936D01*
X6172563Y-13934936D02*
X6163039Y-13925412D01*
X6524944Y-14230174D02*
X6515420Y-14220650D01*
X6515420Y-14220650D02*
X6496372Y-14192079D01*
X6496372Y-14192079D02*
X6486849Y-14173031D01*
X6486849Y-14173031D02*
X6477325Y-14144460D01*
X6477325Y-14144460D02*
X6467801Y-14096841D01*
X6467801Y-14096841D02*
X6467801Y-14058746D01*
X6467801Y-14058746D02*
X6477325Y-14011127D01*
X6477325Y-14011127D02*
X6486849Y-13982555D01*
X6486849Y-13982555D02*
X6496372Y-13963508D01*
X6496372Y-13963508D02*
X6515420Y-13934936D01*
X6515420Y-13934936D02*
X6524944Y-13925412D01*
X6601134Y-14020650D02*
X6601134Y-14153984D01*
X6601134Y-14039698D02*
X6610658Y-14030174D01*
X6610658Y-14030174D02*
X6629706Y-14020650D01*
X6629706Y-14020650D02*
X6658277Y-14020650D01*
X6658277Y-14020650D02*
X6677325Y-14030174D01*
X6677325Y-14030174D02*
X6686849Y-14049222D01*
X6686849Y-14049222D02*
X6686849Y-14153984D01*
X6810658Y-14153984D02*
X6791611Y-14144460D01*
X6791611Y-14144460D02*
X6782087Y-14134936D01*
X6782087Y-14134936D02*
X6772563Y-14115888D01*
X6772563Y-14115888D02*
X6772563Y-14058746D01*
X6772563Y-14058746D02*
X6782087Y-14039698D01*
X6782087Y-14039698D02*
X6791611Y-14030174D01*
X6791611Y-14030174D02*
X6810658Y-14020650D01*
X6810658Y-14020650D02*
X6839230Y-14020650D01*
X6839230Y-14020650D02*
X6858277Y-14030174D01*
X6858277Y-14030174D02*
X6867801Y-14039698D01*
X6867801Y-14039698D02*
X6877325Y-14058746D01*
X6877325Y-14058746D02*
X6877325Y-14115888D01*
X6877325Y-14115888D02*
X6867801Y-14134936D01*
X6867801Y-14134936D02*
X6858277Y-14144460D01*
X6858277Y-14144460D02*
X6839230Y-14153984D01*
X6839230Y-14153984D02*
X6810658Y-14153984D01*
X6934468Y-14020650D02*
X7010658Y-14020650D01*
X6963039Y-13953984D02*
X6963039Y-14125412D01*
X6963039Y-14125412D02*
X6972563Y-14144460D01*
X6972563Y-14144460D02*
X6991611Y-14153984D01*
X6991611Y-14153984D02*
X7010658Y-14153984D01*
X7229706Y-14020650D02*
X7229706Y-14220650D01*
X7229706Y-14030174D02*
X7248753Y-14020650D01*
X7248753Y-14020650D02*
X7286849Y-14020650D01*
X7286849Y-14020650D02*
X7305896Y-14030174D01*
X7305896Y-14030174D02*
X7315420Y-14039698D01*
X7315420Y-14039698D02*
X7324944Y-14058746D01*
X7324944Y-14058746D02*
X7324944Y-14115888D01*
X7324944Y-14115888D02*
X7315420Y-14134936D01*
X7315420Y-14134936D02*
X7305896Y-14144460D01*
X7305896Y-14144460D02*
X7286849Y-14153984D01*
X7286849Y-14153984D02*
X7248753Y-14153984D01*
X7248753Y-14153984D02*
X7229706Y-14144460D01*
X7439230Y-14153984D02*
X7420182Y-14144460D01*
X7420182Y-14144460D02*
X7410658Y-14125412D01*
X7410658Y-14125412D02*
X7410658Y-13953984D01*
X7601134Y-14153984D02*
X7601134Y-14049222D01*
X7601134Y-14049222D02*
X7591611Y-14030174D01*
X7591611Y-14030174D02*
X7572563Y-14020650D01*
X7572563Y-14020650D02*
X7534468Y-14020650D01*
X7534468Y-14020650D02*
X7515420Y-14030174D01*
X7601134Y-14144460D02*
X7582087Y-14153984D01*
X7582087Y-14153984D02*
X7534468Y-14153984D01*
X7534468Y-14153984D02*
X7515420Y-14144460D01*
X7515420Y-14144460D02*
X7505896Y-14125412D01*
X7505896Y-14125412D02*
X7505896Y-14106365D01*
X7505896Y-14106365D02*
X7515420Y-14087317D01*
X7515420Y-14087317D02*
X7534468Y-14077793D01*
X7534468Y-14077793D02*
X7582087Y-14077793D01*
X7582087Y-14077793D02*
X7601134Y-14068269D01*
X7667801Y-14020650D02*
X7743992Y-14020650D01*
X7696373Y-13953984D02*
X7696373Y-14125412D01*
X7696373Y-14125412D02*
X7705896Y-14144460D01*
X7705896Y-14144460D02*
X7724944Y-14153984D01*
X7724944Y-14153984D02*
X7743992Y-14153984D01*
X7886849Y-14144460D02*
X7867801Y-14153984D01*
X7867801Y-14153984D02*
X7829706Y-14153984D01*
X7829706Y-14153984D02*
X7810658Y-14144460D01*
X7810658Y-14144460D02*
X7801134Y-14125412D01*
X7801134Y-14125412D02*
X7801134Y-14049222D01*
X7801134Y-14049222D02*
X7810658Y-14030174D01*
X7810658Y-14030174D02*
X7829706Y-14020650D01*
X7829706Y-14020650D02*
X7867801Y-14020650D01*
X7867801Y-14020650D02*
X7886849Y-14030174D01*
X7886849Y-14030174D02*
X7896373Y-14049222D01*
X7896373Y-14049222D02*
X7896373Y-14068269D01*
X7896373Y-14068269D02*
X7801134Y-14087317D01*
X8067801Y-14153984D02*
X8067801Y-13953984D01*
X8067801Y-14144460D02*
X8048754Y-14153984D01*
X8048754Y-14153984D02*
X8010658Y-14153984D01*
X8010658Y-14153984D02*
X7991611Y-14144460D01*
X7991611Y-14144460D02*
X7982087Y-14134936D01*
X7982087Y-14134936D02*
X7972563Y-14115888D01*
X7972563Y-14115888D02*
X7972563Y-14058746D01*
X7972563Y-14058746D02*
X7982087Y-14039698D01*
X7982087Y-14039698D02*
X7991611Y-14030174D01*
X7991611Y-14030174D02*
X8010658Y-14020650D01*
X8010658Y-14020650D02*
X8048754Y-14020650D01*
X8048754Y-14020650D02*
X8067801Y-14030174D01*
X8143992Y-14230174D02*
X8153515Y-14220650D01*
X8153515Y-14220650D02*
X8172563Y-14192079D01*
X8172563Y-14192079D02*
X8182087Y-14173031D01*
X8182087Y-14173031D02*
X8191611Y-14144460D01*
X8191611Y-14144460D02*
X8201134Y-14096841D01*
X8201134Y-14096841D02*
X8201134Y-14058746D01*
X8201134Y-14058746D02*
X8191611Y-14011127D01*
X8191611Y-14011127D02*
X8182087Y-13982555D01*
X8182087Y-13982555D02*
X8172563Y-13963508D01*
X8172563Y-13963508D02*
X8153515Y-13934936D01*
X8153515Y-13934936D02*
X8143992Y-13925412D01*
M02*
