M48
; DRILL file {KiCad 9.0.6} date 2026-04-04T11:40:07+0800
; FORMAT={-:-/ absolute / metric / decimal}
; #@! TF.CreationDate,2026-04-04T11:40:07+08:00
; #@! TF.GenerationSoftware,Kicad,Pcbnew,9.0.6
; #@! TF.FileFunction,Plated,1,2,PTH
FMAT,2
METRIC
; #@! TA.AperFunction,Plated,PTH,ViaDrill
T1C0.300
; #@! TA.AperFunction,Plated,PTH,ComponentDrill
T2C0.800
; #@! TA.AperFunction,Plated,PTH,ComponentDrill
T3C0.820
; #@! TA.AperFunction,Plated,PTH,ComponentDrill
T4C2.500
%
G90
G05
T1
X18.556Y-123.762
X33.337Y-41.212
X38.1Y-117.412
X42.862Y-60.262
X44.875Y-118.875
X47.625Y-79.312
X52.387Y-41.212
X57.15Y-98.362
X61.912Y-60.262
X61.912Y-117.412
X66.181Y-123.762
X66.675Y-79.312
X71.438Y-41.212
X76.2Y-98.362
X80.962Y-60.262
X85.725Y-79.312
X85.725Y-117.412
X90.487Y-41.212
X95.25Y-98.362
X100.012Y-60.262
X104.775Y-79.312
X109.537Y-41.212
X114.3Y-98.362
X119.062Y-60.262
X123.825Y-79.312
X128.588Y-41.212
X133.35Y-98.362
X137.619Y-123.762
X138.112Y-60.262
X142.875Y-79.312
X147.637Y-41.212
X149.525Y-38.0
X152.4Y-98.362
X157.162Y-60.262
X161.925Y-79.312
X166.688Y-41.212
X168.575Y-39.0
X171.45Y-98.362
X176.213Y-60.262
X180.975Y-79.312
X185.737Y-41.212
X187.625Y-45.0
X190.5Y-98.362
X195.262Y-60.262
X200.025Y-79.312
X204.787Y-41.212
X204.787Y-117.412
X206.675Y-123.762
X208.0Y-129.6
X209.55Y-98.362
X210.0Y-129.0
X210.056Y-50.944
X214.312Y-60.262
X219.075Y-79.312
X223.837Y-41.212
X223.837Y-117.412
X225.725Y-51.0
X228.6Y-98.362
X229.9Y-129.4
X233.0Y-127.8
X233.0Y-128.6
X233.0Y-129.4
X233.362Y-60.262
X235.3Y-129.4
X238.125Y-79.312
X242.887Y-41.212
X242.887Y-117.412
X244.775Y-123.762
X247.65Y-98.362
X251.106Y-53.894
X252.412Y-60.262
X257.175Y-79.312
X261.938Y-41.212
X261.938Y-117.412
X271.462Y-60.262
X280.988Y-98.362
X280.988Y-117.412
X286.75Y-75.25
X300.037Y-41.212
X300.037Y-60.262
X300.037Y-79.312
X300.037Y-98.362
X300.037Y-117.412
X301.925Y-28.512
X316.0Y-22.0
X319.087Y-41.212
X319.087Y-60.262
X319.087Y-79.312
X319.087Y-98.362
X319.087Y-117.412
X322.884Y-26.194
X322.884Y-31.274
X322.884Y-33.814
X325.0Y-32.0
X327.0Y-55.0
X330.0Y-67.0
X330.0Y-69.0
X331.0Y-30.0
X331.0Y-33.0
X331.9Y-62.4
X332.0Y-34.0
X332.0Y-38.0
X332.0Y-68.0
X332.0Y-70.0
X332.0Y-122.0
X332.0Y-127.0
X333.0Y-30.0
X335.0Y-73.0
X335.0Y-76.0
X336.0Y-73.0
X336.0Y-76.0
X337.0Y-73.0
X337.0Y-76.0
X337.0Y-83.0
X337.0Y-84.0
X338.0Y-39.881
X338.0Y-73.0
X338.0Y-76.0
X338.964Y-39.0
X339.049Y-31.274
X340.0Y-116.0
T2
X340.519Y-49.269
X340.519Y-60.269
X340.519Y-63.556
X340.519Y-74.556
T3
X326.231Y-41.275
X326.231Y-43.815
X326.231Y-46.355
X326.231Y-48.895
X326.231Y-51.435
X326.231Y-53.975
X326.231Y-56.515
X326.231Y-59.055
X326.231Y-61.595
X326.231Y-64.135
X326.231Y-66.675
X326.231Y-69.215
X326.231Y-71.755
X326.231Y-74.295
X334.101Y-41.275
X334.101Y-43.815
X334.101Y-46.355
X334.101Y-48.895
X334.101Y-51.435
X334.101Y-53.975
X334.101Y-56.515
X334.101Y-59.055
X334.101Y-61.595
X334.101Y-64.135
X334.101Y-66.675
X334.101Y-69.215
X334.101Y-71.755
X334.101Y-74.295
T4
X326.494Y-23.194
X326.494Y-26.594
M30
